<?xml version="1.0" encoding="utf-8"?>
<!-- Generator: Adobe Illustrator 15.1.0, SVG Export Plug-In . SVG Version: 6.00 Build 0)  -->
<!DOCTYPE svg PUBLIC "-//W3C//DTD SVG 1.1//EN" "http://www.w3.org/Graphics/SVG/1.1/DTD/svg11.dtd" [
	<!ENTITY ns_extend "http://ns.adobe.com/Extensibility/1.0/">
	<!ENTITY ns_ai "http://ns.adobe.com/AdobeIllustrator/10.0/">
	<!ENTITY ns_graphs "http://ns.adobe.com/Graphs/1.0/">
	<!ENTITY ns_vars "http://ns.adobe.com/Variables/1.0/">
	<!ENTITY ns_imrep "http://ns.adobe.com/ImageReplacement/1.0/">
	<!ENTITY ns_sfw "http://ns.adobe.com/SaveForWeb/1.0/">
	<!ENTITY ns_custom "http://ns.adobe.com/GenericCustomNamespace/1.0/">
	<!ENTITY ns_adobe_xpath "http://ns.adobe.com/XPath/1.0/">
	<!ENTITY st0 "fill:none;stroke:#000000;stroke-width:3;stroke-linecap:round;stroke-linejoin:round;stroke-miterlimit:10;">
	<!ENTITY st1 "stroke:#000000;stroke-width:3;stroke-linecap:round;stroke-linejoin:round;stroke-miterlimit:10;">
]>
<svg version="1.1" id="Capa_1" xmlns:x="&ns_extend;" xmlns:i="&ns_ai;" xmlns:graph="&ns_graphs;"
	 xmlns="http://www.w3.org/2000/svg" xmlns:xlink="http://www.w3.org/1999/xlink" x="0px" y="0px" width="1058.32px"
	 height="793.7px" viewBox="0 0 1058.32 793.7" style="enable-background:new 0 0 1058.32 793.7;" xml:space="preserve">
<metadata>
	<sfw  xmlns="&ns_sfw;">
		<slices></slices>
		<sliceSourceBounds  height="793" width="1056.381" x="1.188" y="-793.426" bottomLeftOrigin="true"></sliceSourceBounds>
	</sfw>
</metadata>
<polyline style="&st0;" points="2.688,265.303 266.064,265.303 266.064,1.926 2.688,1.926 2.688,265.303 266.064,1.926 "/>
<polyline style="&st0;" points="266.064,265.303 529.311,265.303 529.311,1.926 266.064,1.926 266.064,265.303 "/>
<polyline style="&st0;" points="529.311,265.303 792.688,265.303 792.688,1.926 529.311,1.926 529.311,265.303 "/>
<polyline style="&st0;" points="792.688,265.303 1056.068,265.303 1056.068,1.926 792.688,1.926 792.688,265.303 "/>
<line style="&st0;" x1="266.064" y1="133.595" x2="529.311" y2="133.595"/>
<path style="&st0;" d="M529.214,265.173c72.702,0,131.606-58.938,131.606-131.606c0-72.702-58.938-131.607-131.606-131.607"/>
<polyline style="&st0;" points="1056.068,528.55 792.688,528.55 792.688,265.303 1056.068,265.303 1056.068,528.55 792.688,265.303 
	"/>
<polyline style="&st0;" points="792.688,528.55 529.311,528.55 529.311,265.303 792.688,265.303 792.688,528.55 "/>
<polyline style="&st0;" points="529.311,528.55 266.064,528.55 266.064,265.303 529.311,265.303 529.311,528.55 "/>
<polyline style="&st0;" points="266.064,528.55 2.688,528.55 2.688,265.303 266.064,265.303 266.064,528.55 "/>
<line style="&st0;" x1="792.688" y1="396.977" x2="529.311" y2="396.977"/>
<path style="&st0;" d="M529.214,265.303c-72.702,0-131.606,58.938-131.606,131.606c0,72.702,58.938,131.607,131.606,131.607"/>
<polyline style="&st0;" points="2.688,528.55 266.064,528.55 266.064,791.926 2.688,791.926 2.688,528.55 266.064,791.926 "/>
<polyline style="&st0;" points="266.064,528.55 529.311,528.55 529.311,791.926 266.064,791.926 266.064,528.55 "/>
<polyline style="&st0;" points="529.311,528.55 792.688,528.55 792.688,791.926 529.311,791.926 529.311,528.55 "/>
<polyline style="&st1;" points="792.688,528.55 1056.068,528.55 1056.068,791.926 792.688,791.926 792.688,528.55 "/>
<path style="&st0;" d="M529.214,791.796c72.702,0,131.606-58.938,131.606-131.606c0-72.702-58.938-131.605-131.606-131.605"/>
</svg>
