<?xml version="1.0" encoding="utf-8"?>
<!-- Generator: Adobe Illustrator 15.1.0, SVG Export Plug-In . SVG Version: 6.00 Build 0)  -->
<!DOCTYPE svg PUBLIC "-//W3C//DTD SVG 1.1//EN" "http://www.w3.org/Graphics/SVG/1.1/DTD/svg11.dtd" [
	<!ENTITY ns_extend "http://ns.adobe.com/Extensibility/1.0/">
	<!ENTITY ns_ai "http://ns.adobe.com/AdobeIllustrator/10.0/">
	<!ENTITY ns_graphs "http://ns.adobe.com/Graphs/1.0/">
	<!ENTITY ns_vars "http://ns.adobe.com/Variables/1.0/">
	<!ENTITY ns_imrep "http://ns.adobe.com/ImageReplacement/1.0/">
	<!ENTITY ns_sfw "http://ns.adobe.com/SaveForWeb/1.0/">
	<!ENTITY ns_custom "http://ns.adobe.com/GenericCustomNamespace/1.0/">
	<!ENTITY ns_adobe_xpath "http://ns.adobe.com/XPath/1.0/">
	<!ENTITY st0 "fill:none;stroke:#000000;stroke-width:3;stroke-linecap:round;stroke-linejoin:round;stroke-miterlimit:10;">
]>
<svg version="1.1" id="Capa_1" xmlns:x="&ns_extend;" xmlns:i="&ns_ai;" xmlns:graph="&ns_graphs;"
	 xmlns="http://www.w3.org/2000/svg" xmlns:xlink="http://www.w3.org/1999/xlink" x="0px" y="0px" width="1058.32px"
	 height="793.7px" viewBox="0 0 1058.32 793.7" style="enable-background:new 0 0 1058.32 793.7;" xml:space="preserve">
<metadata>
	<sfw  xmlns="&ns_sfw;">
		<slices></slices>
		<sliceSourceBounds  height="796.701" width="1061.316" x="-1.28" y="-795.276" bottomLeftOrigin="true"></sliceSourceBounds>
	</sfw>
</metadata>
<g>
	<polyline style="&st0;" points="0.22,264.687 264.831,264.687 264.831,0.076 0.22,0.076 0.22,264.687 264.831,0.076 	"/>
	<polyline style="&st0;" points="264.831,264.687 529.311,264.687 529.311,0.076 264.831,0.076 264.831,264.687 	"/>
	<polyline style="&st0;" points="529.311,264.687 793.921,264.687 793.921,0.076 529.311,0.076 529.311,264.687 	"/>
	<polyline style="&st0;" points="793.921,264.687 1058.536,264.687 1058.536,0.076 793.921,0.076 793.921,264.687 	"/>
	<line style="&st0;" x1="264.831" y1="132.362" x2="529.311" y2="132.362"/>
	<path style="&st0;" d="M529.213,264.556c73.043,0,132.223-59.214,132.223-132.223c0-73.042-59.214-132.223-132.223-132.223"/>
	<polyline style="&st0;" points="1058.536,529.166 793.921,529.166 793.921,264.687 1058.536,264.687 1058.536,529.166 
		793.921,264.687 	"/>
	<polyline style="&st0;" points="793.921,529.166 529.311,529.166 529.311,264.687 793.921,264.687 793.921,529.166 	"/>
	<polyline style="&st0;" points="529.311,529.166 264.831,529.166 264.831,264.687 529.311,264.687 529.311,529.166 	"/>
	<polyline style="&st0;" points="264.831,529.166 0.22,529.166 0.22,264.687 264.831,264.687 264.831,529.166 	"/>
	<line style="&st0;" x1="793.921" y1="396.977" x2="529.311" y2="396.977"/>
	<path style="&st0;" d="M529.213,264.687c-73.042,0-132.223,59.214-132.223,132.223c0,73.043,59.214,132.224,132.223,132.224"/>
	<polyline style="&st0;" points="0.22,529.166 264.831,529.166 264.831,793.776 0.22,793.776 0.22,529.166 264.831,793.776 	"/>
	<polyline style="&st0;" points="264.831,529.166 529.311,529.166 529.311,793.776 264.831,793.776 264.831,529.166 	"/>
	<polyline style="&st0;" points="529.311,529.166 793.921,529.166 793.921,793.776 529.311,793.776 529.311,529.166 	"/>
	<polyline style="&st0;" points="793.921,529.166 1058.536,529.166 1058.536,793.776 793.921,793.776 793.921,529.166 	"/>
	<path style="&st0;" d="M529.213,793.646c73.043,0,132.223-59.214,132.223-132.223c0-73.043-59.214-132.223-132.223-132.223"/>
</g>
</svg>
