<?xml version="1.0" encoding="UTF-8"?>
<!DOCTYPE svg PUBLIC "-//W3C//DTD SVG 1.1//EN" "http://www.w3.org/Graphics/SVG/1.1/DTD/svg11.dtd">
<!-- Creator: CorelDRAW X8 -->
<?xml-stylesheet href="trama con ogo redondo1.css" type="text/css"?>
<svg xmlns="http://www.w3.org/2000/svg" xml:space="preserve" width="279.553mm" height="209.867mm" version="1.1" style="shape-rendering:geometricPrecision; text-rendering:geometricPrecision; image-rendering:optimizeQuality; fill-rule:evenodd; clip-rule:evenodd"
viewBox="0 0 9724 7300"
 xmlns:xlink="http://www.w3.org/1999/xlink">
 <g id="Capa_x0020_1">
  <metadata id="CorelCorpID_0Corel-Layer"/>
  <polygon class="fil0" points="7285,4861 9709,4861 9709,7285 7285,7285 "/>
  <path class="fil1 str0" d="M15 2439l2424 0 0 -2424 -2424 0 0 2424 2424 -2424m0 2424l2422 0 0 -2424 -2422 0 0 2424m2422 0l2424 0 0 -2424 -2424 0 0 2424m2424 0l2424 0 0 -2424 -2424 0 0 2424m-4846 -1213l2422 0m-1 1211c669,0 1211,-542 1211,-1211 0,-669 -542,-1211 -1211,-1211m4849 4846l-2424 0 0 -2422 2424 0 0 2422 -2424 -2422m0 2422l-2424 0 0 -2422 2424 0 0 2422m-2424 0l-2422 0 0 -2422 2422 0 0 2422m-2422 0l-2424 0 0 -2422 2424 0 0 2422m4846 -1211l-2424 0m-1 -1211c-669,0 -1211,542 -1211,1211 0,669 543,1211 1211,1211m-4845 0l2424 0 0 2424 -2424 0 0 -2424 2424 2424m0 -2424l2422 0 0 2424 -2422 0 0 -2424m2422 0l2424 0 0 2424 -2424 0 0 -2424m2424 0l2424 0 0 2424 -2424 0 0 -2424zm-2425 2423c669,0 1211,-543 1211,-1211 0,-669 -542,-1211 -1211,-1211"/>
  <g id="_2582598598384">
   <path class="fil2" d="M8809 5977c-37,0 -59,6 -59,-9 0,-41 -4,-187 3,-216 41,0 114,-11 119,53 2,33 6,112 -5,138 -9,21 -28,34 -58,34zm-520 -315c0,59 -3,243 3,289 4,31 -8,26 -32,26 -14,0 -9,-18 -9,-32l0 -256c0,-44 14,-36 -87,-36 -14,0 -34,61 -44,81l-80 172c-3,9 -5,13 -9,21 -36,71 -75,169 -110,241l-20 42c-4,8 -5,13 -9,21 -4,9 -7,13 -11,22 -8,19 -36,75 -37,90 23,0 36,-3 56,-3 40,0 44,16 61,-22l27 -63c9,-22 17,-40 27,-62l82 -191c9,-22 17,-40 27,-62l20 -48c6,-11 6,-11 12,-13l0 461c25,6 56,3 83,3 14,0 7,-25 10,-41 4,-31 2,-187 2,-227l38 0 0 256c0,20 89,13 104,6l0 -235c0,-13 -3,-27 9,-27l238 0c12,0 9,14 9,27l0 214c-1,35 -2,27 92,27 7,0 12,-5 12,-12l0 -256c62,0 134,3 176,-50 49,-62 44,-107 44,-187 0,-104 -55,-185 -158,-185 -186,0 -167,-12 -166,33l0 256c0,14 4,35 -9,35 -45,0 -216,5 -247,-3l0 -261c0,-14 1,-31 1,-45 -2,-23 -7,-15 -72,-15 -14,0 -33,-9 -33,9z"/>
   <path class="fil2" d="M8417 6254c0,67 -9,89 18,89 35,0 123,4 151,-3 6,-22 6,-73 0,-95l-133 0c-15,0 -36,-5 -36,9z"/>
   <path class="fil2" d="M8417 5662c0,43 -8,87 12,87l149 0c20,0 11,-83 8,-96 -28,-6 -121,-2 -157,-2 -7,0 -12,4 -12,11z"/>
   <path class="fil2" d="M7627 5267c6,2 78,43 89,54 -3,9 -6,10 -12,18 -8,10 -6,8 -18,14l-56 -78c-2,-4 -3,-6 -3,-8zm-33 -6c0,9 90,135 108,163 7,10 10,15 23,18 17,-15 13,-21 -12,-48 -21,-23 -3,-29 6,-40 7,-9 7,-12 18,-18 24,5 34,27 56,32l16 -14c-14,-20 -181,-120 -193,-118 -10,2 -22,15 -22,25z"/>
   <path class="fil2" d="M7784 5202c24,-36 60,-30 60,0 0,8 -10,14 -14,18 -9,9 -9,11 -22,14l-19 -22c-4,-7 -3,-7 -5,-10zm-30 -3c0,12 74,110 93,122 34,-23 -14,-34 -21,-66l7 -7c15,-11 27,1 56,13 21,9 26,16 38,-6 -12,-17 -39,-16 -63,-32 1,-9 17,-72 -41,-72 -11,0 -69,35 -69,48z"/>
   <path class="fil2" d="M7942 5110c0,-26 36,-58 74,12 5,9 17,22 5,26 -8,2 -19,-4 -38,0 2,23 26,16 36,30 -28,42 -77,-42 -77,-68zm50 98c25,0 24,-1 46,-17 15,-11 9,-2 34,-19 -13,-19 -16,-8 -21,-29 -4,-16 -7,-23 -14,-36 -24,-42 -38,-48 -72,-48 -21,0 -58,33 -41,80 10,26 34,69 68,69z"/>
   <path class="fil2" d="M8690 5110c7,0 18,0 18,-12 0,-25 -71,-8 -71,-33 0,-76 46,-1 71,-39 -6,-10 -10,-10 -25,-13 -15,-3 -22,-4 -34,-7 0,-18 3,-30 9,-42 9,2 9,4 18,6 31,9 38,10 53,0 -12,-23 -21,-19 -73,-28 -26,-5 -26,3 -36,64 -3,16 -18,75 -13,83 6,8 65,21 83,21z"/>
   <path class="fil2" d="M8575 7124c-23,-15 -16,-53 -45,-53 -18,0 -14,49 -11,67 3,22 0,55 5,76 30,6 21,-4 17,-95 20,6 6,28 37,44 10,-16 15,-25 20,-47l6 0c0,15 5,36 6,50 2,21 -3,37 15,42 7,-5 9,-4 9,-15 0,-25 -3,-44 -7,-68 -2,-12 -3,-60 -17,-60 -27,0 -20,30 -35,59z"/>
   <path class="fil2" d="M8153 4988c0,37 63,128 6,128 -26,0 -24,-3 -43,-62 -14,-43 -10,-58 -38,-51 -4,18 -1,22 5,39 6,17 21,67 29,79 16,23 22,21 47,21 48,0 60,-43 42,-87 -10,-26 -17,-62 -31,-82 -8,2 -17,5 -17,15z"/>
   <path class="fil2" d="M9062 5264c0,16 30,35 50,52 24,20 19,16 36,5 -8,-15 -14,-17 -26,-28 -5,-4 -9,-7 -15,-12 -16,-13 -19,-9 -1,-32 6,-7 8,-9 15,-15 25,7 40,51 60,24 -6,-21 -42,-27 -42,-47 0,-6 17,-24 21,-27 10,3 7,3 15,9 4,4 8,6 12,11 10,9 18,16 29,22l13 -12c-12,-21 -67,-63 -72,-63 -10,0 -43,48 -49,55 -5,7 -46,51 -46,58z"/>
   <path class="fil2" d="M8203 7175c15,-10 25,-73 27,-92l6 0c1,11 4,15 6,26 5,25 11,65 24,84 23,-6 22,-24 30,-62 4,-23 16,-58 11,-78l-15 0c-7,13 -7,24 -11,39 -2,9 -2,11 -4,20 -3,12 -1,12 -11,15 -1,-13 -8,-36 -11,-51 -4,-17 -6,-41 -25,-41 -13,0 -15,19 -18,30 -3,14 -6,25 -10,40 -9,37 -23,64 1,70z"/>
   <path class="fil2" d="M7436 6075c-43,0 -83,6 -71,-47 26,-6 91,0 94,1 14,7 7,46 -23,46zm-95 -50c0,76 32,74 90,74 61,0 56,-52 56,-92 0,-7 -2,-6 -6,-12 -25,2 0,12 -36,12 -12,0 -16,-2 -24,-2 -12,-1 -8,3 -25,1 -48,-6 -22,-6 -40,-20 -11,8 -15,20 -15,39z"/>
   <path class="fil2" d="M9255 5327c0,47 15,35 15,68 0,18 -48,28 -48,-15 0,-11 8,-30 -9,-30 -23,0 -24,87 42,87 20,0 39,-19 39,-45 0,-21 -15,-38 -15,-62 0,-16 20,-17 31,-8 14,10 10,24 10,46 45,11 28,-74 -26,-74 -20,0 -39,14 -39,33z"/>
   <path class="fil2" d="M8875 7035c9,1 5,-2 18,14 6,7 12,13 14,22 -5,8 -16,12 -26,15 -5,-19 -6,-26 -6,-51zm-27 -26c0,14 2,20 3,35l8 72c1,18 -4,13 1,35 27,0 24,0 24,-44 10,-6 25,-9 38,-12 14,9 14,18 27,26 34,-7 8,-32 -19,-61l-46 -58c-9,-8 -11,-10 -36,7z"/>
   <path class="fil2" d="M7588 6682c-16,-25 -29,-27 36,-42 -3,11 -7,14 -15,24 -7,10 -10,12 -21,18zm-83 -30c2,30 20,19 31,16l13 -3c0,1 1,1 1,1 12,2 23,30 23,33 0,10 -12,14 -17,23 -6,12 0,18 8,25 10,-2 11,-5 17,-13 6,-8 8,-10 15,-18 10,-13 19,-23 28,-34 27,-35 44,-44 25,-65 -13,-15 -20,-1 -76,14 -22,6 -51,9 -68,21z"/>
   <path class="fil2" d="M9570 6191l0 30c-15,-1 -32,-14 -47,-18 5,-8 8,-7 20,-9 10,-1 15,-3 27,-3zm-80 -9c-7,31 -5,32 19,40 22,8 61,30 83,39 21,9 32,17 32,-7 0,-14 -36,-17 -36,-30 0,-7 7,-27 9,-36 51,0 43,-29 30,-29 -22,0 -50,7 -70,11 -17,3 -56,7 -67,12z"/>
   <path class="fil2" d="M9546 6072c-34,0 -29,5 -29,-26 0,-8 1,-11 5,-16 32,-35 50,42 24,42zm92 6l0 2 -3 10 -130 3c-17,1 -9,-66 -1,-78 31,-43 66,7 75,7 4,0 21,-11 25,-14 29,-20 24,-16 34,-4 -5,25 -59,33 -59,51 0,39 39,-2 59,23z"/>
   <path class="fil2" d="M9243 6771c0,-29 40,-34 66,-4 6,6 23,31 23,39 0,13 -24,53 -79,-12 -5,-6 -10,-14 -10,-23zm-21 3c0,40 51,80 84,80 22,0 47,-20 47,-42 0,-26 -1,-40 -30,-62 -12,-9 -30,-27 -50,-27 -28,0 -51,23 -51,51z"/>
   <path class="fil2" d="M9416 6468c16,11 33,18 53,27 15,6 48,16 48,35 0,9 -12,23 -20,25 -8,3 -25,-7 -33,-10 -13,-5 -59,-30 -66,-30 -14,0 -14,16 -4,24 13,10 79,42 102,42 34,0 59,-61 30,-84 -10,-8 -85,-47 -99,-47 -10,0 -9,9 -11,18z"/>
   <path class="fil2" d="M7350 6176c0,19 2,30 4,48 2,19 0,36 17,36 30,0 -23,-72 21,-72l24 0c0,14 0,34 6,45 6,11 17,10 17,-3 0,-20 -3,-26 -3,-45 55,-26 27,29 48,60 22,-5 16,-20 11,-56 -2,-20 -1,-22 -11,-36 -20,0 -50,6 -69,8 -15,2 -65,3 -65,15z"/>
   <path class="fil2" d="M7737 6928c9,14 22,25 36,36 0,0 41,40 41,9 0,-12 -38,-34 -48,-48 7,-12 16,-22 27,-29 34,22 20,33 51,26 -1,-25 -22,-23 -36,-44 3,-16 9,-18 21,-24 12,-2 56,59 56,21 0,-12 -54,-49 -62,-54 -12,8 -35,38 -45,50 -12,15 -38,44 -41,57z"/>
   <path class="fil2" d="M8087 7113c-51,0 -24,-62 -11,-83 21,-29 68,-12 46,46 -5,13 -22,37 -35,37zm-53 -24c0,44 64,73 98,15 48,-83 -12,-125 -56,-104 -22,11 -42,57 -42,89z"/>
   <path class="fil2" d="M8411 7190c-26,0 -33,-29 -32,-47 1,-26 9,-54 38,-54 15,0 29,33 26,52 -3,15 -15,49 -32,49zm-53 -63c0,33 -5,84 50,84 19,0 36,-10 43,-23 27,-50 7,-120 -31,-120 -21,0 -33,0 -47,18 -6,9 -15,27 -15,41z"/>
   <path class="fil2" d="M8780 5083c0,93 95,71 95,50 0,-22 -30,-6 -42,-6 -15,0 -30,-13 -30,-32 0,-12 14,-74 45,-74 42,0 28,26 48,26 41,0 -42,-104 -98,-17 -8,12 -18,35 -18,53z"/>
   <path class="fil2" d="M9121 6878c7,-10 12,-16 27,-19 54,-11 12,91 -27,19zm-26 -3c0,13 48,69 59,83 9,12 14,24 27,24 8,0 10,-6 10,-12 1,-14 -19,-24 -28,-42 17,-25 33,-30 33,-59 0,-16 -21,-58 -73,-20 -8,6 -28,16 -28,26z"/>
   <path class="fil2" d="M9365 6673c-13,0 -13,-12 -27,-15 0,-15 -1,-15 7,-24 10,-10 17,-9 32,-9 20,0 9,48 -12,48zm-56 -18c0,12 105,80 110,80 9,0 10,-7 11,-15 -6,-9 -26,-21 -38,-29 4,-21 18,-34 18,-54 0,-27 -44,-63 -79,-17 -5,6 -22,29 -22,35z"/>
   <path class="fil2" d="M8982 5053c-2,8 -3,6 -3,12 0,15 32,18 32,30 0,12 -21,44 -28,55 -6,10 -9,16 -15,26 -7,11 -13,17 -16,29 24,36 41,-18 51,-38 6,-10 29,-57 35,-57 25,0 18,21 48,6 -2,-24 -54,-43 -73,-55 -12,-7 -17,-13 -31,-8z"/>
   <path class="fil2" d="M8435 4946c14,10 10,8 33,9 29,1 11,24 11,110 0,33 30,26 30,-6 0,-24 -3,-90 0,-104 18,0 45,3 45,-15 0,-9 -9,-12 -18,-12l-86 0c-10,0 -13,10 -15,18z"/>
   <path class="fil2" d="M7891 7011c0,37 26,57 51,57 14,0 21,-3 26,-12l-3 -12c-22,-5 -30,7 -43,-7 -17,-19 -8,-31 7,-59 16,-30 49,-34 59,-10 6,13 3,18 19,20 15,-23 -3,-42 -20,-51 -52,-28 -96,41 -96,74z"/>
   <path class="fil2" d="M8304 5101c12,5 40,-3 51,-9 -2,-19 -8,-13 -14,-25 -4,-9 -16,-88 -16,-100 0,-7 9,-2 9,-18 0,-19 -51,-4 -52,7 -1,11 8,8 14,17 4,6 4,17 6,26 4,27 14,64 6,79 -5,10 -9,12 -4,23z"/>
   <path class="fil2" d="M8964 5662c0,8 15,47 51,10 22,-22 44,-36 44,-57 0,-13 -9,-24 -21,-24 -22,0 -74,58 -74,71z"/>
   <path class="fil2" d="M9014 5859c0,27 32,26 69,26 27,0 44,-2 44,-26 0,-33 -42,-24 -89,-24 -14,0 -24,9 -24,24z"/>
   <path class="fil2" d="M8777 5511c0,84 -9,95 29,95 10,0 16,-10 18,-18 4,-26 3,-48 0,-74 -4,-32 -47,-23 -47,-3z"/>
   <path class="fil2" d="M9029 6132c17,0 30,-12 30,-24 0,-18 -25,-35 -36,-47 -14,-13 -31,-37 -51,-19 -22,19 -2,35 12,49 8,8 35,41 45,41z"/>
   <path class="fil2" d="M7433 6506c0,16 21,56 29,73 6,12 5,13 22,13 5,-21 4,-11 -17,-54 -20,-41 25,-33 85,-64 9,-5 12,-8 12,-21 -16,-5 -2,-7 -15,-4l-52 23c-12,6 -64,24 -64,34z"/>
   <path class="fil2" d="M9561 6405c-21,0 -128,-54 -114,-17 5,14 38,19 52,23l64 19c13,2 18,-5 22,-16l21 -65c0,-9 -7,-14 -12,-18 -19,13 -19,74 -33,74z"/>
   <path class="fil2" d="M8696 7056c3,11 2,6 9,12 12,12 10,14 18,44 17,64 3,47 3,69 0,10 37,4 48,-12 -15,-22 -14,-1 -24,-45 -23,-92 -6,-53 -6,-74 0,-24 -39,-6 -48,6z"/>
   <path class="fil2" d="M9445 5651c0,53 66,8 66,0 0,-14 -7,-19 -15,-24 -9,2 -51,17 -51,24z"/>
   <path class="fil2" d="M7463 5630c10,10 61,49 66,0 -8,-8 -11,-9 -22,-14 -26,-12 -36,-18 -44,14z"/>
  </g>
 </g>
</svg>
