<?xml version="1.0" encoding="utf-8"?>
<!-- Generator: Adobe Illustrator 15.1.0, SVG Export Plug-In . SVG Version: 6.00 Build 0)  -->
<!DOCTYPE svg PUBLIC "-//W3C//DTD SVG 1.0//EN" "http://www.w3.org/TR/2001/REC-SVG-20010904/DTD/svg10.dtd">
<svg version="1.0" id="Capa_1" xmlns="http://www.w3.org/2000/svg" xmlns:xlink="http://www.w3.org/1999/xlink" x="0px" y="0px"
	 width="2654px" height="1761px" viewBox="0 0 2654 1761" enable-background="new 0 0 2654 1761" xml:space="preserve">
<path fill="#010202" d="M2235.568,1178.76c1.541,13.313,3.082,26.625,4.529,39.113c-83.072,61.305-75.51-85.877-106.535-128.318
	c-9.75,3.715-6.326,11.615-6.613,17.346c-11.207,145.371-2.17,295.475-36.865,437.418h-48.887
	c-20.928-15.648-1.086-63.828-0.01-87.016c10.988-49.867,14.605-100.191,14.666-152.178c-26-9.02-50.902-18.375-80.646-17.129
	c-19.939,65.113-16.816,134.561-24.561,201.723c-0.107,20.508-13.877,45.52-38.316,33.563
	c-50.578-77.713,76.945-461.494-44.875-490.758c5.301,169.693,19.396,339.961,21.191,510.207
	c1.521,52.781,4.744,61.592-53.793,57.277c-8.938-8.127-7.752-17.539-6.75-26.637c6.934-75.764,0.008-153.045-5.672-227.793
	c-1.922-0.82-4.174-2.727-5.723-2.281c-28.678,8.254-58.082,8.313-87.557,8.008c-19.525,0.234-47.615-1.709-44.811,24.656
	c1.053,74.432-19.34,146.004-28.77,219.117c-3.799,26.1-39.158,20.611-56.193,9.201c-7.959-75.805,18.203-153.051,23.055-229.066
	c9.543-96.584,21.572-190.865,26.031-288.076c-23.615,33.047-26.154,71.684-55.076,96.561
	c-18.596-9.756-41.281-20.988-28.283-43.387c23.709-54.602,32.039-113.137,46.229-170.168c8.92-38.113,11.238-77.867,34.449-111.49
	c25.51-35.824,22.99-83.988,29.645-125.153c39.705-25.838,62.457,16.331,56.697,49.528c-4.197,64.983,60.398,98.039,105.896,132.263
	c30.576,17.396,56.318,41.869,83.859,61.922c73.008-86.762-21.875-207.681,56.012-232.762c19.365-9.095,49.268-13.447,43.703,16.554
	c-4.99,77.785,106.313,93.33,120.809,169.763c26.549,83.434,53.961,176.598,94.135,249.033L2235.568,1178.76z M1602.107,1111.582
	c6.441-5.988,9.326-12.922,5.959-21.516c33.672-17.02,18.285-138.508,64.039-130.068c31.316,3.998-2.57,166.096-0.725,197.512
	c-10.963,137.852-29.463,274.842-47.875,411.883c-0.35,2.715,1.498,5.701,4.121,14.818c4.064-12.969,8.016-20.072,8.285-27.311
	c1.775-47.32,20.25-92.363,19.045-140.148c4.906-29.395-10.691-88.775,34.371-88.209
	c181.285,11.408,165.781-103.131,164.936,123.566c4.775-91.154-0.197-181.998-8.105-272.799
	c-0.861-60.006-18.271-123.041-3.064-181.662c28.326-37.467,128.943,110.023,163.631,120.021
	c-25.627-47.639-75.055-79.189-108.242-122.232c-18.082-20.311-37.262-38.229-61.652-50.814
	c-61.094-36.895-136.984-86.529-129.908-166.159c0.492-5.941,3.584-14.077-6.086-18.246c-8.025,43.092-13.369,85.944-38.574,124.018
	c-5.896,9.678-9.16,21.205-11.99,32.287c-13.238,65.645-28.711,131.281-48.746,195.547c1.74,1.32,2.826,2.512,1.854,4.713
	C1602.953,1115.047,1602.531,1113.314,1602.107,1111.582 M1944.475,1007.549c20.121,27.311,116.131,93.742,95.791,120.229
	c-26.045,57.578-57.785-3.762-94.133-12.922c1.598,70.045-0.85,132.021-7.473,200.086c17.018-87.223,57.584-49.57,122.572-38.184
	c36.742,7.449,19.217,48.697,19.588,74.629c-2.494,43.818-8.521,86.961-18.918,129.646c-2.316,11.979-4.729,24.158,1.529,37.879
	c8.795-4.639,11.053-10.848,11.766-17.615c14.91-113.332,18.5-227.398,22.627-341.486c0.965-32.254,0.24-64.563,5.352-96.559
	c1.566-23.502,22.145-25.637,41.844-29.66c-13-67.328-32.646-135.764-94.484-175.244c-27.646-18.373-50.125-42.057-55.342-77.017
	c-0.471-3.165-6.037-7.373-9.732-7.925c-24.553,3.125-8.754,61.723-8.01,79.285
	C1990.682,908.703,1961.725,955.242,1944.475,1007.549 M2171.832,1103.131c-1.621-1.041-2.477-1.59-3.334-2.141
	c0.676,23.137,13.359,48.537,19.4,71.947c3.363,9.814,5.871,21.473,23.094,29.807
	C2197.623,1165.34,2183.756,1134.199,2171.832,1103.131"/>
<path fill="#010202" d="M2236.539,1179.799c-21.053-46.254,36.898-90.084,22.117-149.393c0.945-55.574-32.73-211.644,4.846-244.249
	c32.621-28.275,20.455-86.746,70.344-97.232c25.779-7.601,26.881,24.069,25.484,41.229c-4.049,46.436,45.996,28.556,95.02,112.977
	c6.924,11.559,8.852,26.492,10.219,39.699c-0.207,67.205,74.232,100.371,57.445,173.082
	c-13.689,135.111,10.131,269.506,22.873,403.637c-1.621,33.705,43.205,137.385,9.057,151.674
	c-35.166,15.682-47.172-11.557-43.441-41.988c-0.867-59.258-16.418-115.883-34.381-172.436c1.393,42.033,2.857,84.109,4.316,126.119
	c2.656,24.949-38.879,40.008-48.172,14.709c-11.936-54.346-6.307-110.357-8.758-165.553c-0.965-16.475,3.354-29.979-17.059-36.98
	c-10.805,96.209,7.045,192.861,0.178,289.338c-2.498,22.813-37.529,25.967-49.965,8.611c-7.219-9.65-9.949-20.748-9.65-32.639
	c1.861-91.211,3.02-182.387,12.207-273.219c0.818-12.576-0.033-25.305-1.02-37.896c-9.691-15.461-21.311,3.229-20.182,14.746
	c-3.582,72.764-23.129,143.438-28.043,216.121c-11.717,29.688-56.08-5.021-48.174-30.004c11.686-98.287,9.574-195.461,8.344-295.879
	c-11.746-5.277-23.209-10.428-34.625-15.547C2235.568,1178.758,2236.539,1179.799,2236.539,1179.799 M2294.535,1394.602
	c34.723-39.18-11.908-113.934,43.629-135.951c14.951-5.381,20.822-16.92,20.314-32.773c-5.871-49.783,4.703-97.969-6.25-147.01
	c-28.002,34.191-56.768,69.82-53.748,115.488c2.76,78.951-1.059,157.605-3.982,236.32c0.014-0.002,0.025-0.006,0.037-0.008V1394.602
	L2294.535,1394.602z M2257.756,1152.693c2.092,0.998,4.182,1.998,6.271,2.996c25.996-25.441,52.803-111.09,91.324-105.262
	c22.594,3.465,28.691,26.688,29.457,45.307c0.131,64.508-0.066,129.041,0.352,193.555c0.043,7.623-2.475,16.502,9.799,23.404
	c31.979-9.781,67.008-18.037,104.324-4.449c3.494-67.068-10.277-129.027-6.689-195.561c-3.861-44.727,13.992-95.678-15.82-134.385
	c-55.834-50.355-22.793-113.786-55.957-123.717c-9.672,10.916-7.145,24.23-6.313,36.336
	C2422.969,967.391,2277.879,1053.873,2257.756,1152.693 M2400.082,816.462c-22.5-30.771-70.127-34.271-68.705-79.178
	c-0.121-4.333-0.895-9.274-7.592-8.605c-13.279,26.574-20.281,56.16-43.123,78.13c-7.344,8.073-9.947,18.133-9.037,28.997
	c2.008,31.021,5.473,61.963,7.113,92.993c3.527,36.111-5.932,69.418,9.941,104.662c28.563-26.543,48.125-57.055,74.523-85.016
	c17.441-19.168,25.787-40.016,24.635-66.012C2386.836,859.811,2384.223,836.189,2400.082,816.462"/>
<path fill="#010202" d="M1333.15,914.824c53.678-111.189,105.396-227.114,142.539-344.815c2.68-15.677,13.121-41.303,29.633-36.474
	c60.758,14.986,11.869,101.662,5.369,141.017c-14.031,44.022-28.352,87.997-44.309,131.371
	c-48.205,100.475-78.844,207.708-83.32,319.297c-0.873,19.387-4.713,38.342-13.988,56.611
	c-17.561,86.789-0.938,180.102-3.613,268.82c2.959,57.494,13.688,114.658,18.598,172.045c9.838,37.445-49.625,50.629-68.636,26.035
	c-24.409-95.588-25.879-198.313-42.75-296.637c-31.5-12.857-65.361-8.166-97.91-1.271c-28.334,5.834-26.678,34.012-27.871,56.439
	c-3.072,64.572-5.526,129.182-9.239,193.721c0.69,48.146-22.156,52.707-66.601,44.783c-24.569-66.832,4.451-132.771,16.715-198.57
	c13.49-114.525,29.66-229.447,24.974-344.967c-0.858-27.531-8.483-54.488-22.7-78.881c-31.728-47.064-36.449-104.059-61.092-154.167
	c-16.967-47.879-146.189-282.678-109.953-306.153c37.885-31.402,43.687,41.126,56.057,62.907
	c33.209,101.016,91.85,189.385,151.062,275.955c3.782,23.078,40.726,23.072,49.613,3.309c19.135-39.36,43.69-76.592,47.16-122.078
	c1.808-23.688,13.487-34.572,36.976-40.257c32.205-4.685,52.033-9.891,47.834,29.59
	C1307.768,822.438,1310.913,868.548,1333.15,914.824 M1040.723,821.16c-1.092,0.585-2.186,1.171-3.275,1.757
	c34.853,74.333,52.512,154.195,90.248,227.478c30.898,95.355,1.311,200.387,1.168,297.1c28.715-29.412,156.813-44.598,170.85,0.297
	c8.836,83.523,18.662,167.076,31.763,250.164c3.68,10.32,0.746,30.184,14.316,32.418c7.406-0.197,8.867-6.574,8.582-12.533
	c-0.541-62.42-17.059-123.146-14.475-185.842c0.494-60.988,2.762-122.42-3.678-183.186c-10.619-53.109,22.479-99.84,24.934-151.789
	c1.74-40.477,6.873-80.338,14.85-119.932c8.045-53.242,30.186-101.082,55.063-148.629c28.33-84.374,65.072-168.262,78.064-256.33
	c-55.566,119.41-97.094,245.96-154.547,363.907c-37.269,3.318-48.535-3.139-56.492-33.098c-8.895-33.48-16.49-67.248-15.412-102.237
	c2.141-16.682-2.415-41.854-24.199-27.624c-8.595,6.688-12.066,16.713-12.504,27.49c-1.801,39.891-27.854,73.041-40.209,110.007
	c-9.031,24.613-28.604,31.566-51.917,34.301C1103.267,950.396,1066.323,855.987,1040.723,821.16 M1122.3,1402.754
	c-1.251-0.139-2.503-0.281-3.755-0.422c-6.846,70.145-27.43,140.598-25.662,210.797
	C1124.911,1643.74,1116.381,1424.219,1122.3,1402.754"/>
<path fill="#010202" d="M420.147,968.699c18.339-9.645,36.918-19.371,55.451-29.178c40.871-24.053,2.742-90.717,74.383-115.508
	c31.09-7.327,27.714,26.728,21.329,46.129c-10.763,55.45,60.161,64.68,50.993,170.305c-2.8,204.018,3.817,408.736-4.337,612.434
	c-1.854,9.646-12.003,14.777-21.729,13.076c-23.041-4.031-32.355-13.781-32.355-37.475c0-48.404-2.582-96.971,6.818-144.98
	c18.287-64.668-52.931-35.332-91.709-34.32c-6.916,42.43-5.519,84.658-6.24,127.365c0.131,18.395-3.997,31.805-24.98,34.912
	c-14.674,6.082-9.893,26.98-11.352,40.973c-6.796,27.004,8.561,101.355-22.868,108.998c-9.9,0.754-19.614-4.313-22.551-13.102
	c-13.346-88.707-15.954-179.301-16.196-269.053c2.959-56.471-4.105-79.164-64.061-91.619
	c-61.834-20.428-57.729,84.215-62.429,122.107c-1.957,15.33,4.629,40.236-15.487,45.037
	c-44.783,8.182-29.259-109.256-35.586-137.869c-5.141-106.262,4.658-212.135,9.338-318.064c-2.743-33.838,7.112-64.049,27.184-90.93
	c18.904-33.938,71.412-59.762,68.396-100.82c-9.939-30.811-1.186-55.121,27.381-70.127c11.072-6.774,21.982-7.627,33.154-0.992
	C409.6,872.067,326.083,927.756,420.147,968.699 M227.903,1446.484c11.055-28.016,5.964-74.557,35.88-83.217
	c37.417-4.43,72.712,2.24,105.367,20.553c61.392,31.234,19.551,191.498,39.546,252.115c13.493-107.193,9.849-219.588,14.799-328.629
	c1.14-83.105,2.129-166.213,3.123-249.32c0.648-23.209-0.438-47.689-21.421-62.729c-12.877-10.078-24.946-21.141-37.464-31.664
	c-44.688-28-0.8-105.314-29.887-98.374c-15.698,7.729-11.346,26.51-10.57,40.594c6.744,53.75-53.454,80.416-76.199,123.229
	c-31.69,55.174-16.301,128.367-24.943,190.01C227.26,1297.455,215.706,1364.742,227.903,1446.484 M538.342,866.317
	c-15.46,11.935-13.406,25.228-14.239,37.662c0.098,52.016-46.947,56.697-79.568,85.305c12.048,23.633,9.034,49.047,8.889,74.17
	c2.837,117.389-9.11,237.018,2.722,353.434c47.446,5.662,93.577-7.047,139.549,10.84c3.448-140.283-3.227-279.994-3.006-420.313
	C593.019,943.342,541.553,934.611,538.342,866.317 M590.041,1620.768c7.423-34.021,7.012-50.264-2.964-75.963
	C588.044,1576.188,582.331,1593.73,590.041,1620.768"/>
<path fill="#010202" d="M732.668,1708.074c-8.898-106.709-7.734-216.385-0.659-323.436c-19.556-12.121-35.095-11.889-33.349-39.166
	c0.289-117.646-3.687-235.301-5.313-352.941c-11.542-87.211,35.576-49.969,34.943-108.264c-4.813-29.783,8.485-65.79-16.342-88.932
	c-35.917-36.572-71.438-73.511-107.188-110.239c-13.061-13.063-28.072-24.243-33.457-42.627
	c12.262-14.257,29.145-16.96,44.39-25.596c71.224,58.326,141.277,117.781,219.593,167.317
	c56.272,38.437,111.94,87.536,124.575,156.625c19.294,94.195,5.405,191.029,19.435,286.057
	c9.152,126.424,24.357,252.473,36.64,378.486c-0.464,11.793-8.603,20.818-18.601,22.35c-21.936,3.357-50.463-6.652-53.799-32.248
	c-9.135-47.15-13.42-93.365-20.603-140.938c-47.563,13.24-89.857,11.781-137.829,21.203c-2.406,63.441,0.428,124.865,0.354,188.049
	C788.721,1704.361,776.557,1724.389,732.668,1708.074 M760.081,1672.572c0.022-64.439-0.774-125.613-0.686-189.643
	c0.005-11.205-2.747-23.164,6.771-35.102c156.486,3.949,188.549-71.395,188.98,38.146c-0.459,35.041,8.346,68.563,15.281,102.42
	c1.41,6.883,6.172,9.172,15.35,5.041c-11.594-161.934-31.598-324.732-41.072-487.326c-1.355-66.195,3.782-135.627-23.074-197.896
	c-26.986-44.021-60.084-89.452-113.008-104.617c-5.129,32.626,25.943,50.354,39.269,76.41c15.192,35.691-50.525,44.041-55.103,7.824
	c-9.324-28.282-4.252-60.011-18.673-86.648c-54.733,19.567,12.847,104.869-39.381,136.238
	c-11.846,8.652-14.228,20.516-13.974,33.686c2.328,113.111,2.212,226.271,2.383,339.398c-0.047,21.537,2.723,39.146,27.945,44.623
	c1.867,0.404,3.197,3.172,4.763,4.861c-1.708,92.137-6.099,184.094-4.038,276.434
	C751.815,1647.779,751.823,1659.145,760.081,1672.572 M757.204,767.875c-40.314-36.97-113.485-93.197-144.412-109.679
	c51.233,44.816,83.928,77.4,126.615,126.082C745.782,778.403,750.579,773.979,757.204,767.875"/>
<path fill="#010202" d="M1256.993,542.631c-3.896,30.183,25.237,104.233-25.861,101.608c-15.157-1.06-20.969-6.104-22.526-21.194
	c-5.3-52.709-8.893-105.573-13.161-158.369c-3.811-23.62,17.766-29.309,37.832-27.105
	C1274.09,443.155,1251.334,513.627,1256.993,542.631"/>
<path fill="#010202" d="M1463.93,476.569c-25.51,59.076-56.605,114.504-84.371,172.474c-3.133,12.246-13.723,26.555-26.395,21.366
	c-33.563-12.718-6.273-50.187,0.404-72.447c18.564-41.04,37.525-81.906,56.498-122.768
	C1420.586,445.63,1446.086,463.182,1463.93,476.569"/>
<path fill="#010202" d="M1011.985,503.658c17.549-13.667,38.846-16.562,49.67,7.333c24.454,46.83,56.281,89.795,75.799,138.691
	c-9.455,7.29-19.36,14.928-30.332,23.387c-44.237-45.079-68.25-107.645-96.443-163.548
	C1010.309,508.67,1011.127,507.319,1011.985,503.658"/>
<path fill="#FFFFFF" d="M1932.938,1375.504v-22.953c0.18,0.031,0.355,0.063,0.535,0.094v22.988
	C1933.295,1375.59,1933.117,1375.547,1932.938,1375.504"/>
<path fill="#FFFFFF" d="M1601.379,1112.051c2.43-6.902,4.859-13.803,7.184-20.891c-0.109-0.186-0.334-0.781-0.414-0.938
	C1611.498,1098.777,1608.393,1106.438,1601.379,1112.051"/>
<path fill="#FFFFFF" d="M1602.107,1111.582c0.424,1.732,0.848,3.467,1.271,5.201c0.969-2.23-0.098-3.4-1.928-4.725
	C1601.379,1112.051,1602.107,1111.582,1602.107,1111.582"/>
<path fill="#010202" d="M1946.246,630.786c-1.105-9.056-1.365-18.193-0.863-27.301c0.246-4.516,0.709-9.005,1.256-13.492
	c0.104-0.856-0.111,0.81-0.107,0.771c0.051-0.325,0.092-0.652,0.137-0.977c0.068-0.489,0.141-0.978,0.213-1.465
	c0.18-1.223,0.373-2.441,0.574-3.659c0.365-2.196,0.766-4.387,1.191-6.571c3.545-18.074,9.121-35.675,15.045-53.088
	c6-17.629,12.412-35.126,17.729-52.979c5.377-18.058,9.547-36.534,11.01-55.354c1.227-15.813,0.658-32.165-2.662-47.707
	c-2.654-12.42-7.373-24.578-14.109-35.364c-6.223-9.968-14.133-18.936-23.393-26.178c-9.678-7.57-20.303-13.395-31.871-17.56
	c-11.154-4.017-22.963-6.204-34.783-6.943c-12.205-0.764-24.527,0.275-36.504,2.707c-12.357,2.509-24.35,6.774-35.639,12.378
	c-11.709,5.811-22.588,13.323-32.318,22.045c-4.865,4.36-9.422,9.065-13.629,14.065c-3.119,3.709-6.336,7.285-9.299,11.13
	c-2.762,3.584-5.357,7.291-7.744,11.136c-9.727,15.658-16.611,33.902-16.777,52.512c-0.156,17.51,6.438,34.178,18.455,46.882
	c9.857,10.421,22.633,17.646,35.559,23.558c7.07,3.233,14.279,6.162,21.475,9.107c1.721,0.704,3.443,1.41,5.162,2.12
	c0.797,0.33,1.594,0.661,2.391,0.993c0.367,0.154,0.734,0.308,1.104,0.462c1.107,0.464-0.635-0.268-0.693-0.293
	c0.244,0.104,0.488,0.206,0.732,0.31c3.334,1.418,6.65,2.875,9.934,4.41c6.406,2.997,12.689,6.297,18.592,10.201
	c1.471,0.973,2.912,1.98,4.326,3.03c0.301,0.224,0.6,0.454,0.9,0.678c0.727,0.541-1.332-1.053-0.627-0.483
	c0.145,0.116,0.295,0.23,0.439,0.347c0.686,0.543,1.359,1.097,2.025,1.662c2.609,2.214,5.076,4.598,7.348,7.16
	c0.539,0.606,1.068,1.225,1.584,1.854c0.279,0.339,0.545,0.688,0.826,1.025c0.508,0.608-0.668-0.879-0.594-0.773
	c0.182,0.257,0.381,0.502,0.568,0.755c1.352,1.819,2.301,3.929,3.314,5.949c1.148,2.288,2.254,4.6,3.316,6.93
	c0.492,1.08,0.979,2.166,1.453,3.255c0.256,0.586,0.51,1.174,0.764,1.762c0.07,0.166,0.438,1.036,0.049,0.114
	c-0.406-0.963,0.076,0.187,0.152,0.369c3.867,9.317,7.148,18.867,10.1,28.513c5.945,19.434,10.547,39.239,15.912,58.834
	c2.59,9.468,5.367,18.887,8.551,28.175c0.863,2.52,2.598,4.511,5.238,5.238c2.518,0.693,5.48,0.003,7.297-1.93
	c3.982-4.234,7.965-8.471,11.949-12.705c2.688-2.86,3.049-7.81,0-10.607c-2.918-2.679-7.736-3.053-10.607,0
	c-3.982,4.236-7.965,8.471-11.949,12.707c4.18,1.103,8.357,2.206,12.535,3.309c-6.512-18.998-11.295-38.518-16.361-57.934
	c-5.039-19.303-10.369-38.608-17.988-57.08c-2.096-5.08-4.299-10.113-6.725-15.045c-1.064-2.165-2.064-4.479-3.379-6.505
	c-1.195-1.845-2.65-3.563-4.057-5.251c-4.688-5.631-10.324-10.381-16.295-14.596c-11.953-8.439-25.604-14.135-39.061-19.682
	c-3.377-1.392-6.762-2.766-10.137-4.159c-0.797-0.329-1.592-0.657-2.387-0.989c-0.367-0.152-0.734-0.306-1.1-0.459
	c-0.184-0.076-0.365-0.153-0.549-0.229c-1.129-0.474,0.09,0.032,0.514,0.217c-1.629-0.709-3.27-1.396-4.895-2.11
	c-6.42-2.826-12.764-5.866-18.809-9.43c-2.9-1.708-5.73-3.538-8.451-5.522c-0.35-0.254-0.693-0.515-1.041-0.771
	c-0.145-0.109-0.289-0.229-0.439-0.334c-0.115-0.081,1.398,1.108,0.787,0.608c-0.664-0.543-1.344-1.066-2.004-1.617
	c-1.268-1.055-2.5-2.151-3.693-3.29c-1.236-1.178-2.428-2.402-3.57-3.672c-0.529-0.59-1.051-1.191-1.559-1.802
	c-0.236-0.282-0.471-0.566-0.699-0.854c-0.117-0.144-0.229-0.288-0.344-0.431c-0.871-1.078,0.865,1.176,0.383,0.496
	c-2.088-2.938-4.059-5.887-5.676-9.118c-0.455-0.906-0.814-1.879-1.295-2.769c0.068,0.126,0.682,1.687,0.215,0.501
	c-0.084-0.216-0.174-0.432-0.258-0.647c-0.195-0.504-0.387-1.01-0.568-1.521c-0.723-2.019-1.328-4.081-1.818-6.17
	c-0.227-0.964-0.428-1.934-0.604-2.908c-0.082-0.449-0.158-0.899-0.23-1.351c-0.035-0.225-0.068-0.451-0.104-0.677
	c-0.244-1.589,0.146,1.357,0.059,0.41c-0.195-2.055-0.387-4.095-0.432-6.159c-0.045-2.072,0.008-4.146,0.148-6.214
	c0.068-1.003,0.158-2.005,0.27-3.004c0.037-0.354,0.262-2.111,0.094-0.854c-0.17,1.268,0.084-0.527,0.137-0.854
	c0.684-4.297,1.719-8.532,3.035-12.678c0.656-2.071,1.385-4.121,2.176-6.146c0.178-0.453,0.357-0.904,0.541-1.354
	c-0.025,0.062,0.34-0.901,0.371-0.9c0.016,0.001-0.615,1.423-0.281,0.669c0.465-1.042,0.92-2.089,1.404-3.123
	c1.914-4.092,4.072-8.069,6.432-11.92c2.324-3.79,4.855-7.442,7.535-10.987c0.844-1.115-0.838,1.059,0.029-0.035
	c0.355-0.447,0.711-0.896,1.07-1.342c0.715-0.887,1.439-1.764,2.178-2.632c1.359-1.601,2.813-3.12,4.16-4.727
	c4.164-4.962,8.672-9.635,13.482-13.969c2.332-2.101,4.742-4.109,7.203-6.057c1.279-1.013-1.232,0.937-0.287,0.218
	c0.273-0.209,0.551-0.419,0.824-0.627c0.688-0.519,1.381-1.031,2.078-1.537c1.248-0.906,2.514-1.792,3.793-2.656
	c5.096-3.441,10.422-6.543,15.932-9.275c1.348-0.669,2.705-1.316,4.074-1.94c0.656-0.3,1.316-0.594,1.979-0.883
	c0.305-0.134,0.609-0.265,0.916-0.397c1.441-0.625-1.682,0.694-0.262,0.111c2.754-1.131,5.531-2.19,8.35-3.15
	c5.611-1.913,11.346-3.466,17.158-4.639c2.846-0.574,5.707-1.037,8.58-1.447c-2.936,0.419-0.189,0.034,0.551-0.052
	c0.742-0.086,1.482-0.167,2.227-0.239c1.428-0.143,2.857-0.262,4.289-0.356c5.719-0.382,11.463-0.394,17.182-0.014
	c1.402,0.093,2.801,0.21,4.199,0.349c0.672,0.068,1.342,0.14,2.012,0.218c0.309,0.036,0.617,0.073,0.926,0.112
	c0.205,0.025,0.41,0.053,0.615,0.078c1.01,0.123-1.063-0.145-1.07-0.146c2.715,0.122,5.563,0.863,8.217,1.417
	c5.434,1.133,10.787,2.647,15.998,4.557c1.281,0.469,2.553,0.962,3.814,1.479c0.332,0.136,1.57,0.656,0.221,0.087
	c-1.33-0.562-0.229-0.095,0.076,0.038c0.691,0.301,1.383,0.608,2.066,0.924c2.465,1.133,4.885,2.359,7.252,3.681
	c2.363,1.317,4.674,2.729,6.922,4.232c1.166,0.78,2.316,1.584,3.447,2.412c0.486,0.355,0.963,0.721,1.447,1.079
	c0.873,0.65-1.574-1.237-0.447-0.345c0.316,0.249,0.631,0.497,0.945,0.748c4.252,3.416,8.213,7.191,11.82,11.282
	c0.945,1.073,1.867,2.169,2.766,3.283c0.193,0.24,0.383,0.483,0.576,0.724c0.887,1.11-1.025-1.356-0.322-0.421
	c0.436,0.576,0.873,1.152,1.297,1.736c1.66,2.277,3.221,4.628,4.674,7.043c1.512,2.514,2.91,5.097,4.191,7.735
	c0.643,1.321,1.254,2.656,1.836,4.004c0.508,1.169,0.109-0.207-0.238-0.579c0.221,0.237,0.314,0.764,0.439,1.071
	c0.291,0.72,0.574,1.444,0.85,2.17c2.227,5.884,3.92,11.965,5.123,18.139c0.313,1.606,0.592,3.218,0.84,4.835
	c0.057,0.364,0.111,0.729,0.162,1.094c0.035,0.243,0.068,0.488,0.104,0.732c0.123,0.818-0.178-1.242-0.145-1.075
	c0.17,0.85,0.219,1.74,0.314,2.601c0.379,3.443,0.621,6.903,0.738,10.367c0.297,8.78,0.236,17.53-0.6,26.284
	c-0.213,2.229-0.471,4.454-0.754,6.675c-0.17,1.325,0.041-0.354,0.068-0.513c-0.043,0.244-0.068,0.493-0.104,0.739
	c-0.082,0.575-0.164,1.15-0.252,1.724c-0.172,1.15-0.354,2.298-0.545,3.444c-0.738,4.433-1.609,8.842-2.59,13.227
	c-4.01,17.931-9.789,35.402-15.771,52.754c-5.971,17.315-12.193,34.564-17.195,52.194c-5.047,17.787-8.807,36.071-9.688,54.578
	c-0.414,8.7-0.129,17.422,0.93,26.069c0.252,2.062,0.67,3.775,2.195,5.303c1.301,1.301,3.436,2.28,5.305,2.197
	C1942.4,638.122,1946.758,634.957,1946.246,630.786"/>
<path fill="#010202" d="M428.638,616.358c-7.334-17.569-15.21-34.896-23.509-52.031c-6.724-13.881-13.713-27.631-20.518-41.471
	c-2.951-5.998-5.859-12.017-8.648-18.092c-1.311-2.854-2.596-5.724-3.838-8.608c-0.302-0.701-0.612-1.399-0.899-2.106
	c-0.036-0.089,0.833,1.99,0.426,1.006c-0.055-0.13-0.11-0.261-0.164-0.391c-0.163-0.39-0.326-0.781-0.487-1.172
	c-0.564-1.37-1.12-2.745-1.662-4.124c-3.967-10.084-7.321-20.482-9.034-31.206c-0.095-0.587-0.181-1.174-0.267-1.762
	c-0.199-1.362,0.123,0.558,0.124,0.938c-0.001-0.383-0.101-0.79-0.146-1.17c-0.144-1.204-0.265-2.411-0.36-3.619
	c-0.199-2.476-0.298-4.961-0.288-7.444c0.011-2.484,0.13-4.968,0.361-7.44c0.054-0.583,0.115-1.166,0.181-1.748
	c0.037-0.311,0.076-0.622,0.113-0.933c0.188-1.563-0.289,1.988-0.095,0.71c0.189-1.253,0.386-2.502,0.621-3.747
	c0.975-5.151,2.434-10.204,4.282-15.108c0.245-0.649,0.497-1.297,0.756-1.94c0.131-0.325,0.264-0.649,0.396-0.975
	c0.577-1.421-0.678,1.566-0.243,0.57c0.575-1.321,1.158-2.637,1.774-3.94c1.293-2.728,2.691-5.403,4.176-8.031
	c3.296-5.834,7.01-11.425,10.979-16.821c0.505-0.686,1.014-1.369,1.526-2.049c0.277-0.367,0.556-0.734,0.835-1.101
	c0.105-0.138,0.211-0.275,0.317-0.413c0.841-1.104-1.177,1.509-0.317,0.41c1.177-1.504,2.363-3.002,3.571-4.481
	c2.558-3.136,5.189-6.213,7.878-9.24c12.985-14.625,27.188-28.147,41.751-41.185c4.254-3.808,8.843-7.375,12.88-11.405
	c3.632-3.626,7.398-7.118,11.302-10.449c1.871-1.596,3.774-3.156,5.709-4.675c0.231-0.182,0.495-0.361,0.715-0.559
	c-1.384,1.248-0.818,0.628-0.443,0.344c0.477-0.362,0.954-0.727,1.433-1.085c0.951-0.712,1.908-1.413,2.873-2.104
	c3.734-2.676,7.578-5.201,11.528-7.549c3.759-2.234,7.612-4.309,11.554-6.201c1.904-0.915,3.849-1.733,5.769-2.611
	c-0.051,0.021-1.815,0.753-0.713,0.302c0.24-0.099,0.48-0.198,0.721-0.297c0.419-0.171,0.839-0.341,1.259-0.508
	c1.013-0.401,2.031-0.792,3.053-1.169c7.361-2.716,14.968-4.775,22.708-6.063c0.871-0.146,1.744-0.276,2.617-0.405
	c1.533-0.226-1.68,0.211-0.43,0.055c0.52-0.064,1.039-0.131,1.56-0.191c1.831-0.211,3.667-0.38,5.505-0.503
	c3.596-0.241,7.205-0.312,10.808-0.202c3.511,0.106,7.001,0.408,10.486,0.828c0.478,0.058-2.098-0.293-0.548-0.072
	c0.426,0.061,0.854,0.125,1.279,0.191c0.9,0.139,1.8,0.291,2.696,0.453c1.674,0.306,3.34,0.65,4.997,1.036
	c3.212,0.749,6.388,1.652,9.512,2.708c1.563,0.529,3.116,1.098,4.652,1.702c0.69,0.272,3.451,1.504,0.769,0.295
	c0.744,0.335,1.497,0.65,2.239,0.989c5.838,2.664,11.414,5.903,16.603,9.681c0.599,0.437,1.187,0.886,1.779,1.329
	c0.678,0.507-1.478-1.159-0.817-0.631c0.155,0.123,0.312,0.243,0.465,0.365c0.348,0.274,0.692,0.552,1.035,0.831
	c1.215,0.991,2.405,2.012,3.567,3.063c2.308,2.087,4.508,4.295,6.584,6.613c1.031,1.152,2.033,2.331,3.002,3.537
	c0.211,0.263,0.419,0.529,0.63,0.793c0.934,1.175-1.188-1.575-0.29-0.373c0.489,0.656,0.979,1.313,1.454,1.979
	c1.758,2.464,3.384,5.021,4.864,7.661c0.752,1.34,1.466,2.7,2.142,4.08c0.316,0.647,0.625,1.299,0.924,1.953
	c0.16,0.351,0.317,0.7,0.473,1.053c0.076,0.176,0.151,0.353,0.23,0.528c0.451,1.021-0.687-1.662-0.363-0.862
	c1.161,2.866,2.213,5.765,3.067,8.738c0.861,2.999,1.547,6.049,2.051,9.129c0.057,0.34,0.11,0.681,0.161,1.021
	c0.03,0.194,0.055,0.39,0.086,0.585c0.17,1.09-0.182-1.204-0.146-1.115c0.274,0.708,0.216,1.755,0.291,2.507
	c0.154,1.54,0.264,3.083,0.33,4.628c0.138,3.253,0.081,6.515-0.165,9.761c-0.063,0.827-0.138,1.653-0.225,2.479
	c-0.043,0.415-0.09,0.83-0.14,1.244c-0.021,0.156-0.039,0.313-0.059,0.468c-0.146,1.246,0.071-0.699,0.125-0.9
	c-0.432,1.611-0.521,3.382-0.846,5.024c-0.682,3.44-1.566,6.839-2.633,10.181c-0.553,1.729-1.155,3.443-1.801,5.14
	c-0.311,0.811-0.635,1.614-0.959,2.419c-0.618,1.536,0.74-1.702,0.076-0.177c-0.213,0.485-0.424,0.972-0.641,1.455
	c-3.288,7.327-7.401,14.27-12.091,20.784c-0.589,0.817-1.188,1.63-1.795,2.434c-0.286,0.38-0.581,0.754-0.864,1.136
	c1.453-1.959,0.021-0.04-0.353,0.427c-1.403,1.759-2.848,3.483-4.327,5.177c-3.069,3.51-6.294,6.88-9.646,10.121
	c-3.652,3.531-7.456,6.908-11.376,10.142c-4.214,3.477-7.964,7.554-12.097,11.146c-2.063,1.794-4.158,3.548-6.284,5.263
	c-0.994,0.802-1.997,1.592-3,2.382c-1.03,0.81,0.163-0.115,0.308-0.235c-0.262,0.216-0.541,0.416-0.809,0.621
	c-0.607,0.464-1.218,0.925-1.831,1.384c-4.274,3.204-8.649,6.273-13.099,9.229c-18.082,12.015-37.318,22.136-56.454,32.336
	c-9.544,5.087-19.076,10.198-28.452,15.59c-2.334,1.343-4.659,2.702-6.971,4.083c-2.572,1.537-5.253,2.954-7.335,5.146
	c-3.461,3.643-6.505,7.781-8.956,12.17c-9.443,16.899-11.026,36.517-15.075,55.086c-0.978,4.481-2.101,8.936-3.521,13.299
	c-0.681,2.091-1.447,4.146-2.259,6.188c-0.46,1.157,0.2-0.477,0.248-0.579c-0.124,0.263-0.23,0.536-0.349,0.803
	c-0.237,0.534-0.479,1.064-0.729,1.593c-0.497,1.057-1.022,2.099-1.572,3.131c-1.839,3.463-0.989,8.317,2.69,10.261
	c3.474,1.835,8.296,1.01,10.262-2.69c9.332-17.567,10.998-37.407,15.271-56.502c1.026-4.588,2.222-9.146,3.771-13.587
	c0.352-1.006,0.72-2.008,1.109-2.999c0.104-0.265,0.212-0.526,0.315-0.789c0.445-1.147-0.229,0.526-0.27,0.616
	c0.291-0.644,0.563-1.295,0.859-1.936c0.942-2.043,1.989-4.039,3.149-5.967c0.545-0.905,1.117-1.795,1.715-2.668
	c0.319-0.467,0.647-0.93,0.98-1.387c0.168-0.229,0.341-0.454,0.51-0.684c0.531-0.721-1.224,1.5-0.252,0.338
	c0.741-0.884,1.476-1.768,2.258-2.615c0.344-0.37,0.738-0.717,1.058-1.106c0.574-0.701-1.281,0.76-0.408,0.31
	c0.371-0.191,0.718-0.439,1.075-0.656c4.674-2.846,9.402-5.596,14.168-8.283c19.025-10.735,38.592-20.483,57.552-31.337
	c19.408-11.108,38.224-23.504,54.771-38.623c2.101-1.919,4.161-3.882,6.179-5.891c1.857-1.848,4.008-3.424,5.99-5.144
	c3.748-3.254,7.375-6.646,10.848-10.195c6.701-6.842,12.851-14.278,18.212-22.218c8.688-12.862,15.277-27.592,17.808-42.967
	c2.293-13.938,1.715-28.247-2.521-41.78c-4.052-12.949-11.055-24.782-20.229-34.758c-8.985-9.771-20.187-17.717-32.306-23.114
	c-13.638-6.074-28.211-9.403-43.151-9.811c-15.803-0.432-31.796,2.434-46.601,7.921c-18.021,6.679-34.335,16.789-49.005,29.148
	c-3.97,3.346-7.799,6.856-11.492,10.507c-4.111,4.065-8.671,7.716-12.984,11.569c-8.009,7.154-15.885,14.459-23.532,21.998
	c-12.479,12.301-24.355,25.245-34.771,39.357c-7.877,10.672-14.611,22.1-19.365,34.509c-3.919,10.231-6.06,21.196-6.181,32.157
	c-0.119,10.856,1.769,21.761,4.767,32.17c3.419,11.874,8.255,23.322,13.374,34.548c5.904,12.95,12.345,25.651,18.691,38.387
	c7.611,15.271,15.125,30.59,22.202,46.117c1.899,4.168,3.77,8.351,5.606,12.547c0.948,2.167,1.889,4.337,2.819,6.512
	c0.489,1.142,0.975,2.282,1.457,3.425c0.169,0.399,0.542,1.314-0.209-0.494c0.091,0.217,0.184,0.433,0.274,0.649
	c0.272,0.653,0.548,1.308,0.821,1.961c0.788,1.888,1.606,3.405,3.445,4.482c1.608,0.941,3.978,1.339,5.78,0.756
	C426.866,624.462,430.256,620.235,428.638,616.358"/>
<path fill="#010202" d="M2335.299,434.162c0.346-1.061,0.729-2.104,1.162-3.132l-0.758,1.792c0.729-1.702,1.576-3.35,2.578-4.906
	c0.244-0.379,0.498-0.753,0.76-1.12c0.129-0.181,0.264-0.357,0.395-0.537c0.699-0.975-1.318,1.649-0.658,0.85
	c0.523-0.634,1.051-1.26,1.623-1.853c0.547-0.569,1.121-1.112,1.721-1.626c0.572-0.492,2.039-1.499-0.457,0.314
	c0.295-0.215,0.584-0.435,0.883-0.641c1.225-0.844,2.527-1.562,3.895-2.147c-0.598,0.252-1.195,0.504-1.791,0.756
	c1.707-0.718,3.49-1.213,5.326-1.464c-0.664,0.089-1.328,0.179-1.992,0.268c1.723-0.222,3.461-0.226,5.186-0.001
	c-0.664-0.089-1.33-0.178-1.992-0.268c1.648,0.228,3.258,0.661,4.799,1.3c-0.598-0.252-1.195-0.504-1.791-0.756
	c1.088,0.461,2.133,1.015,3.117,1.669c0.248,0.165,0.488,0.34,0.732,0.512c1.012,0.709-1.797-1.472-0.688-0.528
	c0.461,0.396,0.916,0.794,1.346,1.225c0.439,0.438,0.844,0.901,1.248,1.371c1.01,1.174-1.168-1.608-0.496-0.65
	c0.184,0.26,0.371,0.517,0.547,0.782c0.734,1.102,1.354,2.272,1.875,3.488l-0.756-1.792c0.871,2.073,1.434,4.249,1.74,6.475
	c-0.088-0.664-0.18-1.329-0.268-1.994c0.398,3.037,0.32,6.103-0.084,9.134c0.088-0.665,0.18-1.329,0.268-1.994
	c-0.652,4.67-2.063,9.188-3.893,13.525c0.252-0.599,0.504-1.195,0.756-1.792c-2.34,5.477-5.33,10.652-8.689,15.564
	c-0.979,1.432-1.988,2.842-3.025,4.23c-0.248,0.332-0.498,0.663-0.748,0.995c-0.891,1.178,0.998-1.27,0.141-0.182
	c-0.625,0.794-1.25,1.587-1.889,2.37c-2.553,3.139-5.232,6.17-8,9.124c-2.682,2.866-3.051,7.806,0,10.607
	c2.914,2.673,7.744,3.06,10.607,0c10.674-11.404,20.32-24.076,26.043-38.719c3.508-8.984,5.201-19.447,2.393-28.865
	c-2.184-7.322-7.219-14.129-14.303-17.333c-3.709-1.677-7.533-2.686-11.641-2.671c-4.189,0.015-8.076,1.064-11.865,2.755
	c-8.053,3.594-13.482,10.999-16.738,18.943c-0.395,0.966-0.756,1.941-1.08,2.933c-1.215,3.732,1.414,8.354,5.238,9.226
	C2330.188,440.337,2333.996,438.159,2335.299,434.162"/>
<path fill="#010202" d="M2342.42,532.071c3.922,0,7.682-3.45,7.5-7.5c-0.184-4.063-3.297-7.5-7.5-7.5c-3.926,0-7.684,3.449-7.5,7.5
	C2335.102,528.633,2338.215,532.071,2342.42,532.071"/>
<path fill="#010202" d="M2276.088,518.144c3.922,0,7.682-3.449,7.5-7.5c-0.186-4.063-3.299-7.5-7.5-7.5c-3.926,0-7.684,3.45-7.5,7.5
	C2268.768,514.708,2271.883,518.144,2276.088,518.144"/>
<path fill="#010202" d="M2261.816,545.413c-13.059,1.298-26.371,4.347-36.695,12.896c-6.568,5.438-11.084,14.156-10.178,22.825
	c0.455,4.364,1.693,8.524,4.066,12.258c2.498,3.932,5.732,7.078,9.545,9.721c7.57,5.248,17.551,7.238,26.623,6.254
	c6.418-0.696,12.291-2.411,18.18-5.039c6.322-2.821,12.025-6.795,17.354-11.187c1.402-1.157,2.768-2.36,4.102-3.598
	c2.885-2.673,2.906-7.938,0-10.606c-3.088-2.835-7.529-2.852-10.605,0c-1.736,1.608-3.523,3.159-5.377,4.629
	c-0.17,0.134-0.342,0.265-0.51,0.4c1.949-1.574,0.938-0.723,0.502-0.393c-0.42,0.315-0.842,0.628-1.268,0.936
	c-0.869,0.628-1.75,1.239-2.646,1.829c-3.23,2.133-6.639,3.995-10.203,5.507c0.596-0.252,1.193-0.504,1.791-0.756
	c-3.92,1.638-8.008,2.831-12.219,3.412c0.664-0.089,1.328-0.179,1.994-0.268c-3.439,0.456-6.918,0.496-10.357,0.035
	c0.662,0.09,1.328,0.179,1.992,0.269c-2.828-0.396-5.596-1.124-8.234-2.22c0.596,0.252,1.193,0.504,1.791,0.756
	c-1.588-0.671-3.125-1.466-4.574-2.402c-0.375-0.241-0.74-0.491-1.102-0.75c-0.137-0.096-0.268-0.195-0.402-0.291
	c-1.041-0.745,1.631,1.307,0.869,0.673c-0.623-0.516-1.24-1.027-1.826-1.587c-0.566-0.544-1.111-1.115-1.627-1.711
	c-0.234-0.273-0.455-0.561-0.688-0.836c1.012,1.318,1.309,1.702,0.891,1.152c-0.063-0.082-0.123-0.163-0.182-0.245
	c-0.119-0.166-0.24-0.33-0.355-0.497c-0.852-1.229-1.576-2.54-2.16-3.917l0.756,1.791c-0.648-1.567-1.104-3.202-1.334-4.884
	c0.09,0.663,0.18,1.328,0.27,1.993c-0.203-1.582-0.201-3.175,0.01-4.756c-0.092,0.664-0.182,1.329-0.27,1.993
	c0.227-1.585,0.654-3.124,1.273-4.6c-0.252,0.597-0.504,1.193-0.754,1.791c0.59-1.378,1.332-2.686,2.207-3.903
	c0.131-0.183,0.27-0.36,0.402-0.542c-1.656,2.27-1.15,1.46-0.748,0.98c0.264-0.313,0.521-0.626,0.799-0.93
	c0.59-0.654,1.217-1.277,1.873-1.869c0.33-0.3,0.668-0.591,1.012-0.873c0.176-0.146,0.357-0.284,0.535-0.43
	c-2.146,1.773-1.324,1.014-0.807,0.63c0.779-0.577,1.588-1.118,2.414-1.628c1.865-1.149,3.832-2.127,5.852-2.981
	c-0.598,0.252-1.195,0.504-1.791,0.756c5.738-2.399,11.85-3.775,17.998-4.614c-0.664,0.089-1.33,0.179-1.994,0.268
	c1.268-0.168,2.537-0.314,3.811-0.44c2.037-0.202,3.809-0.701,5.305-2.197c1.299-1.301,2.279-3.435,2.195-5.303
	C2269.15,549.181,2266,544.998,2261.816,545.413"/>
<path fill="#010202" d="M20.007,93.304c2.396,16.829,4.794,33.658,7.19,50.487c0.691,4.844,1.381,9.687,2.071,14.531
	c0.19,1.337,1.891,2.07,3.075,1.746c1.437-0.396,1.937-1.734,1.746-3.076c-2.397-16.829-4.795-33.658-7.192-50.487
	c-0.69-4.843-1.38-9.687-2.07-14.53c-0.19-1.338-1.892-2.07-3.075-1.746C20.315,90.625,19.816,91.963,20.007,93.304"/>
<path fill="#010202" d="M18.024,250.691v61.435v17.479c0,3.923,3.45,7.682,7.5,7.5c4.063-0.182,7.5-3.295,7.5-7.5v-61.433v-17.481
	c0-3.923-3.449-7.681-7.5-7.5C21.461,243.374,18.024,246.487,18.024,250.691"/>
<path fill="#010202" d="M18.024,441.014v52.602v52.351v29.666c0,3.924,3.45,7.682,7.5,7.5c4.063-0.182,7.5-3.295,7.5-7.5v-52.601
	V470.68v-29.666c0-3.923-3.449-7.681-7.5-7.5C21.461,433.697,18.024,436.809,18.024,441.014"/>
<path fill="#010202" d="M8.548,687.042v75.986v21.495c0,3.923,3.448,7.683,7.5,7.5c4.063-0.182,7.5-3.295,7.5-7.5v-75.985v-21.496
	c0-3.923-3.45-7.682-7.5-7.5C11.985,679.722,8.548,682.836,8.548,687.042"/>
<path fill="#010202" d="M0.675,909.654c3.321,25.193,4.62,50.646,3.851,76.049c-0.218,7.209-0.606,14.412-1.154,21.604
	c-0.297,3.922,3.664,7.672,7.5,7.5c4.319-0.191,7.182-3.299,7.5-7.5c1.927-25.338,1.818-50.82-0.352-76.141
	c-0.616-7.188-1.402-14.361-2.345-21.514c-0.272-2.068-0.657-3.764-2.196-5.303c-1.301-1.301-3.436-2.281-5.304-2.197
	c-1.939,0.088-3.951,0.725-5.304,2.197C1.629,905.705,0.422,907.738,0.675,909.654"/>
<path fill="#010202" d="M3.81,1128.033v13.926c0,1.922,0.837,3.941,2.197,5.303c1.301,1.301,3.435,2.281,5.303,2.197
	c1.939-0.088,3.951-0.725,5.304-2.197c1.347-1.467,2.196-3.271,2.196-5.303v-13.926c0-1.924-0.837-3.943-2.196-5.305
	c-1.301-1.301-3.436-2.279-5.304-2.195c-1.938,0.086-3.951,0.723-5.303,2.195C4.661,1124.197,3.81,1126,3.81,1128.033"/>
<path fill="#010202" d="M47.848,1161.564c2.29-1.139,4.613-2.207,6.968-3.205c-0.597,0.252-1.194,0.506-1.791,0.758
	c10.021-4.203,20.556-7.061,31.323-8.523c-0.664,0.088-1.329,0.178-1.994,0.27c6.29-0.834,12.627-1.189,18.971-1.059
	c3.924,0.082,7.679-3.508,7.5-7.5c-0.186-4.135-3.295-7.414-7.5-7.5c-16.076-0.336-32.384,2.328-47.46,7.936
	c-4.623,1.719-9.171,3.678-13.588,5.873c-3.521,1.75-4.783,7.016-2.69,10.262C39.911,1162.477,44.081,1163.436,47.848,1161.564"/>
<path fill="#010202" d="M40.097,39.297c22.286-1.961,44.535-4.338,66.731-7.139c22.693-2.863,45.336-6.131,67.906-9.846
	c12.494-2.055,24.965-4.246,37.412-6.567c3.865-0.722,6.412-5.597,5.238-9.227c-1.338-4.135-5.085-6.011-9.227-5.237
	c-23.037,4.296-46.156,8.141-69.345,11.522c-6.591,0.961-13.188,1.886-19.79,2.773c0.665-0.09,1.33-0.179,1.994-0.269
	c-20.949,2.813-41.948,5.256-62.984,7.319c-5.976,0.586-11.955,1.142-17.937,1.668c-2.024,0.178-3.823,0.717-5.303,2.197
	c-1.302,1.301-2.28,3.435-2.197,5.303C32.766,35.566,35.911,39.666,40.097,39.297"/>
<path fill="#010202" d="M328.52,32.969c34.389,3.513,68.884,5.966,103.424,7.347c34.544,1.38,69.13,1.688,103.692,0.929
	c19.474-0.43,38.939-1.201,58.387-2.309c3.91-0.222,7.688-3.29,7.5-7.5c-0.173-3.872-3.305-7.737-7.5-7.5
	c-34.515,1.964-69.089,2.866-103.659,2.692c-34.57-0.173-69.134-1.417-103.627-3.729c-19.433-1.304-38.842-2.948-58.217-4.929
	c-1.798-0.183-4.076,0.97-5.304,2.197c-1.3,1.301-2.28,3.435-2.196,5.303c0.086,1.94,0.724,3.951,2.196,5.304
	C324.764,32.196,326.434,32.756,328.52,32.969"/>
<path fill="#010202" d="M1588.99,41.84c39.543-1.088,79.096-1.825,118.648-2.206c39.354-0.379,78.711-0.407,118.064-0.084
	c22.197,0.182,44.396,0.478,66.596,0.881c3.924,0.072,7.678-3.501,7.5-7.5c-0.188-4.124-3.295-7.423-7.5-7.5
	c-39.553-0.721-79.109-1.091-118.664-1.104c-39.357-0.014-78.711,0.323-118.063,1.013c-22.195,0.388-44.391,0.889-66.582,1.5
	c-3.918,0.108-7.686,3.373-7.5,7.5C1581.67,38.312,1584.789,41.958,1588.99,41.84"/>
<path fill="#010202" d="M2062.732,27.801c30.193,2.393,60.428,4.246,90.689,5.55c30.176,1.3,60.377,2.057,90.584,2.269
	c17.01,0.12,34.021,0.064,51.033-0.159c3.922-0.052,7.684-3.413,7.5-7.5c-0.18-4.021-3.297-7.556-7.5-7.5
	c-30.287,0.397-60.58,0.257-90.861-0.438c-30.197-0.688-60.383-1.925-90.535-3.702c-16.98-1.002-33.951-2.177-50.908-3.521
	c-3.922-0.311-7.672,3.672-7.5,7.5C2055.428,24.631,2058.533,27.468,2062.732,27.801"/>
<path fill="#010202" d="M2405.896,39.292c6.16-1.42,12.383-2.551,18.648-3.396c-0.666,0.089-1.33,0.179-1.994,0.269
	c17.883-2.371,36.033-2.371,53.916,0.001c-0.664-0.09-1.328-0.179-1.994-0.27c5.953,0.805,11.865,1.865,17.727,3.188
	c3.816,0.861,8.299-1.162,9.225-5.238c0.869-3.809-1.143-8.303-5.238-9.226c-23.779-5.364-48.504-6.699-72.691-3.579
	c-7.256,0.936-14.453,2.145-21.584,3.788c-3.826,0.882-6.449,5.484-5.238,9.226C2397.965,38.055,2401.797,40.238,2405.896,39.292"/>
<path fill="#010202" d="M2620.852,32.427l4.477,79.765l4.477,79.766c0.842,14.956,1.68,29.911,2.52,44.867
	c0.221,3.911,3.293,7.688,7.5,7.5c3.875-0.173,7.734-3.305,7.5-7.5l-4.477-79.765c-1.492-26.588-2.984-53.176-4.479-79.765
	c-0.838-14.955-1.68-29.911-2.518-44.867c-0.221-3.91-3.293-7.688-7.5-7.5C2624.477,25.102,2620.617,28.233,2620.852,32.427"/>
<path fill="#010202" d="M2637.799,338.908c0.984,18.725,1.35,37.481,1.07,56.23c-0.275,18.749-1.188,37.489-2.73,56.177
	c-0.865,10.493-1.938,20.969-3.197,31.423c-0.215,1.772,0.992,4.098,2.197,5.303c1.301,1.301,3.434,2.28,5.303,2.197
	c1.939-0.087,3.951-0.726,5.303-2.197c1.434-1.563,1.945-3.214,2.197-5.303c2.248-18.619,3.875-37.312,4.863-56.039
	c0.988-18.725,1.344-37.482,1.063-56.231c-0.154-10.525-0.516-21.048-1.068-31.56c-0.205-3.911-3.303-7.688-7.5-7.5
	C2641.41,331.583,2637.576,334.712,2637.799,338.908"/>
<path fill="#010202" d="M2626.648,594.12c0.764,24.749,0.816,49.518,0.146,74.27c-0.67,24.834-2.066,49.65-4.182,74.404
	c-1.188,13.9-2.605,27.781-4.242,41.635c-0.211,1.777,0.988,4.096,2.195,5.303c1.301,1.302,3.436,2.281,5.305,2.197
	c1.938-0.087,3.949-0.724,5.301-2.197c1.434-1.56,1.951-3.214,2.199-5.303c2.908-24.593,5.113-49.268,6.596-73.988
	c1.488-24.798,2.252-49.64,2.295-74.482c0.023-13.948-0.184-27.896-0.613-41.838c-0.121-3.917-3.363-7.686-7.5-7.5
	C2630.188,586.797,2626.518,589.919,2626.648,594.12"/>
<path fill="#010202" d="M2611.664,932.969c-1.088,30.139-0.492,60.334,1.807,90.404c0.65,8.547,1.443,17.08,2.367,25.6
	c0.225,2.047,0.689,3.797,2.197,5.305c1.301,1.301,3.438,2.279,5.303,2.195c1.941-0.086,3.953-0.723,5.307-2.195
	c1.26-1.375,2.404-3.365,2.193-5.305c-3.252-29.982-4.826-60.143-4.695-90.303c0.037-8.568,0.213-17.139,0.521-25.701
	c0.145-3.924-3.551-7.676-7.5-7.5C2614.979,925.658,2611.816,928.764,2611.664,932.969"/>
<path fill="#010202" d="M2577.197,1089.725c11.057,1.541,22.113,3.082,33.168,4.623c2.088,0.291,3.881,0.355,5.779-0.756
	c1.557-0.91,3.041-2.695,3.449-4.482c0.436-1.92,0.342-4.074-0.758-5.777c-0.979-1.52-2.605-3.188-4.482-3.447
	c-11.055-1.541-22.113-3.082-33.168-4.623c-2.088-0.291-3.881-0.355-5.779,0.756c-1.557,0.91-3.041,2.693-3.447,4.482
	c-0.438,1.92-0.342,4.074,0.758,5.777C2573.693,1087.797,2575.32,1089.465,2577.197,1089.725"/>
<path fill="#010202" d="M657.198,42.13c27.527-1.69,55.073-3.071,82.631-4.137c27.56-1.066,55.131-1.819,82.707-2.259
	c15.449-0.246,30.9-0.394,46.352-0.443c3.923-0.013,7.682-3.441,7.5-7.5c-0.182-4.053-3.295-7.514-7.5-7.5
	c-27.58,0.091-55.158,0.491-82.729,1.206c-27.569,0.716-55.133,1.744-82.68,3.085c-15.431,0.752-30.857,1.602-46.281,2.549
	c-3.907,0.24-7.688,3.278-7.5,7.5C649.872,38.487,653.005,42.386,657.198,42.13"/>
<path fill="#010202" d="M998.302,44.662c37.086,2.208,74.171,4.416,111.256,6.624c36.896,2.195,73.792,4.393,110.688,6.59
	c20.813,1.239,41.625,2.479,62.439,3.717c3.923,0.234,7.673-3.617,7.5-7.5c-0.191-4.263-3.297-7.25-7.5-7.5
	c-37.086-2.208-74.171-4.416-111.256-6.624c-36.896-2.196-73.792-4.393-110.689-6.59c-20.812-1.239-41.625-2.479-62.438-3.717
	c-3.923-0.234-7.674,3.617-7.5,7.5C990.993,41.424,994.1,44.412,998.302,44.662"/>
<path fill="#010202" d="M1413.219,65.202c25.008,4.565,50.453,6.775,75.875,6.351c7.004-0.117,14.002-0.435,20.984-0.939
	c2.008-0.146,3.846-0.738,5.305-2.197c1.301-1.3,2.279-3.437,2.195-5.303c-0.172-3.821-3.311-7.804-7.5-7.5
	c-20.145,1.456-40.396,1.304-60.516-0.482c-5.678-0.504-11.342-1.142-16.99-1.9c0.666,0.089,1.33,0.179,1.994,0.27
	c-5.809-0.788-11.596-1.708-17.361-2.761c-2.02-0.369-3.951-0.313-5.777,0.756c-1.557,0.91-3.039,2.692-3.447,4.48
	C1407.143,59.648,1409.092,64.448,1413.219,65.202"/>
</svg>
