<?xml version="1.0" encoding="utf-8"?>
<!-- Generator: Adobe Illustrator 15.1.0, SVG Export Plug-In . SVG Version: 6.00 Build 0)  -->
<!DOCTYPE svg PUBLIC "-//W3C//DTD SVG 1.0//EN" "http://www.w3.org/TR/2001/REC-SVG-20010904/DTD/svg10.dtd">
<svg version="1.0" id="Capa_1" xmlns="http://www.w3.org/2000/svg" xmlns:xlink="http://www.w3.org/1999/xlink" x="0px" y="0px"
	 width="1980px" height="1342px" viewBox="0 0 1980 1342" enable-background="new 0 0 1980 1342" xml:space="preserve">
<path d="M557.646,840.059c9.536,6.08,19.073,12.161,28.284,18.035c-4.143,25.298-6.998,28.227-31.518,31.937
	c-6.316,93.935-1.072,188.737,5.162,282.56c-0.582,16.14-19.738,21.59-29.383,16.746c-9.679-5.636-8.363-19.385-10.619-29.198
	c-5.528-37.922-7.442-75.318-15.616-112.936c-21.717-3.657-43.231,5.754-64.84,8.079c-22.6,2.866-20.219,29.631-21.988,47.24
	c-0.61,24.305-0.76,48.625-0.848,72.941c-0.093,26.226-2.883,29.535-30.63,34.723c-6.364-4.18-6.842-10.936-7.047-17.666
	c-4.145-89.56-1.902-179.673,14.577-267.98c4.398-27.265,7.951-54.675,11.736-82.04c1.942-14.038-2.977-24.303-15.783-30.767
	c-9.313-4.699-19.921-8.278-23.611-19.957c35.632-38.219-0.568-96.675,29.027-137.827c6.734-8.435,13.04-17.273,20.26-25.24
	c25.4-21.246,0.131-63.693,27.412-81.717c56.74-42.962,38.859,40.774,59.058,70.301c29.343-8.534,20.524,11.735,43.44,11.869
	c21.539-3.475,97.89,10.462,103.319-11.094c11.043-14.338,21.385-28.483,17.715-47.579c-3.812-28.17,12.914-48.034,38.521-52.644
	c12.355,10.396,18.305,25.005,18.167,41.311c2.01,46.487,98.031,42.71,92.2,99.913c-3.362,149.272-30.943,296.966-19.647,446.688
	c-0.048,46.193,13.261,93.065,7.21,138.775c-20.686,5.811-37.92,7.695-38.577-20.833c-8.979-66.96-9.619-133.621-11.363-201.074
	c-24.801-6.348-48.665-9.305-72.97-11.43c-13.127,34.903-5.129,71.837-8.413,108.18c1.048,21.382-1.097,44.453-27.146,35.412
	c-5.766-1.426-9.921-5.813-11.161-12.16c-9.218-110.005,22.875-219.146,15.672-329.034c-31.854-1-57.63,28.787-88.764,24.567
	c-10.839-35.084,60.09-47.196,81.845-62.202c7.692-47.153,6.818-79.289-2.387-102.822c-29.011-5.215-69.991-3.587-88.8,3.586
	c-9.852,51.387,9.921,104.63-1.2,156.856C548.005,838.383,553.481,839.584,557.646,840.059 M541.846,1147.759
	c-0.972,4.148-1.943,8.298-2.915,12.446c0.732,0.128,1.463,0.255,2.194,0.383c-9.044-89.492-10.287-180.625-8.517-271.155
	c0.072-11.935-2.973-21.265-13.292-27.552c-32.28-18.681-62.659-44.447-100.242-50.285c-0.678-15.526,10.448-21.646,20.608-28.105
	c17.696-7.786,64.451,34.49,89.141,37.965c9.567-44.59-1.356-90.522-1.007-135.757c-0.322-13.839-4.903-24.177-15.967-31.809
	c-55.345-37.266-27.068-73.373-51.31-93.367c-24.782,4.743-1.784,55.13-30.032,78.574c-7.046,8.099-13.471,16.767-20.149,25.201
	c-5.339,6.744-7.748,14.357-7.633,23.164c-0.669,34.813,4.142,70.381-8.692,103.295c11.225,12.705,35.281,18.503,32.29,37.565
	c-9.83,86.479-31.457,171.991-28.432,259.458c3.525-23.756,9.951-47.537,37.9-50.638c23.373-3.102,46.512-8.021,69.808-11.792
	c18.928-3.354,19.468,18.897,20.211,32.628C531.443,1082.509,528.684,1129.634,541.846,1147.759 M781.726,1172.845v36.751
	c0.008-0.008,0.014-0.015,0.022-0.022c1.826-62.636-11.516-124.589-8.49-187.175c0.75-124.107,21.635-247.139,21.093-371.297
	c-8.951-37.157-92.9-39.331-90.27-85.675c1.175-7.356-1.144-15.07-6.796-19.654c-12.363-2.964-13.405,21.084-13.228,30.092
	c2.526,21.926-8.188,38.133-20.371,54.694c-17.577,33.638-80.194,12.37-112.909,19.547c129.027,3.495,108.252-18.02,114.288,112.835
	c21.059-0.837,38.346-13.288,57.428-20.493c5.128-1.297,9.646,0.473,12.375,5.563c6.871,20.854-48.193,24.979-58.988,38.144
	c-10.694,54.068-9.049,108.638-13.223,163.322c-7.676,57.146-16.821,111.39-12.826,171.164c3.677-41.297,7.094-80.192,4.802-119.329
	c30.911-17.33,65.465-1.127,98.327-2.024c21.75,1.763,18.936,25.835,18.755,42.337c-0.589,38.56,0.126,77.058,4.209,115.441
	C776.551,1162.928,776.248,1168.917,781.726,1172.845"/>
<path d="M1391.474,546.618c47.899,27.479,7.198,128.323,44.288,101.198c72.327-67.305,58.842-167.262,110.792-115.128
	c11.93,9.326,0.853,23.472-4.879,33.335c-24.319,38.739-48.681,77.45-73.144,116.095c-7.341,11.599-8.039,19.289,0.996,29.643
	c63.48,78.879,36.366,190.828,27.453,283.886c-8.795,38.644-9.51,77.6-9.706,116.968c-1.157,17.378-32.958,28.843-35.545,6.257
	c-8.014-26.322-4.445-106.704-36.648-110.284c-76.365-2.28-90.612,108.602-105.073,166.86c-3.626,21.539-10.193,37.099-34.48,25.744
	c-10.395-3.743-31.363-10.481-23.176-25.192c23.41-36.418,26.558-78.755,33.691-119.836c5.729-40.437,15.018-81.21,13.61-122.237
	c-4.36-38.574-3.32-79.449-11.599-116.806c-5.046,0.037-6.795,3.871-8.289,7.798c-10.689,28.094-22.027,55.961-31.662,84.432
	c-4.354,12.865-7.34,25.681-20.005,31.713V972.1c17.761,14.71,29.26,10.057,21.819,38.241c-7.932,19.883-8.457,90.286-35.213,86.717
	c-10.458-1.837-20.123-6.903-30.1-10.377c-21.897-7.12-22.294-7.061-21.49-28.675c1.703-24.991,1.326-50.513,6.806-75.019
	c3.849-15.61,3.957-15.582,23.073-18.304c3.345-16.51,14.004-34.223,9.644-51.973c-9.349-91.826,40.929-176.939,112.731-229.018
	C1363.011,640.842,1310.573,600.697,1391.474,546.618 M1458.133,659.433c-41.6,23.844-59.643,15.854-60.214-34.535
	c-2.31-15.991,3.106-33.951-6.615-47.829c-35.429,17.878-29.745,43.666-36.454,75.392c-3.038,30.152-28.183,45.207-49.309,62.362
	c-46.591,40.844-101.374,128.282-78.213,191.26c9.752-12.772,11.937-26.084,16.102-40.864c1.104-15.232,48.357-118.57,63.669-86.072
	c4.399,62.552,12.954,126.69,9.421,189.854c-7.845,65.507-14.164,131.993-36.739,194.306c-3.036,7.561-5.7,19.851,7.188,18.752
	c20.048-62.337,23.491-130.713,76.68-177.258c25.187-25.626,78.886-23.546,88.908,16.249c4.131,16.678,7.257,33.653,11.486,50.331
	c15.816-83.872,25.262-169.265,22.495-255.007c-3.498-108.517-79.073-75.295-23.701-165.983
	C1457.008,651.833,1457.633,655.664,1458.133,659.433 M1208.072,1074.573c17.025-17.761,13.563-46.223,20.391-68.893
	c-0.546-14.787-26.095-7.175-36.546-10.21c-13.278,22.078-8.163,44.512-8.433,67.703
	C1192.199,1067.215,1200.101,1070.877,1208.072,1074.573 M1468.771,1099.182l0.824-1.669l-1.072-0.358L1468.771,1099.182z"/>
<path d="M995.883,645.856c26.184,18.348,56.407,34.029,53.85,71.556c-0.787,72.148-0.084,144.312-0.483,216.468
	c-1.653,64,10.238,126.926,13.329,190.614c-5.145,33.79,45.306,172.002-21.25,150.443c-9.846-42.797-8.085-87.726-14.571-131.709
	c-26.306-9.267-78.579-4.175-105.735,5.198c-9.178,48.523-5.668,99.694-10.683,148.894c-4.954,20.59-39.057,11.263-36.255-9.581
	c-2.371-48.754,5.061-97.038,9.3-145.452c6.567-79.161,11.268-156.497,17.904-235.745c-16.472,33.986-20.761,65.99-31.993,101.146
	c-3.774,18.971-10.838,35.305-31.418,22.675c-13.515-5.36-8.482-19.685-5.763-30.636c14.67-75.397,37.896-149.728,44.436-226.475
	c-3.115-54.464,67.997-62.023,70.455-110.773c1.233-34.763-5.062-70.433,30.501-88.343
	C1011.712,563.163,994.336,627.098,995.883,645.856 M860.784,951.222c6.914-5.276,7.253-12.148,4.55-19.757
	c21.217-21.064,27.256-79.988,25.343-110.226c23.076,2.403,33.937,3.929,32.361,29.146c-0.127,18.415-1.223,36.853-2.594,55.225
	c-5.482,73.064-14.454,149.08-13.247,221.231c46.145-4.006,89.45-7.771,135.618-8.841
	c-12.096-117.296-15.962-232.588-14.263-350.194c-3.618-29.404,13.235-70.493-17.646-88.124
	c-36.533-20.64-36.054-24.048-31.838-65.527c0.113-3.65,1.854-8.614-3.808-10.196c-6.65,2.61-7.645,8.291-7.724,14.309
	c2.652,61.106-2.548,78.372-50.849,115.704c-28.151,20.636-21.701,57.196-25.56,88.127c-9.296,45.884-23.941,91.467-30.396,137.765
	c0.338-0.032,0.675-0.064,1.013-0.098L860.784,951.222z M896.123,1231.46c-0.819-0.304-1.637-0.61-2.457-0.914
	c-0.952,8.73-1.956,17.714,0.388,26.292c0.69-0.175,1.379-0.349,2.068-0.522V1231.46z M1057.642,1227.802
	c-5.055,6.486-4.634,12.532,1.328,18.127C1058.527,1239.887,1058.084,1233.844,1057.642,1227.802"/>
<path fill="#FFFFFF" d="M654.636,1001.312c2.292,39.138-1.125,78.032-4.802,119.329
	C645.961,1079.029,652.858,1040.291,654.636,1001.312"/>
<path fill="#FFFFFF" d="M781.749,1172.903v36.67c-0.008,0.008-0.015,0.016-0.023,0.022
	C781.752,1197.497,781.675,1184.667,781.749,1172.903"/>
<path fill="#FFFFFF" d="M541.851,1147.848c-0.242,4.247-0.483,8.494-0.726,12.74c-0.732-0.128-1.463-0.255-2.194-0.383
	C539.82,1156.365,541.108,1150.997,541.851,1147.848"/>
<path fill="#FFFFFF" d="M1458.134,659.433c-0.501-3.77-1.125-7.6,4.701-9.042c-2.023,3.206-3.655,5.789-5.244,8.416
	C1457.633,658.852,1458.134,659.433,1458.134,659.433"/>
<polygon fill="#FFFFFF" points="1468.771,1099.182 1468.522,1097.154 1469.595,1097.513 "/>
<path fill="#FFFFFF" d="M865.334,931.465c2.703,7.608,2.364,14.479-4.55,19.757l-0.067,0.181c1.67-6.438,3.339-12.875,4.933-19.426
	C865.574,931.862,865.334,931.465,865.334,931.465"/>
<path fill="#FFFFFF" d="M860.784,951.223l0.962,8.543c-0.337,0.033-0.675,0.064-1.014,0.097
	C860.787,957.029,860.625,954.12,860.784,951.223"/>
<path d="M509.493,69.744c2.089,26.402,4.181,52.804,6.27,79.205c0.592,7.472,1.184,14.944,1.774,22.417
	c0.213,2.69,0.944,5.11,2.855,7.071c1.69,1.734,4.464,3.04,6.891,2.929c2.521-0.116,5.136-0.966,6.893-2.929
	c1.667-1.864,3.062-4.451,2.854-7.071c-2.09-26.402-4.179-52.804-6.27-79.205c-0.59-7.473-1.182-14.945-1.774-22.417
	c-0.213-2.69-0.943-5.11-2.855-7.071c-1.691-1.735-4.464-3.041-6.892-2.929c-2.521,0.116-5.135,0.965-6.892,2.929
	C510.68,64.536,509.286,67.124,509.493,69.744"/>
<path d="M517.092,278.813c-2.071,20.147-3.505,40.363-4.283,60.606c-0.778,20.244-0.905,40.513-0.382,60.765
	c0.293,11.361,0.795,22.715,1.496,34.058c0.164,2.663,0.975,5.143,2.854,7.071c1.691,1.734,4.464,3.04,6.894,2.929
	c2.519-0.116,5.134-0.966,6.891-2.929c1.686-1.885,3.019-4.43,2.856-7.071c-1.25-20.219-1.857-40.478-1.81-60.738
	c0.048-20.258,0.747-40.516,2.095-60.729c0.757-11.338,1.721-22.661,2.883-33.963c0.246-2.391-1.266-5.44-2.855-7.071
	c-1.691-1.735-4.464-3.041-6.892-2.929c-2.521,0.116-5.136,0.965-6.892,2.929C518.096,273.81,517.377,276.031,517.092,278.813"/>
<path d="M541.553,575.957v47.225c0,1.608,2.437,1.611,2.437,0v-47.225C543.989,574.348,541.553,574.346,541.553,575.957"/>
<path d="M845.206,711.777c17.063-1.943,34.126-3.887,51.189-5.831c4.83-0.549,9.658-1.1,14.487-1.649c1.541-0.176,1.559-2.678,0-2.5
	c-17.063,1.943-34.126,3.887-51.189,5.831c-4.829,0.55-9.658,1.1-14.487,1.649C843.665,709.453,843.647,711.955,845.206,711.777"/>
<path d="M565.378,61.147c10.016-1.723,20.058-3.278,30.122-4.668c-0.863,0.119-1.727,0.238-2.591,0.357
	c30.891-4.246,61.984-6.91,93.135-7.963c31.148-1.053,62.349-0.503,93.443,1.653c17.47,1.212,34.904,2.935,52.28,5.156
	c2.298,0.294,5.332-1.329,6.891-2.929c1.691-1.734,2.964-4.58,2.856-7.071c-0.113-2.586-0.942-5.269-2.856-7.071
	c-0.657-0.522-1.315-1.043-1.973-1.564c-1.52-0.904-3.159-1.359-4.918-1.365c-17.462-2.231-34.984-3.961-52.541-5.174
	c-17.556-1.212-35.147-1.912-52.743-2.101s-35.195,0.134-52.773,0.967c-17.578,0.833-35.132,2.177-52.635,4.031
	c-18.194,1.928-36.342,4.388-54.4,7.365c-2.161,0.356-4.321,0.72-6.479,1.091c-2.267,0.39-4.71,2.642-5.825,4.596
	c-1.223,2.144-1.74,5.303-0.982,7.706c0.762,2.42,2.224,4.754,4.479,5.976C560.318,61.468,562.655,61.616,565.378,61.147"/>
<path d="M917.591,60.629c22.424-0.391,44.836-1.437,67.201-3.146c22.205-1.696,44.363-4.044,66.438-7.039
	c13.252-1.797,26.478-3.778,39.667-6.009c2.265-0.383,4.714-2.648,5.824-4.596c1.224-2.143,1.741-5.302,0.983-7.705
	c-0.764-2.42-2.225-4.754-4.479-5.976c-0.776-0.336-1.553-0.673-2.329-1.008c-1.728-0.477-3.454-0.477-5.183,0
	c-11.538,1.951-23.104,3.726-34.693,5.326c0.863-0.119,1.727-0.238,2.59-0.357c-17.623,2.425-35.299,4.444-53.012,6.046
	c-17.633,1.594-35.302,2.778-52.987,3.55c-10.003,0.437-20.011,0.739-30.021,0.914c-2.526,0.044-5.095,1.085-6.892,2.93
	c-1.691,1.733-2.964,4.58-2.854,7.07C908.077,55.971,912.129,60.725,917.591,60.629"/>
<path d="M1182.955,64.649c13.16-2.189,26.321-4.376,39.482-6.566c2.26-0.376,4.716-2.653,5.824-4.595
	c1.222-2.144,1.74-5.303,0.982-7.706c-0.763-2.42-2.225-4.754-4.479-5.977c-2.456-1.331-4.782-1.461-7.51-1.007
	c-13.161,2.188-26.321,4.377-39.482,6.565c-2.263,0.376-4.717,2.654-5.824,4.596c-1.223,2.143-1.74,5.302-0.983,7.706
	c0.764,2.419,2.226,4.754,4.48,5.976C1177.901,64.972,1180.227,65.103,1182.955,64.649"/>
<path d="M1196.059,93.973c-5.016,23.184-8.617,46.694-10.897,70.326c-2.216,22.985-3.078,46.108-2.577,69.2
	c0.282,12.954,0.999,25.897,2.135,38.802c0.237,2.703,0.927,5.093,2.855,7.071c1.689,1.734,4.464,3.04,6.892,2.929
	c2.521-0.116,5.135-0.966,6.892-2.929c1.658-1.853,3.085-4.462,2.855-7.071c-1.462-16.593-2.225-33.247-2.271-49.908
	c-0.048-16.578,0.609-33.159,1.963-49.679c0.769-9.384,1.767-18.746,2.982-28.08l-0.349,2.659
	c2.111-16.114,4.885-32.131,8.317-48.003c0.564-2.613,0.357-5.354-0.983-7.706c-1.184-2.074-3.501-4.052-5.824-4.595
	c-2.495-0.583-5.296-0.457-7.511,1.008C1198.463,89.369,1196.608,91.426,1196.059,93.973"/>
<path d="M1181.669,414.14c-0.57,26.505-0.123,53.031,1.353,79.499c1.518,27.204,4.176,54.316,7.78,81.311
	c1.97,14.754,4.263,29.462,6.869,44.112c0.418,2.341,2.547,4.815,4.479,5.976c2.09,1.254,5.169,1.786,7.511,1.008
	c2.358-0.783,4.633-2.282,5.825-4.595c1.285-2.497,1.476-4.93,0.982-7.706c-2.751-15.455-5.148-30.975-7.192-46.544
	c0.116,0.885,0.232,1.772,0.349,2.658c-2.631-20.113-4.676-40.304-6.115-60.543c-1.438-20.238-2.281-40.522-2.52-60.813
	c-0.134-11.454-0.075-22.91,0.172-34.363c0.113-5.233-4.563-10.238-9.747-10C1186.038,404.387,1181.789,408.533,1181.669,414.14"/>
<path d="M1185.955,677.153v57.775v16.435c0,1.609,2.437,1.612,2.437,0V693.59v-16.437
	C1188.392,675.545,1185.955,675.543,1185.955,677.153"/>
<path d="M1069.803,775.553c13.051-4.794,26.509-8.385,40.183-10.709c1.635-0.278,3.272-0.538,4.913-0.779
	c0.447-0.066,0.895-0.13,1.343-0.194c1.483-0.214-0.991,0.124,0.495-0.067c0.897-0.116,1.794-0.233,2.691-0.342
	c3.439-0.418,6.89-0.756,10.347-1.014c6.91-0.518,13.842-0.718,20.771-0.598c7.832,0.136,15.654,0.688,23.433,1.639
	c2.541,0.312,4.981-2.521,4.874-5c-0.131-2.974-2.151-4.667-4.874-5c-28.097-3.434-56.815-1.512-84.281,5.453
	c-7.605,1.928-15.109,4.258-22.483,6.968c-2.395,0.88-4.257,3.447-3.404,6.151C1064.571,774.479,1067.234,776.496,1069.803,775.553"
	/>
<path d="M325.001,870.295c-40.539,31.266-81.077,62.531-121.615,93.798c-40.539,31.266-81.078,62.533-121.615,93.799
	c-22.862,17.632-45.724,35.265-68.586,52.897c-2.129,1.643-3.621,3.594-3.621,6.477c0,2.653,1.4,5.129,3.621,6.476
	c29.076,17.642,57.975,36.337,90.104,47.673c7.872,2.777,15.916,5.064,24.099,6.647c4.459,0.862,8.964,1.524,13.478,2.008
	c1.874,0.201,3.751,0.361,5.63,0.479c0.993,0.062,2.022,0.188,3.016,0.152c2.17-0.081,3.912-1.143,5.76-2.165
	c15.092-8.344,29.897-17.229,44.457-26.516c29.371-18.733,57.729-39.084,85.595-60.084c28.065-21.151,55.641-42.976,83.335-64.636
	c27.676-21.645,55.476-43.139,84.002-63.596c3.446-2.473,6.904-4.928,10.371-7.367c3.147-2.214,4.869-6.688,2.622-10.262
	c-2.019-3.213-6.629-5.063-10.001-2.69c-40.837,28.737-80.071,59.763-119.418,90.585c-39.178,30.691-78.515,61.257-119.658,89.15
	c-22.962,15.566-46.487,30.272-70.754,43.604c1.23-0.342,2.46-0.683,3.69-1.024c-2.261-0.094-4.52-0.235-6.772-0.444
	c-1.125-0.104-2.248-0.224-3.37-0.356c-0.499-0.059-0.996-0.121-1.495-0.186c-0.523-0.069-0.497-0.064,0.079,0.013
	c-0.372-0.054-0.744-0.109-1.116-0.167c-4.596-0.701-9.155-1.635-13.669-2.765c-8.993-2.253-17.791-5.285-26.378-8.823
	c-2.334-0.962-2.979-1.239-4.988-2.136c-2.358-1.055-4.701-2.143-7.029-3.261c-4.208-2.019-8.37-4.137-12.495-6.326
	c-8.361-4.44-16.566-9.179-24.701-14.036c-9.046-5.403-18.004-10.958-27.014-16.425v12.952
	c40.54-31.266,81.077-62.531,121.616-93.799c40.539-31.266,81.077-62.532,121.615-93.798c22.862-17.633,45.724-35.265,68.586-52.898
	c3.047-2.349,4.932-6.584,2.623-10.261C333.061,869.894,328.271,867.773,325.001,870.295"/>
<path d="M203.924,1006.992c27.421,12.086,54.841,24.172,82.262,36.257c7.75,3.416,15.499,6.831,23.249,10.247
	c1.88,0.829,3.571,1.339,5.632,0.756c1.695-0.479,3.533-1.824,4.369-3.447c0.896-1.74,1.346-3.849,0.736-5.779
	c-0.543-1.725-1.657-3.731-3.358-4.481c-27.421-12.086-54.842-24.172-82.263-36.257c-7.749-3.416-15.499-6.832-23.248-10.247
	c-1.88-0.829-3.571-1.339-5.632-0.756c-1.696,0.479-3.533,1.823-4.369,3.446c-0.897,1.74-1.346,3.85-0.738,5.779
	C201.109,1004.234,202.222,1006.242,203.924,1006.992"/>
<path d="M23.497,1137.686c7.137,20.453,14.039,41.006,22.073,61.114c8.209,20.544,17.443,40.744,29.292,59.374
	c2.865,4.506,5.876,8.913,9.049,13.196c0.979,1.319,1.855,2.771,3.123,3.811c1.2,0.986,2.417,1.963,3.703,2.831
	c2.034,1.371,4.215,2.386,6.463,3.332c7.982,3.359,17.09,3.331,25.389,1.297c8.753-2.145,16.763-6.749,23.632-12.635
	c3.517-3.014,6.504-6.493,9.243-10.252c2.937-4.03,5.01-8.465,6.849-13.115c8.532-21.568,6.015-45.782,2.69-68.181
	c-0.408-2.743-0.837-5.483-1.273-8.224c-0.276-1.74-1.938-3.629-3.359-4.481c-1.567-0.941-3.876-1.339-5.633-0.756
	c-1.768,0.587-3.475,1.711-4.369,3.445c-0.973,1.89-1.07,3.682-0.737,5.78c0.804,5.064,1.586,10.131,2.253,15.216
	c-0.087-0.665-0.174-1.329-0.261-1.993c1.669,12.843,2.635,25.903,0.974,38.803l0.261-1.994c-0.889,6.662-2.502,13.189-5.048,19.394
	l0.737-1.791c-1.342,3.211-2.916,6.282-4.874,9.146c-0.416,0.607-2.082,2.697-0.365,0.565c-0.473,0.585-0.927,1.185-1.411,1.761
	c-1.039,1.237-2.135,2.425-3.282,3.558c-1.151,1.135-2.353,2.216-3.599,3.239c-0.44,0.361-1.451,1.059,0.472-0.367
	c-0.345,0.256-0.68,0.525-1.024,0.781c-0.603,0.447-1.214,0.882-1.834,1.303c-2.638,1.791-5.43,3.328-8.339,4.604
	c0.582-0.253,1.164-0.505,1.745-0.757c-3.688,1.588-7.541,2.727-11.506,3.287l1.943-0.269c-3.142,0.42-6.307,0.467-9.453,0.061
	c0.648,0.089,1.296,0.18,1.943,0.269c-2.71-0.375-5.349-1.084-7.878-2.156l1.746,0.756c-1.922-0.839-3.757-1.867-5.467-3.101
	c-0.167-0.12-0.331-0.245-0.496-0.365c-1-0.725,1.304,1.092,0.625,0.503c-0.192-0.166-0.393-0.362-0.602-0.502
	c-0.746-0.499,0.315,0.532,0.398,0.64c-0.939-1.221-1.838-2.479-2.736-3.731c-3.353-4.68-6.521-9.495-9.521-14.417
	c-5.967-9.785-11.275-19.98-16.114-30.396c-2.769-5.958-5.382-11.99-7.887-18.068c0.245,0.597,0.491,1.193,0.736,1.791
	c-6.981-16.987-13.081-34.333-19.104-51.696c-1.688-4.865-3.371-9.732-5.068-14.594c-0.65-1.864-1.651-3.457-3.359-4.483
	c-1.567-0.941-3.876-1.339-5.634-0.756C25.065,1129.635,22.117,1133.73,23.497,1137.686"/>
<path d="M293.485,1088.537c-1.548,21.904,0.471,43.854-0.264,65.776c-0.207,6.162-0.641,12.313-1.429,18.427l0.261-1.994
	c-0.661,5.005-1.567,9.971-2.789,14.864c0.626-1.103,1.253-2.207,1.879-3.31c-5.72,5.468-11.667,10.681-17.809,15.644
	c-0.365,0.295-0.73,0.588-1.096,0.881c-0.201,0.161-1.552,1.234-0.519,0.415c1.038-0.824-0.29,0.227-0.524,0.409
	c-0.475,0.373-0.952,0.744-1.43,1.114c-1.543,1.193-3.097,2.374-4.661,3.539c-3.253,2.423-6.551,4.782-9.889,7.082
	c-13.417,9.242-27.465,17.508-41.922,24.911c-8.198,4.198-16.529,8.115-24.968,11.777l1.746-0.756
	c-19.256,8.336-39.062,15.333-59.224,20.983c-5.548,1.555-11.125,3.004-16.725,4.352c-3.727,0.896-6.29,5.474-5.106,9.226
	c1.257,3.989,5,6.2,8.992,5.239c18.323-4.411,36.393-9.929,54.08-16.528c18.61-6.943,36.854-15.03,54.429-24.394
	c16.913-9.01,33.236-19.236,48.549-30.885c7.871-5.986,15.52-12.29,22.806-19.012c0.826-0.762,1.646-1.528,2.462-2.301
	c0.627-0.593,1.192-1.151,1.718-1.85c0.89-1.182,1.298-2.475,1.637-3.886c0.64-2.674,1.185-5.37,1.645-8.081
	c0.986-5.799,1.663-11.662,2.079-17.531c1.558-21.997-0.503-44.044,0.268-66.058c0.093-2.688,0.234-5.373,0.423-8.056
	c0.277-3.922-3.56-7.672-7.31-7.5C296.597,1081.23,293.782,1084.336,293.485,1088.537"/>
<path d="M116.931,1253.121c-6.055-1.289-12.291-1.157-18.239,0.654c-5.836,1.777-10.989,4.888-15.673,8.818
	c-9.062,7.606-14.921,18.816-16.413,30.663c-0.312,2.474-0.4,4.963-0.172,7.449c0.339,3.7,0.899,7.504,2.592,10.835
	c2.442,4.807,5.464,9.323,8.964,13.385c5.761,6.688,13.417,11.906,21.864,14.203c15.624,4.248,32.406-1.597,43.608-13.213
	c11.767-12.199,16.739-30.069,12.182-46.696c-1.273-4.644-3.239-9.178-5.679-13.3c-1.51-2.552-3.252-4.934-5.058-7.272
	c-1.507-1.95-3.094-4.004-4.979-5.585c-9.008-7.564-20.172-11.53-31.808-11.675c-10.956-0.135-22.437,3.123-31.366,9.742
	c-4.865,3.608-9.109,7.815-12.206,13.135c-2.478,4.259-4.517,8.873-5.945,13.613c-2.499,8.287-2.87,17.207-0.954,25.66
	c1.751,7.729,5.618,14.81,10.704,20.738c9.433,10.998,24.457,17.902,38.813,16.557c7.745-0.727,15.207-3.335,21.439-8.191
	c7.296-5.685,12.75-13.244,16.334-21.88c0.635-1.531,1.342-3.096,1.846-4.685c0.563-1.779,0.683-3.78,0.844-5.632
	c0.28-3.232-0.036-6.423-0.529-9.618c-0.87-5.635-3.149-11.203-6.172-15.973c-6.342-10.006-16.409-18.134-27.927-20.672
	c-5.935-1.308-12.046-1.277-17.911,0.405c-3.682,1.056-6.325,5.361-5.105,9.226c1.215,3.855,5.046,6.37,8.991,5.238
	c1.265-0.363,2.543-0.639,3.843-0.832c-0.647,0.089-1.295,0.179-1.943,0.269c2.553-0.347,5.114-0.345,7.668-0.019
	c-0.648-0.089-1.296-0.178-1.943-0.267c2.974,0.412,5.852,1.25,8.615,2.443l-1.747-0.756c2.239,0.992,4.377,2.196,6.391,3.607
	c0.496,0.348,0.979,0.712,1.463,1.076c1.065,0.797-1.456-1.217-0.444-0.348c0.251,0.216,0.509,0.425,0.76,0.644
	c0.92,0.798,1.806,1.64,2.654,2.519c0.849,0.88,1.66,1.799,2.429,2.753c0.206,0.254,0.399,0.55,0.621,0.788
	c-0.202-0.217-1.151-1.556-0.444-0.579c0.358,0.496,0.707,1,1.043,1.514c1.402,2.136,2.596,4.402,3.573,6.774
	c-0.246-0.597-0.491-1.193-0.737-1.791c1.114,2.772,1.906,5.652,2.319,8.622l-0.261-1.994c0.357,2.765,0.376,5.54,0.028,8.307
	c0.087-0.665,0.175-1.33,0.261-1.994c-0.253,1.849-0.846,3.479-1.546,5.193c0.246-0.597,0.491-1.193,0.737-1.791
	c-0.939,2.275-1.998,4.498-3.209,6.636c-0.555,0.978-1.14,1.937-1.758,2.874c-0.312,0.471-0.631,0.938-0.958,1.396
	c-0.149,0.209-0.304,0.414-0.452,0.624c-0.428,0.604,0.934-1.216,0.762-1.01c-0.107,0.129-0.205,0.268-0.308,0.4
	c-1.267,1.627-2.646,3.161-4.137,4.574c-0.696,0.661-1.424,1.278-2.157,1.895c-0.755,0.635,1.734-1.326,0.684-0.545
	c-0.179,0.133-0.355,0.27-0.535,0.4c-0.386,0.285-0.777,0.562-1.174,0.829c-1.719,1.161-3.538,2.156-5.431,2.986l1.747-0.756
	c-2.775,1.195-5.682,2.008-8.663,2.432c0.648-0.09,1.295-0.179,1.944-0.268c-3.204,0.435-6.44,0.418-9.644-0.014
	c0.648,0.091,1.296,0.18,1.943,0.269c-3.483-0.487-6.88-1.454-10.126-2.84c0.582,0.252,1.165,0.505,1.747,0.756
	c-1.882-0.814-3.707-1.762-5.458-2.844c-0.878-0.543-1.738-1.118-2.575-1.725c-0.392-0.284-0.775-0.579-1.161-0.871
	c-0.76-0.576,1.721,1.399,0.748,0.591c-0.213-0.177-0.428-0.352-0.641-0.53c-1.591-1.348-3.087-2.813-4.471-4.385
	c-0.671-0.764-1.302-1.559-1.929-2.36c1.858,2.375,0.519,0.685,0.09,0.064c-0.301-0.435-0.595-0.876-0.878-1.321
	c-1.3-2.042-2.415-4.201-3.339-6.447l0.737,1.792c-1.269-3.131-2.143-6.405-2.601-9.763l0.261,1.993
	c-0.467-3.567-0.457-7.17-0.009-10.738c-0.087,0.665-0.175,1.329-0.261,1.994c0.542-4.13,1.658-8.142,3.216-11.985
	c-0.246,0.597-0.491,1.195-0.737,1.792c0.934-2.269,2.008-4.469,3.212-6.598c0.324-0.572,0.657-1.14,0.998-1.701
	c0.159-0.263,0.332-0.521,0.485-0.787c0.627-1.087-1.162,1.428-0.418,0.477c0.861-1.099,1.766-2.157,2.731-3.162
	c0.923-0.959,1.893-1.867,2.905-2.728c0.12-0.102,0.729-0.739,0.857-0.708c-0.164-0.039-1.692,1.308-0.478,0.392
	c0.507-0.381,1.023-0.752,1.547-1.108c2.275-1.557,4.695-2.87,7.208-3.973c-0.582,0.252-1.165,0.505-1.747,0.758
	c3.91-1.682,8.007-2.809,12.205-3.396c-0.648,0.09-1.295,0.179-1.944,0.269c4.207-0.561,8.454-0.572,12.66-0.012
	c-0.648-0.089-1.295-0.179-1.943-0.268c3.862,0.542,7.634,1.562,11.237,3.096l-1.745-0.756c2.514,1.094,4.926,2.42,7.178,4.009
	c0.579,0.408,2.591,2.153,0.56,0.371c0.488,0.429,1.001,0.818,1.459,1.285c1.031,1.053,1.991,2.198,2.927,3.34
	c0.436,0.533,0.851,1.081,1.28,1.618c-1.729-2.166-0.162-0.202,0.23,0.354c0.745,1.061,1.455,2.146,2.125,3.257
	c1.283,2.127,2.41,4.347,3.368,6.646l-0.736-1.792c1.433,3.494,2.44,7.146,2.939,10.903c-0.087-0.664-0.175-1.329-0.261-1.994
	c0.43,3.401,0.437,6.831,0.008,10.231c0.087-0.664,0.174-1.328,0.261-1.992c-0.461,3.49-1.372,6.892-2.697,10.143l0.737-1.792
	c-0.817,1.976-1.774,3.887-2.876,5.713c-0.538,0.893-1.108,1.765-1.709,2.613c-0.15,0.212-0.305,0.421-0.455,0.632
	c-0.602,0.846,1.293-1.677,0.541-0.719c-0.342,0.437-0.686,0.872-1.042,1.298c-1.322,1.585-2.757,3.073-4.289,4.448
	c-0.381,0.342-0.768,0.678-1.161,1.006c-0.197,0.164-0.399,0.322-0.594,0.486c-0.544,0.459,1.298-1.003,1.051-0.83
	c-0.149,0.102-0.29,0.224-0.434,0.335c-0.81,0.618-1.642,1.208-2.493,1.766c-1.968,1.289-4.04,2.402-6.191,3.335
	c0.582-0.252,1.165-0.505,1.747-0.757c-3.101,1.325-6.343,2.248-9.672,2.711l1.943-0.269c-3.063,0.406-6.156,0.414-9.219-0.003
	c0.647,0.09,1.295,0.179,1.943,0.268c-2.944-0.42-5.809-1.229-8.553-2.401c0.582,0.252,1.165,0.504,1.747,0.757
	c-2.1-0.915-4.112-2.026-6.011-3.325c-0.547-0.374-1.083-0.765-1.611-1.166c-0.102-0.077-0.201-0.153-0.3-0.231
	c-0.462-0.361-0.135-0.101,0.982,0.779c-0.263-0.218-0.529-0.432-0.791-0.652c-0.973-0.825-1.908-1.695-2.807-2.604
	c-0.942-0.954-1.843-1.952-2.704-2.986c-0.432-0.52-0.848-1.049-1.264-1.582c-0.734-0.943,1.28,1.74,0.258,0.33
	c-0.206-0.284-0.409-0.57-0.61-0.859c-1.812-2.601-3.399-5.355-4.819-8.2l0.737,1.792c-0.519-1.683-0.898-3.395-1.141-5.142
	c0.086,0.665,0.174,1.329,0.26,1.994c-0.373-2.911-0.351-5.837,0.027-8.746l-0.261,1.993c0.452-3.244,1.331-6.389,2.57-9.407
	c-0.246,0.597-0.491,1.195-0.737,1.792c0.977-2.327,2.149-4.559,3.518-6.669c0.357-0.551,0.728-1.094,1.111-1.628
	c0.184-0.256,0.826-1.114,0.012-0.033c-0.852,1.13-0.061,0.09,0.131-0.149c0.782-0.983,1.606-1.931,2.471-2.839
	c0.824-0.863,1.685-1.693,2.579-2.481c0.488-0.431,2.424-1.89,0.262-0.277c0.516-0.385,1.023-0.783,1.549-1.156
	c2-1.415,4.128-2.62,6.358-3.608c-0.582,0.252-1.164,0.504-1.746,0.756c2.604-1.124,5.312-1.917,8.109-2.324l-1.943,0.269
	c2.512-0.338,5.034-0.354,7.55-0.033l-1.943-0.269c0.749,0.105,1.489,0.236,2.228,0.394c3.734,0.795,8.077-1.115,8.992-5.238
	C122.87,1258.595,120.935,1253.974,116.931,1253.121"/>
<path d="M284.597,1203.481c2.138,20.979,4.276,41.959,6.416,62.938c0.606,5.947,1.212,11.895,1.818,17.841
	c0.209,2.043,0.676,3.802,2.141,5.305c1.269,1.3,3.349,2.279,5.169,2.195c3.62-0.166,7.736-3.32,7.31-7.5
	c-2.138-20.979-4.277-41.959-6.416-62.938c-0.606-5.947-1.212-11.895-1.818-17.841c-0.209-2.042-0.677-3.801-2.142-5.304
	c-1.268-1.301-3.348-2.279-5.168-2.196C288.287,1196.148,284.171,1199.303,284.597,1203.481"/>
<path d="M187.54,1043.358c2.506,8.923,4.372,18.019,5.597,27.218l-0.261-1.992c2.039,15.603,2.212,31.423,0.482,47.066
	c-0.196,1.783,0.959,4.09,2.142,5.303c1.268,1.302,3.348,2.281,5.168,2.197c1.891-0.087,3.851-0.724,5.169-2.197
	c1.394-1.556,1.91-3.215,2.141-5.303c2.211-19.993,1.253-40.261-2.504-60.001c-1.043-5.481-2.329-10.912-3.836-16.278
	c-1.058-3.768-5.204-6.495-8.992-5.238C188.913,1035.373,186.405,1039.32,187.54,1043.358"/>
<path d="M950.454,417.296c5.098,0,9.982-4.6,9.747-10c-0.237-5.418-4.283-10-9.747-10c-5.099,0-9.983,4.6-9.747,10
	C940.944,412.715,944.989,417.296,950.454,417.296"/>
<path d="M914.142,436.087c33.503,5.262,66.973,10.752,100.404,16.477c33.597,5.753,67.157,11.741,100.675,17.963
	c33.352,6.191,66.664,12.614,99.932,19.268c33.268,6.654,66.491,13.54,99.668,20.655c33.342,7.152,66.636,14.535,99.879,22.152
	c4.115,0.943,8.228,1.889,12.341,2.839c4.964,1.145,10.783-1.548,11.989-6.985c1.127-5.076-1.487-11.073-6.807-12.301
	c-33.066-7.633-66.185-15.042-99.348-22.217c-33.33-7.211-66.707-14.19-100.13-20.935c-33.257-6.711-66.558-13.192-99.898-19.441
	c-33.343-6.248-66.726-12.266-100.147-18.051c-33.588-5.813-67.214-11.392-100.876-16.736c-4.166-0.662-8.332-1.319-12.5-1.974
	c-5.018-0.788-10.727,1.298-11.989,6.985C906.275,428.557,908.751,435.241,914.142,436.087"/>
<path d="M1608.17,594.112c21.186,0.688,42.344,2.233,63.41,4.643c5.997,0.686,11.985,1.442,17.967,2.265
	c-0.864-0.118-1.728-0.238-2.591-0.357c19.55,2.701,39.003,6.131,58.307,10.297c19.305,4.165,38.458,9.06,57.411,14.676
	c10.701,3.172,21.337,6.576,31.902,10.202c4.839,1.661,10.864-1.914,11.99-6.984c1.226-5.524-1.627-10.523-6.809-12.302
	c-28.904-9.92-58.358-18.151-88.176-24.632c-30.363-6.599-61.113-11.393-92.005-14.444c-17.095-1.689-34.243-2.806-51.407-3.364
	c-5.101-0.166-9.977,4.718-9.746,10C1598.666,589.672,1602.705,593.935,1608.17,594.112"/>
<path d="M1052.684,540.91c26.553,12.984,54.918,21.423,84.104,25.125c7.989,1.013,16.022,1.644,24.067,1.908
	c2.551,0.083,4.989-2.36,4.874-5c-0.122-2.781-2.141-4.911-4.874-5c-7.151-0.235-14.293-0.758-21.404-1.585
	c-1.629-0.189-3.256-0.395-4.882-0.615c1.12,0.151-0.353-0.05-0.478-0.067c-0.441-0.064-0.885-0.128-1.327-0.194
	c-0.886-0.131-1.771-0.266-2.654-0.406c-3.536-0.561-7.06-1.195-10.571-1.902c-13.896-2.799-27.575-6.736-40.861-11.768
	c-3.635-1.377-7.242-2.835-10.814-4.377c0.966,0.417-0.396-0.174-0.482-0.213c-0.549-0.24-1.096-0.483-1.643-0.728
	c-0.82-0.367-1.637-0.738-2.454-1.114c-1.903-0.876-3.797-1.777-5.681-2.699c-2.298-1.123-5.368-0.73-6.667,1.794
	C1049.788,536.298,1050.227,539.709,1052.684,540.91"/>
<path d="M1165.192,554.424c-12.427,20.854-19.99,44.488-22.396,68.781c-0.667,6.723-0.896,13.485-0.71,20.239
	c0.073,2.612,2.19,5.124,4.873,5c2.579-0.118,4.951-2.199,4.873-5c-0.162-5.873-0.012-11.752,0.472-17.607
	c0.115-1.39,0.247-2.779,0.397-4.165c0.07-0.657,0.146-1.313,0.227-1.969c0.053-0.437,0.107-0.874,0.163-1.311
	c-0.118,0.905,0.012-0.05,0.062-0.416c0.41-2.908,0.896-5.803,1.463-8.683c1.104-5.615,2.505-11.168,4.194-16.628
	c0.867-2.8,1.81-5.575,2.826-8.321c0.507-1.373,1.034-2.738,1.581-4.096c0.108-0.272,0.219-0.543,0.329-0.814
	c-0.369,0.908,0.002,0.001,0.097-0.225c0.311-0.742,0.627-1.481,0.949-2.218c2.639-6.031,5.656-11.88,9.018-17.52
	c1.331-2.234,0.547-5.597-1.749-6.841C1169.486,551.344,1166.613,552.04,1165.192,554.424"/>
<path d="M1172.426,616.448c11.777,1.937,23.424,4.685,34.836,8.245c5.636,1.758,11.214,3.71,16.721,5.851
	c2.755,1.071,5.488,2.196,8.208,3.355c1.351,0.574-0.88-0.391,0.464,0.2c0.271,0.12,0.541,0.238,0.812,0.357
	c0.676,0.298,1.352,0.599,2.025,0.904c1.349,0.608,2.691,1.228,4.028,1.86c6.152,2.906,12.191,6.061,18.108,9.445
	c2.227,1.274,5.421,0.627,6.668-1.794c1.214-2.356,0.63-5.48-1.749-6.84c-21.188-12.12-44.021-21.324-67.609-27.144
	c-6.586-1.625-13.232-2.982-19.921-4.082c-2.508-0.412-5.366,0.662-5.995,3.493C1168.488,612.698,1169.733,616.006,1172.426,616.448
	"/>
<path d="M1565.855,781.634c25.56,7.445,51.118,14.89,76.679,22.335c7.169,2.089,14.338,4.178,21.507,6.266
	c4.902,1.428,10.827-1.747,11.99-6.984c1.181-5.321-1.558-10.771-6.807-12.302c-25.56-7.444-51.12-14.891-76.68-22.335
	c-7.17-2.088-14.338-4.176-21.508-6.266c-4.9-1.427-10.826,1.748-11.988,6.985C1557.867,774.653,1560.605,780.105,1565.855,781.634"
	/>
<path d="M1665.14,721.956c-5.188,17.95-9.452,36.177-12.758,54.591c-3.433,19.125-5.898,38.461-7.353,57.852
	c-0.789,10.529-1.266,21.083-1.44,31.643c-0.087,5.233,4.546,10.239,9.746,10c5.355-0.246,9.655-4.393,9.747-10
	c0.267-16.08,1.239-32.145,2.932-48.133c0.479-4.534,1.019-9.06,1.61-13.58c-0.116,0.886-0.232,1.772-0.349,2.658
	c2.771-21.012,6.755-41.852,11.955-62.372c1.473-5.807,3.044-11.588,4.706-17.341c1.448-5.014-1.743-11.118-6.808-12.301
	C1671.895,713.748,1666.691,716.587,1665.14,721.956"/>
<path d="M1697.357,768.184c17.414,4.944,34.828,9.89,52.242,14.835c4.909,1.395,10.822-1.724,11.99-6.984
	c1.174-5.291-1.549-10.808-6.809-12.301c-17.414-4.945-34.828-9.89-52.241-14.836c-4.911-1.395-10.822,1.724-11.99,6.985
	C1689.375,761.174,1692.098,766.689,1697.357,768.184"/>
<path d="M1783.88,692.452c-5.462,9.412-9.925,19.475-13.405,29.827c-3.51,10.442-5.707,21.174-7.082,32.116
	c-0.717,5.706-1.099,11.451-1.164,17.204c-0.058,5.231,4.525,10.24,9.746,10c5.332-0.245,9.686-4.394,9.747-10
	c0.067-6.051,0.497-12.084,1.277-18.082c-0.116,0.887-0.232,1.772-0.349,2.658c1.733-13.02,5.129-25.761,10.092-37.874
	c-0.328,0.796-0.655,1.592-0.984,2.388c2.582-6.25,5.568-12.311,8.954-18.143c2.61-4.498,1.131-11.174-3.497-13.683
	C1792.51,686.314,1786.666,687.649,1783.88,692.452"/>
<path d="M1771.943,822.83c7.122,5.394,17.583,4.405,24.824-0.152c3.629-2.284,6.922-5.511,9.01-9.35
	c1.008-1.853,1.9-3.93,2.304-6.031c0.656-3.418,0.563-5.871,0.065-9.28c-0.328-0.796-0.655-1.594-0.982-2.39
	c-0.613-1.165-1.451-2.1-2.51-2.805c-1.646-1.304-3.772-2.246-5.906-2.148c-4.209,0.194-8.356,2.95-9.399,7.343
	c-1.983,8.353-3.965,16.706-5.946,25.06c-0.609,2.567-0.333,5.4,0.983,7.705c1.182,2.074,3.5,4.052,5.824,4.595
	c5.022,1.175,10.699-1.547,11.99-6.983c1.98-8.354,3.963-16.706,5.946-25.06h-18.798c0.014,0.098,0.029,0.193,0.042,0.29
	c-0.115-0.886-0.231-1.771-0.347-2.658c0.126,1.047,0.12,2.078-0.017,3.124l0.35-2.658c-0.158,1.017-0.432,1.987-0.814,2.938
	c0.328-0.796,0.655-1.593,0.982-2.389c-0.481,1.123-1.092,2.158-1.821,3.129c0.509-0.674,1.016-1.35,1.524-2.024
	c-0.822,1.054-1.748,1.984-2.781,2.817c0.657-0.521,1.316-1.042,1.974-1.563c-1.207,0.941-2.505,1.714-3.898,2.319
	c0.775-0.336,1.551-0.672,2.327-1.008c-1.216,0.502-2.46,0.861-3.755,1.063c0.863-0.118,1.726-0.237,2.59-0.356
	c-1.183,0.161-2.356,0.181-3.542,0.038c0.863,0.119,1.729,0.237,2.592,0.356c-0.996-0.143-1.948-0.396-2.882-0.777
	c0.774,0.335,1.552,0.672,2.328,1.008c-0.864-0.379-1.662-0.85-2.419-1.422c-1.909-1.445-5.325-1.625-7.51-1.008
	c-2.262,0.639-4.711,2.433-5.826,4.596c-1.194,2.32-1.794,5.132-0.982,7.705l0.982,2.39
	C1769.313,820.745,1770.479,821.941,1771.943,822.83"/>
<path d="M1841.867,836.751c17.135,3.154,34.27,6.311,51.404,9.466c4.862,0.895,9.724,1.79,14.586,2.685
	c2.632,0.485,5.129,0.423,7.51-1.007c2.021-1.214,3.95-3.593,4.479-5.977c0.568-2.561,0.445-5.434-0.982-7.706
	c-1.304-2.074-3.362-4.142-5.826-4.595c-17.135-3.155-34.27-6.311-51.405-9.467c-4.86-0.895-9.722-1.79-14.585-2.686
	c-2.632-0.484-5.127-0.421-7.51,1.009c-2.021,1.214-3.949,3.592-4.479,5.976c-0.568,2.561-0.445,5.434,0.981,7.705
	C1837.346,834.229,1839.404,836.297,1841.867,836.751"/>
<path d="M1782.645,852.526c2.453,20.206,4.906,40.412,7.357,60.618c0.334,2.75,0.866,5.03,2.854,7.07
	c1.69,1.734,4.464,3.04,6.893,2.93c2.521-0.116,5.134-0.967,6.892-2.93c1.623-1.813,3.165-4.507,2.855-7.07
	c-2.452-20.206-4.905-40.412-7.358-60.618c-0.333-2.75-0.866-5.031-2.855-7.071c-1.689-1.735-4.464-3.041-6.891-2.929
	c-2.521,0.116-5.136,0.965-6.893,2.929C1783.877,847.268,1782.334,849.962,1782.645,852.526"/>
<path d="M1697.675,895.386c25.378,9.774,51.721,16.217,78.585,19.796c7.436,0.991,14.902,1.724,22.385,2.212
	c2.398,0.156,5.233-1.228,6.892-2.929c1.69-1.734,2.964-4.58,2.855-7.071c-0.113-2.586-0.94-5.27-2.855-7.071
	c-1.974-1.859-4.201-2.754-6.892-2.929c-7.941-0.519-15.863-1.318-23.75-2.396c0.863,0.119,1.727,0.238,2.592,0.357
	c-19.868-2.745-39.494-7.263-58.59-13.531c-5.393-1.77-10.738-3.682-16.039-5.724c-2.242-0.863-5.518-0.189-7.512,1.009
	c-2.021,1.214-3.949,3.592-4.479,5.976c-0.567,2.561-0.445,5.434,0.982,7.705C1693.295,893.09,1695.181,894.425,1697.675,895.386"/>
<path d="M1067.827,691.684c18.064,8.533,36.519,16.211,55.292,22.946c18.448,6.62,37.205,12.335,56.185,17.118
	c10.708,2.7,21.488,5.099,32.321,7.203c2.498,0.484,5.378-0.713,5.995-3.493c0.547-2.462-0.726-5.63-3.403-6.149
	c-19.129-3.717-38.083-8.358-56.783-13.919c-18.697-5.563-37.137-12.037-55.236-19.396c-2.544-1.035-5.083-2.088-7.614-3.156
	c-1.265-0.535-2.529-1.074-3.792-1.619c-0.21-0.09-0.42-0.182-0.63-0.271c-0.319-0.138-0.28-0.121,0.112,0.049
	c-0.141-0.062-0.279-0.122-0.42-0.183c-0.699-0.306-1.398-0.611-2.098-0.918c-5.033-2.214-10.035-4.498-15.01-6.847
	c-2.311-1.092-5.356-0.752-6.667,1.793C1064.944,687.045,1065.354,690.516,1067.827,691.684"/>
<path d="M1116.412,743.243c-2.209,15.739-4.418,31.479-6.627,47.217c-0.194,1.388-0.228,2.593,0.492,3.854
	c0.591,1.037,1.75,2.026,2.912,2.298c2.306,0.539,5.606-0.724,5.994-3.493c2.209-15.737,4.418-31.478,6.627-47.217
	c0.195-1.387,0.229-2.592-0.491-3.853c-0.591-1.036-1.75-2.026-2.912-2.298C1120.102,739.213,1116.801,740.475,1116.412,743.243"/>
<path d="M1195.162,736.354c-4.357,11.255-8.715,22.51-13.071,33.766c-0.942,2.437,1.031,5.596,3.405,6.15
	c2.81,0.656,4.984-0.883,5.994-3.493c4.356-11.255,8.713-22.51,13.07-33.765c0.943-2.438-1.03-5.596-3.403-6.15
	C1198.346,732.205,1196.173,733.744,1195.162,736.354"/>
<path d="M1093.787,776.508c17.032,7.012,34.065,14.022,51.096,21.035c4.878,2.007,9.755,4.015,14.632,6.022
	c2.373,0.976,5.456-1.063,5.995-3.493c0.643-2.891-0.863-5.104-3.404-6.149c-17.031-7.013-34.063-14.023-51.096-21.035
	c-4.877-2.007-9.754-4.015-14.631-6.023c-2.373-0.976-5.457,1.063-5.995,3.493C1089.741,773.248,1091.247,775.463,1093.787,776.508"
	/>
<path d="M1041.171,915.686c14.716,6.853,29.852,12.742,45.315,17.563c15.475,4.824,31.262,8.593,47.224,11.271
	c9.049,1.519,18.153,2.693,27.287,3.525c1.313,0.12,2.437-1.234,2.437-2.5c0-1.451-1.12-2.379-2.437-2.5
	c-15.747-1.435-31.389-3.938-46.815-7.482c-15.563-3.574-30.897-8.194-45.871-13.825c-8.352-3.139-16.582-6.597-24.681-10.367
	c-1.196-0.559-2.622-0.353-3.333,0.896C1039.686,913.338,1039.967,915.125,1041.171,915.686"/>
<path d="M1519.647,1033.176c21.732,13.622,43.999,26.34,66.738,38.105c23.298,12.057,47.092,23.082,71.255,33.185
	c23.684,9.902,47.76,18.821,72.146,26.729c24.282,7.874,48.875,14.744,73.696,20.583c24.823,5.838,49.875,10.645,75.078,14.389
	c3.125,0.466,6.25,0.911,9.378,1.345c2.722,0.376,5.033,0.479,7.511-1.008c2.021-1.215,3.95-3.594,4.479-5.977
	c0.568-2.56,0.445-5.433-0.982-7.706c-1.268-2.018-3.391-4.259-5.825-4.596c-25.238-3.491-50.337-8.027-75.217-13.61
	c-24.772-5.558-49.324-12.143-73.58-19.727c-24.258-7.583-48.219-16.165-71.804-25.718c-5.974-2.419-11.923-4.9-17.846-7.443
	c-0.702-0.301-1.402-0.61-2.107-0.907c-0.014-0.006,1.829,0.795,0.825,0.356c-0.402-0.175-0.803-0.349-1.203-0.523
	c-1.502-0.655-3.003-1.313-4.502-1.977c-2.899-1.282-5.791-2.578-8.678-3.891c-11.641-5.29-23.178-10.821-34.604-16.591
	c-22.75-11.489-45.049-23.92-66.816-37.265c-2.71-1.66-5.41-3.336-8.104-5.025c-4.355-2.729-10.908-1.123-13.335,3.588
	C1513.642,1024.364,1514.997,1030.261,1519.647,1033.176"/>
<path d="M1837.15,623.244c0.259,19.307,0.517,38.615,0.776,57.922c0.257,19.225,0.514,38.448,0.772,57.672
	c0.145,10.903,0.293,21.805,0.438,32.706c0.034,2.587,1.063,5.233,2.854,7.072c1.691,1.734,4.464,3.04,6.892,2.928
	c5.221-0.238,9.821-4.395,9.747-10c-0.26-19.307-0.518-38.613-0.777-57.922l-0.772-57.672c-0.146-10.902-0.293-21.804-0.438-32.706
	c-0.034-2.586-1.064-5.233-2.855-7.071c-1.689-1.735-4.464-3.041-6.892-2.929C1841.676,613.484,1837.074,617.641,1837.15,623.244"/>
<path d="M1831.112,778.171c-2.088,47.674-2.522,95.421-1.286,143.126c1.228,47.465,4.104,94.885,8.62,142.141
	c2.618,27.382,5.813,54.7,9.491,81.954c0.309,2.297,2.633,4.867,4.479,5.977c2.091,1.255,5.17,1.786,7.51,1.009
	c2.359-0.784,4.635-2.283,5.826-4.596c1.313-2.547,1.363-4.882,0.982-7.706c-0.191-1.425-0.385-2.851-0.572-4.276
	c-0.096-0.713-0.189-1.426-0.283-2.139c-0.071-0.538-0.425-3.02-0.026-0.193c-0.434-3.085-0.799-6.182-1.188-9.272
	c-0.749-5.945-1.471-11.896-2.165-17.848c-1.364-11.667-2.627-23.346-3.791-35.036c-2.349-23.617-4.288-47.278-5.816-70.968
	c-3.058-47.378-4.471-94.866-4.235-142.348c0.131-26.618,0.785-53.233,1.949-79.824c0.229-5.232-4.647-10.233-9.746-10
	C1835.383,768.422,1831.358,772.565,1831.112,778.171"/>
<path d="M944.67,440.795c-1.489,17.547-2.976,35.095-4.464,52.642c-1.488,17.547-2.976,35.094-4.463,52.641
	c-0.842,9.932-1.684,19.865-2.526,29.797c-0.206,2.421,1.235,5.409,2.854,7.071c1.69,1.735,4.464,3.041,6.892,2.929
	c2.521-0.116,5.135-0.965,6.892-2.929c1.833-2.049,2.62-4.297,2.855-7.071c1.487-17.547,2.975-35.094,4.462-52.641
	c1.487-17.547,2.976-35.095,4.464-52.642c0.841-9.932,1.684-19.864,2.526-29.797c0.205-2.421-1.235-5.409-2.855-7.071
	c-1.691-1.734-4.464-3.04-6.892-2.929c-2.521,0.116-5.136,0.966-6.892,2.929C945.69,435.774,944.904,438.022,944.67,440.795"/>
<path d="M979.369,417.037c22.193-5.274,44.386-10.547,66.578-15.821c6.297-1.496,12.592-2.992,18.889-4.488
	c4.971-1.182,8.382-7.309,6.807-12.301c-1.682-5.33-6.662-8.251-11.989-6.985c-22.192,5.274-44.386,10.548-66.579,15.821
	l-18.888,4.488c-4.971,1.182-8.382,7.309-6.807,12.302C969.061,415.383,974.042,418.303,979.369,417.037"/>
<path d="M1074.796,384.682c56.327,4.508,112.161,13.81,167.39,25.897c55.403,12.127,110.195,26.989,164.753,42.588
	c54.926,15.705,109.644,32.175,164.684,47.458c54.476,15.126,109.299,29.106,164.764,39.892
	c55.112,10.718,110.9,18.292,166.976,20.686c7.077,0.302,14.157,0.515,21.24,0.654c6.273,0.124,6.273-9.876,0-10
	c-56.301-1.109-112.352-7.586-167.776-17.629c-55.544-10.065-110.446-23.548-164.947-38.387
	c-55.099-15.002-109.821-31.402-164.694-47.243c-54.551-15.748-109.275-30.964-164.588-43.664
	c-54.963-12.62-110.537-22.718-166.617-28.348c-7.055-0.709-14.116-1.339-21.183-1.904
	C1068.541,374.181,1068.572,384.184,1074.796,384.682"/>
<path d="M1860.655,613.416c20.561-4.873,41.12-9.746,61.679-14.618c5.853-1.387,11.704-2.774,17.557-4.161
	c4.972-1.178,8.382-7.311,6.807-12.301c-1.681-5.333-6.662-8.247-11.989-6.984c-20.56,4.872-41.12,9.745-61.68,14.618
	c-5.853,1.387-11.704,2.774-17.555,4.16c-4.974,1.179-8.382,7.311-6.809,12.302C1850.348,611.764,1855.328,614.679,1860.655,613.416
	"/>
<path d="M1936.871,555.601c2.464,72.145,4.93,144.291,7.395,216.437c2.452,71.776,4.904,143.554,7.356,215.331
	c1.384,40.489,2.767,80.979,4.15,121.469c0.177,5.223,4.354,10.248,9.746,10c5.127-0.235,9.938-4.4,9.747-10
	c-2.467-72.146-4.93-144.29-7.395-216.437c-2.453-71.776-4.906-143.554-7.357-215.33c-1.383-40.491-2.767-80.979-4.149-121.47
	c-0.179-5.222-4.356-10.248-9.747-10C1941.489,545.836,1936.68,550.001,1936.871,555.601"/>
<path d="M1847.176,1137.898c16.656-2.753,32.715-8.049,48.06-15.205c15.337-7.151,29.532-16.525,42.522-27.513
	c6.973-5.897,13.499-12.337,19.521-19.251c1.725-1.981,2.855-4.357,2.855-7.071c0-2.452-1.063-5.382-2.855-7.071
	c-1.857-1.748-4.296-3.048-6.892-2.929c-2.501,0.115-5.17,0.952-6.893,2.929c-7.332,8.421-15.419,16.116-24.129,23.02
	c0.658-0.521,1.316-1.042,1.975-1.563c-12.465,9.836-26.136,18.002-40.621,24.281c0.775-0.336,1.552-0.672,2.328-1.008
	c-13.168,5.673-26.953,9.765-41.053,12.095c-2.262,0.374-4.719,2.656-5.826,4.597c-1.223,2.144-1.739,5.303-0.982,7.706
	c0.764,2.42,2.225,4.754,4.48,5.976C1842.122,1138.223,1844.447,1138.35,1847.176,1137.898"/>
<path d="M1530.085,247.25c3.819-24.625,5.519-49.55,4.902-74.48c-0.065-2.613-2.196-5.124-4.874-5c-2.709,0.124-4.787,2.196-4.873,5
	c-1.184,38.495-2.368,76.99-3.552,115.486c-1.179,38.299-2.356,76.598-3.534,114.897l-1.993,64.813
	c-0.081,2.617,2.299,5.118,4.873,5c2.709-0.124,4.787-2.196,4.874-5c1.183-38.495,2.367-76.99,3.552-115.486
	c1.178-38.299,2.355-76.598,3.534-114.897c0.664-21.604,1.328-43.209,1.993-64.813h-9.747c0.594,24.041-0.956,48.623-4.553,71.822
	c-0.399,2.572,0.643,5.505,3.403,6.15C1526.429,251.289,1529.657,250.012,1530.085,247.25"/>
<path d="M1541.61,224.233l61.35-50.12c5.804-4.741,11.607-9.481,17.41-14.223c1.749-1.429,2.951-4.854,2.855-7.071
	c-0.1-2.258-0.739-4.262-2.093-6.059c-1.244-1.652-3.022-3.107-5.063-3.584c-2.378-0.555-5.471-0.578-7.51,1.009
	c-17.094,13.303-33.038,28.015-47.407,44.377c-3.924,4.467-7.727,9.046-11.413,13.722c-1.604,2.035-2.974,4.308-2.854,7.071
	c0.1,2.258,0.74,4.262,2.094,6.059c1.244,1.652,3.021,3.107,5.063,3.584c2.398,0.56,5.44,0.559,7.51-1.008
	c22.422-16.984,44.046-35.075,64.657-54.323c5.644-5.27,11.21-10.625,16.703-16.059c-2.297,0.977-4.594,1.953-6.892,2.929
	c11.771,1.113,23.572,1.913,35.392,2.122c12.204,0.216,24.437-0.187,36.569-1.601c12.664-1.476,25.258-3.78,37.385-7.872
	c11.692-3.946,23.106-9.317,33.153-16.666c10.94-8.003,20.242-17.754,27.604-29.311c0.871-1.366,1.706-2.755,2.511-4.162
	c1.768-3.079,1.758-7.014,0-10.094c-1.592-2.793-5.105-5.316-8.414-4.953c-17.852,1.957-35.616,4.801-53.168,8.67
	c-16.783,3.698-33.375,8.307-49.684,13.803c-9.264,3.121-18.432,6.533-27.495,10.218c-2.444,0.993-4.449,2.184-5.825,4.596
	c-1.223,2.143-1.74,5.302-0.982,7.705c0.764,2.42,2.224,4.755,4.479,5.977c2.176,1.178,5.119,1.98,7.512,1.008
	c28.666-11.654,58.396-20.516,88.693-26.411c8.514-1.657,17.071-3.075,25.659-4.266c-0.863,0.119-1.728,0.238-2.591,0.357
	c4.461-0.614,8.928-1.166,13.402-1.657c-2.806-5.016-5.611-10.031-8.416-15.047c-2.082,3.628-4.372,7.12-6.876,10.455
	c0.508-0.675,1.015-1.349,1.524-2.024c-4.865,6.425-10.498,12.179-16.765,17.161c0.659-0.521,1.316-1.042,1.974-1.563
	c-7.321,5.779-15.398,10.443-23.9,14.132c0.777-0.337,1.554-0.673,2.33-1.008c-12.914,5.559-26.633,8.864-40.483,10.775l2.592-0.357
	c-18.041,2.457-36.316,2.603-54.468,1.645c-4.46-0.235-8.917-0.54-13.37-0.898c-2.12-0.171-4.239-0.354-6.358-0.549
	c-0.55-0.05-1.101-0.118-1.652-0.154c-2.796-0.179-5.188,1.077-7.223,2.898c-1.243,1.115-2.396,2.364-3.592,3.534
	c-9.248,9.038-18.71,17.846-28.376,26.413c-10.92,9.68-22.101,19.049-33.519,28.104c0.657-0.521,1.314-1.042,1.972-1.564
	c-4.596,3.64-9.229,7.229-13.899,10.767c3.937,5.236,7.874,10.471,11.811,15.706c12.404-15.735,26.178-30.323,41.136-43.52
	c4.264-3.762,8.624-7.407,13.07-10.941c-0.659,0.521-1.315,1.042-1.974,1.563c0.877-0.695,1.758-1.387,2.642-2.074
	c-3.937-5.236-7.874-10.471-11.812-15.706l-61.35,50.12c-5.804,4.741-11.606,9.482-17.41,14.223
	c-1.824,1.491-2.854,4.795-2.854,7.071c0,2.453,1.062,5.383,2.854,7.071c1.857,1.75,4.296,3.048,6.893,2.929
	c0.863-0.119,1.727-0.238,2.59-0.357C1538.96,226.331,1540.394,225.474,1541.61,224.233"/>
<path d="M1808.348,140.368c6.282,15.678,14.186,30.491,24.134,44.05c9.921,13.524,21.189,25.858,34.097,36.431
	c7.462,6.114,15.245,11.769,23.484,16.729c2.505-6.092,5.008-12.186,7.512-18.277c-23.92-3.576-48.038-5.323-72.214-4.813
	c-6.696,0.141-13.388,0.45-20.067,0.916c-2.604,0.181-5.006,0.992-6.893,2.929c-1.69,1.734-2.964,4.58-2.854,7.071
	c0.111,2.586,0.94,5.268,2.854,7.071c1.831,1.725,4.322,3.108,6.893,2.929c22.113-1.541,44.338-1.309,66.415,0.724
	c6.193,0.571,12.374,1.285,18.536,2.133c-0.861-0.119-1.727-0.238-2.59-0.357c1.58,0.219,3.158,0.447,4.738,0.683
	c2.579,0.386,5.186,0.529,7.51-1.009c1.811-1.197,3.146-2.737,3.986-4.781c1.867-4.539,0.23-9.949-3.986-12.488
	c-6.631-3.99-13.004-8.408-19.095-13.218c0.656,0.521,1.313,1.043,1.971,1.564c-12.572-9.973-23.864-21.579-33.593-34.473
	c0.51,0.674,1.017,1.349,1.525,2.023c-9.621-12.809-17.659-26.83-23.811-41.722c0.328,0.797,0.655,1.593,0.982,2.389
	c-0.249-0.606-0.494-1.212-0.738-1.82c-1.006-2.514-2.1-4.548-4.479-5.976c-2.088-1.254-5.167-1.786-7.511-1.008
	c-2.357,0.783-4.634,2.282-5.823,4.595C1808.191,134.874,1807.375,137.94,1808.348,140.368"/>
<path d="M1698.127,232.932c11.751,4.458,23.963,7.538,36.374,9.27c13.124,1.83,26.288,2.492,39.512,1.538
	c13.232-0.954,26.438-3.186,39.224-6.824c12.68-3.606,25.049-8.604,36.755-14.765c11.781-6.2,22.782-13.804,32.983-22.457
	c1.203-1.02,2.389-2.058,3.563-3.111c-4.595-4.714-9.188-9.428-13.784-14.142c-9.07,11.124-19.309,21.202-30.482,30.083
	c0.657-0.522,1.314-1.043,1.974-1.564c-10.509,8.318-21.809,15.57-33.716,21.586c-3.377,1.705-6.8,3.307-10.264,4.814
	c0.775-0.336,1.552-0.672,2.328-1.008c-6.328,2.737-12.787,5.136-19.359,7.182c-2.385,0.742-4.555,2.368-5.824,4.595
	c-1.223,2.143-1.74,5.303-0.982,7.705c1.592,5.048,6.762,8.611,11.988,6.985c14.929-4.645,29.429-11.057,42.964-19.016
	c13.526-7.955,26.22-17.57,37.685-28.406c6.217-5.875,12.053-12.164,17.474-18.814c1.697-2.081,2.854-4.269,2.854-7.071
	c0-2.453-1.063-5.382-2.854-7.071c-1.857-1.75-4.296-3.049-6.892-2.929c-2.684,0.123-4.863,1.109-6.893,2.929
	c-2.537,2.274-5.136,4.469-7.797,6.585c0.656-0.521,1.314-1.042,1.971-1.563c-11.94,9.45-25.076,17.226-38.963,23.248
	c0.775-0.336,1.553-0.672,2.328-1.008c-11.729,5.056-23.953,8.868-36.44,11.358c-3.552,0.708-7.124,1.307-10.707,1.806
	c0.862-0.12,1.728-0.239,2.591-0.358c-12.482,1.71-25.123,2.147-37.684,1.214c-3.604-0.268-7.195-0.651-10.775-1.139
	c0.865,0.119,1.729,0.238,2.592,0.357c-12.477-1.728-24.75-4.813-36.561-9.294c-2.252-0.855-5.506-0.195-7.511,1.008
	c-2.021,1.214-3.948,3.592-4.478,5.976c-0.568,2.56-0.446,5.433,0.981,7.706C1693.744,230.631,1695.631,231.985,1698.127,232.932"/>
<path d="M1880.371,209.692c0.67-1.495,1.416-2.984,2.398-4.292c-0.508,0.674-1.016,1.349-1.524,2.024
	c0.364-0.479,0.765-0.931,1.23-1.307c-0.657,0.522-1.314,1.043-1.972,1.564c0.242-0.191,0.5-0.358,0.78-0.483
	c-0.774,0.336-1.552,0.672-2.327,1.008c0.199-0.085,0.403-0.148,0.617-0.18c-0.863,0.119-1.729,0.238-2.592,0.357
	c0.191-0.025,0.379-0.025,0.568,0c-0.863-0.119-1.727-0.238-2.591-0.357c0.192,0.029,0.378,0.084,0.558,0.16
	c-0.775-0.336-1.552-0.672-2.328-1.008c0.232,0.103,0.447,0.238,0.647,0.395c-0.658-0.521-1.316-1.043-1.974-1.564
	c0.352,0.28,0.652,0.616,0.926,0.975c-0.509-0.675-1.017-1.349-1.523-2.024c0.712,0.952,1.232,2.044,1.688,3.145
	c-0.327-0.796-0.655-1.593-0.982-2.389c2.483,6.042,3.513,12.79,4.521,19.222c0.396,2.521,0.752,5.048,1.084,7.58
	c-0.116-0.887-0.232-1.772-0.35-2.659c0.996,7.629,1.774,15.288,2.457,22.953c0.797,8.964,1.458,17.941,2.047,26.922
	c0.642,9.796,1.195,19.597,1.696,29.4c0.525,10.251,0.992,20.504,1.427,30.759c0.434,10.209,0.832,20.419,1.216,30.63
	c0.362,9.672,0.711,19.345,1.063,29.018c0.319,8.762,0.641,17.524,0.987,26.284c0.293,7.354,0.6,14.708,0.973,22.058
	c0.277,5.473,0.577,10.946,1.021,16.408c0.326,4.038,0.616,8.183,1.478,12.142c0.083,0.383,0.174,0.764,0.303,1.134
	c0.868,2.485,2.202,4.609,4.479,5.977c2.09,1.254,5.169,1.785,7.512,1.007c2.357-0.782,4.633-2.282,5.824-4.595
	c1.174-2.278,1.86-5.188,0.982-7.706c-0.436-1.248-0.589-2.62-0.761-3.926l0.349,2.659c-0.787-6.003-1.092-12.084-1.428-18.126
	c-0.531-9.514-0.924-19.037-1.298-28.558c-0.474-11.993-0.898-23.987-1.335-35.981c-0.486-13.365-0.982-26.731-1.525-40.094
	c-0.555-13.62-1.157-27.239-1.863-40.851c-0.67-12.887-1.424-25.769-2.369-38.638c-0.811-11.038-1.743-22.071-3.023-33.063
	c-1.043-8.943-2.15-17.955-4.141-26.738c-0.605-2.669-1.291-5.342-2.273-7.894c-1.235-3.21-2.521-6.344-4.975-8.812
	c-3.205-3.224-7.748-4.675-12.128-3.367c-3.886,1.161-6.688,4.207-8.776,7.621c-0.609,0.995-1.127,2.049-1.606,3.116
	c-1.123,2.502-1.721,4.952-0.981,7.705c0.622,2.32,2.369,4.833,4.478,5.976c2.264,1.227,5.004,1.841,7.511,1.009
	C1876.825,213.53,1879.326,212.019,1880.371,209.692"/>
<path d="M1779.034,518.017c15.259,1.93,30.722,2.015,46.003,0.276c16.025-1.823,31.811-5.261,47.025-10.767
	c8.816-3.189,17.459-6.973,25.799-11.306c2.012-1.047,3.981-3.734,4.479-5.977c0.495-2.236,0.38-4.388-0.492-6.511
	c-1.953-4.75-6.675-6.812-11.498-5.79c-8.987,1.905-18.034,3.485-27.128,4.742c0.864-0.119,1.727-0.238,2.591-0.357
	c-27.057,3.707-54.474,4.534-81.692,2.434c-7.676-0.592-15.334-1.421-22.963-2.471c0.863,0.119,1.728,0.238,2.59,0.357
	c-9.863-1.371-19.672-3.121-29.406-5.254c-2.563-0.562-5.201-0.378-7.512,1.008c-2.021,1.214-3.949,3.593-4.478,5.977
	c-0.568,2.559-0.446,5.433,0.981,7.705c1.331,2.118,3.346,4.053,5.826,4.596c21.442,4.697,43.305,7.633,65.204,8.734
	c21.201,1.066,42.487,0.372,63.579-2.086c12.608-1.47,25.16-3.465,37.589-6.1c-2.505-6.092-5.007-12.186-7.511-18.277
	c-4.119,2.141-8.311,4.133-12.566,5.977c0.775-0.336,1.553-0.672,2.327-1.008c-16.247,6.997-33.362,11.746-50.823,14.165
	c0.863-0.119,1.726-0.238,2.59-0.356c-16.75,2.283-33.742,2.411-50.515,0.29c-2.302-0.291-5.332,1.327-6.892,2.929
	c-1.691,1.734-2.963,4.58-2.855,7.071c0.113,2.586,0.941,5.269,2.855,7.071c0.657,0.521,1.314,1.042,1.972,1.564
	C1775.636,517.556,1777.274,518.011,1779.034,518.017"/>
<path d="M1535.676,504.246c3.136,0,3.142-5,0-5C1532.541,499.246,1532.534,504.246,1535.676,504.246"/>
<path d="M1680.338,120.454h13.151c2.499,0,5.124-1.116,6.892-2.929c0.95-0.906,1.621-1.979,2.015-3.218
	c0.61-1.192,0.891-2.476,0.841-3.853c-0.113-2.586-0.941-5.269-2.855-7.071c-1.907-1.796-4.252-2.929-6.892-2.929h-13.151
	c-2.499,0-5.125,1.115-6.893,2.929c-0.949,0.905-1.622,1.978-2.015,3.218c-0.61,1.192-0.89,2.476-0.84,3.853
	c0.113,2.586,0.94,5.269,2.854,7.071C1675.352,119.321,1677.697,120.454,1680.338,120.454"/>
</svg>
