<?xml version="1.0" encoding="utf-8"?>
<!-- Generator: Adobe Illustrator 15.1.0, SVG Export Plug-In . SVG Version: 6.00 Build 0)  -->
<!DOCTYPE svg PUBLIC "-//W3C//DTD SVG 1.0//EN" "http://www.w3.org/TR/2001/REC-SVG-20010904/DTD/svg10.dtd">
<svg version="1.0" id="Capa_1" xmlns="http://www.w3.org/2000/svg" xmlns:xlink="http://www.w3.org/1999/xlink" x="0px" y="0px"
	 width="2020px" height="1320px" viewBox="0 0 2020 1320" enable-background="new 0 0 2020 1320" xml:space="preserve">
<path d="M1940.454,893.948c0,47.26-0.141,94.512,0.095,141.763c0.058,12.132,1.645,24.255,1.893,36.391
	c0.313,15.339-4.752,19.884-23.683,22.547c-10.587,1.493-16.363-2.371-18.764-15.91c-2.441-13.765-3.535-27.908-3.912-41.924
	c-1.191-44.104-1.752-88.226-2.617-132.336c-0.072-3.766-0.58-7.516-0.879-11.175c-17.114-0.973-20.088,1.421-19.842,18.161
	c0.675,46.026,1.776,92.044,2.699,138.068c0.371,18.547,0.517,37.101,1.131,55.637c0.568,17.236,2.336,34.456,2.283,51.679
	c-0.067,21.811-12.901,31.494-32.962,24.9c-5.17-1.694-11.192-6.536-13.172-11.501c-3.675-9.209-6.574-19.603-6.448-29.457
	c0.727-56.276,0.555-112.676,4.487-168.749c2.593-36.946,8.013-73.67,6.966-110.881c-0.176-6.263-0.025-12.531-0.025-19.084
	c-19.372,2.916-22.546,5.079-22.041,20.486c1.252,38.146-6.098,74.922-13.12,112.034c-5.085,26.867-6.189,54.54-9.14,81.849
	c-0.546,5.05-0.654,10.361-2.345,15.014c-2.604,7.171-8.15,8.793-15.118,6.178c-20.786-7.806-27.594-18.006-24.828-40.502
	c10.874-88.526,8.934-177.469,8.601-266.368c-0.009-3.148-0.609-6.299-1.129-11.341c-5.954-1.861-12.231-3.88-18.542-5.781
	c-11.721-3.523-15.706-7.364-15.816-20.172c-0.079-9.357,2.334-18.773,4.052-28.08c0.564-3.054,2.416-5.86,3.725-8.757
	c20.344-44.936,20.057-44.905,15.599-94.906c-1.93-21.614-2.195-43.383-3.558-65.057c-2.165-34.417-3.972-68.886-7.189-103.201
	c-1.901-20.262,1.096-37.485,15.563-52.573c14.679-15.304,22.992-34.287,26.259-56c3.297-21.934,26.232-33.257,41.544-35.834
	c8.438-1.416,13.434,3.271,14.294,13.381c0.813,9.535,1.23,19.272,0.305,28.76c-1.449,14.837,4.874,24.182,16.641,31.278
	c10.118,6.102,20.207,12.437,29.499,19.769c6.258,4.934,12.514,10.973,16.26,17.966c6.017,11.234,12.494,21.419,21.123,30.95
	c5.562,6.143,6.597,17.281,8.287,26.453c2.306,12.5,3.896,25.217,4.708,37.917c0.997,15.624,8.207,27.179,17.896,38.738
	c18.603,22.187,31.091,47.593,29.772,78.251c-1.265,29.364-4.198,58.768-3.515,88.084c0.968,41.483,4.548,82.9,7.075,124.344
	c1.282,21.053,2.686,42.107,4.059,63.155c4.165,63.852,11.723,127.249,23.495,190.08c2.935,15.67,7.495,31.074,9.545,46.84
	c2.871,22.087-13.004,35.927-34.447,31.416c-6.671-1.399-11.265-5.229-12.669-12.264c-0.746-3.726-1.157-7.631-1.001-11.424
	c1.597-38.685-4.078-76.429-12.112-114.088c-7.849-36.797-15.97-73.702-14.63-111.881c0.147-4.239-1.196-8.53-1.85-12.801
	C1942.123,893.976,1941.287,893.964,1940.454,893.948 M1884.461,431.495c-1.026,9.495-2.361,17.572-2.671,25.69
	c-0.434,11.497-0.389,23.035-0.043,34.537c0.404,13.488-3.906,25.346-11.84,35.492c-17.047,21.81-35.08,42.8-51.914,64.783
	c-17.239,22.511-34.78,44.961-49.8,69.042c-10.269,16.469-16.569,35.624-24.341,53.718c-1.454,3.388-2.244,7.507-1.933,11.161
	c0.29,3.395,2.461,6.621,3.805,9.924c3.395-1.907,8.072-2.924,9.973-5.865c13.023-20.176,25.548-40.7,38.059-61.228
	c5.271-8.648,9.868-17.737,15.221-26.328c11.175-17.933,29.217-18.072,39.737,0.338c3.885,6.797,6.447,15.407,6.637,23.266
	c0.426,17.846-1.655,35.744-1.541,53.613c0.332,50.501,1.226,100.999,2.018,151.494c0.055,3.47,1.1,6.921,2.059,12.599
	c25.046-14.261,50.45-17.369,76.607-16.223c16.499,0.724,22.055,4.588,25.586,21.587c2.573,12.393,3.217,25.209,4.785,37.83
	c3.263,26.289,6.567,52.574,9.855,78.861c3.107-4.835,3.018-9.282,2.564-13.689c-2.939-28.604-6.729-57.133-8.758-85.803
	c-2.612-36.923-2.284-74.122-6.025-110.891c-5.262-51.703-7.387-103.133-1.561-154.913c4.332-38.503-2.75-73.645-31.437-101.717
	c-5.623-5.5-10.798-13.208-12.615-20.813c-3.833-16.032-7.323-32.686-7.207-49.059
	C1909.813,450.485,1904.142,438.432,1884.461,431.495 M1816.479,310.749c-13.441,2.959-19.64,9.904-21.129,21.083
	c-3.262,24.439-14.505,44.747-30.387,62.332c-9.729,10.77-11.822,22.361-10.573,36.799c3.298,38.132,5.039,76.407,7.338,114.628
	c1.536,25.489,2.921,50.988,4.57,76.472c0.083,1.304,2.035,2.482,3.226,3.839c29.108-36.317,57.758-72.059,86.411-107.799
	c6.589-8.219,9.467-17.617,9.438-28.337c-0.038-15.968,0.312-31.946,0.819-47.908c0.423-13.159,1.338-26.285,20.115-34.102
	c-7.014-4.995-11.004-7.999-15.144-10.756c-10.891-7.252-21.644-14.75-32.819-21.5c-15.484-9.349-22.447-22.794-21.127-41.364
	C1817.736,326.835,1816.804,319.427,1816.479,310.749 M1827.173,646.082c-4.01,6.148-8.16,12.159-11.948,18.4
	c-8.857,14.601-16.632,30.023-26.592,43.751c-7.967,10.978-10.964,22.362-10.907,35.579c0.199,42.189,0.606,84.387-0.088,126.562
	c-0.58,35.08-2.283,70.146-4.098,105.189c-1.122,21.665-3.527,43.254-4.971,64.905c-0.235,3.556,1.521,7.26,2.356,10.891
	c1.307-0.098,2.614-0.196,3.921-0.297c0.87-6.129,1.769-12.259,2.611-18.398c3.555-25.898,5.959-52.049,10.945-77.648
	c5.637-28.927,11.29-57.887,8.598-87.313c-2.113-23.124,3.872-38.23,26.961-43.576c12.272-2.845,16.104-11.301,15.529-24.123
	c-1.258-28.065-1.669-56.183-1.822-84.285c-0.092-15.945,1.14-31.896,1.527-47.854
	C1839.402,659.291,1837.782,651.401,1827.173,646.082 M1859.457,1163.739c-1.546-76.046-3.029-149.069-4.513-222.098
	c-6.314,29.964-7.947,60.41-8.451,90.927c-0.597,36.43-0.871,72.864-1.064,109.301
	C1845.389,1149.963,1845.324,1158.58,1859.457,1163.739 M1919.929,892.411c-1.336-0.01-2.674-0.017-4.009-0.023
	c-4.142,15.435-0.473,162.81,4.009,175.624V892.411z M1995.007,1137.28c10.906-19.625-0.955-33.828-3.599-48.913
	C1992.723,1103.58,1987.594,1119.407,1995.007,1137.28"/>
<path d="M1443.722,771.111h-45.311c-0.596,7.15-1.693,13.318-1.525,19.439c1.479,53.847-5.498,107.104-9.671,160.578
	c-2.533,32.451-3.318,65.068-4.208,97.632c-0.502,18.424-2.834,20.56-20.637,14.85c-2.34-0.751-4.81-1.051-7.198-1.658
	c-13.024-3.293-14.957-5.417-15.206-19.458c-0.148-8.293,0.861-16.597,1.087-24.908c1.406-51.763,2.188-103.554,4.345-155.278
	c0.96-22.93,4.812-45.716,7.034-68.601c1.3-13.337,2.168-26.729,2.886-40.119c1.294-24.189,2.327-48.402,2.272-72.977
	c-4.897,15.343-9.526,30.784-14.759,45.995c-5.576,16.208-10.874,17.866-24.241,8.475c-15.249-10.717-16.857-13.947-12.169-31.729
	c9.491-36.006,10.262-73.248,15.273-109.885c4.323-31.579,9.099-63.122,14.879-94.44c2.282-12.358,7.865-24.059,11.882-36.08
	c9.248-27.681,10.528-56.317,9.586-85.245c-0.146-4.459,0.508-8.938,0.555-13.412c0.229-21.759,9.024-38.314,28.062-48.016
	c13.843-7.059,22.065-17.595,23.166-33.861c0.256-3.763,2.479-7.406,2.613-11.148c0.748-21.01,14.596-29.575,31.048-35.641
	c10.989-4.053,18.658,0.045,20.093,11.982c1.295,10.726-0.15,21.804,1.094,32.544c0.915,7.914,2.1,17.49,6.812,22.952
	c24.216,28.073,48.849,55.872,74.958,82.023c10.846,10.865,25.802,17.28,38.749,25.94c12.238,8.186,14.329,13.614,10.325,25.139
	c-5.529,15.908-14.211,20.185-28.479,11.568c-10.483-6.333-20.043-14.713-28.954-23.354c-15-14.541-19.615-18.259-37.913-24.742
	c-3.952,18.352-1.973,36.711-1.521,54.879c0.556,22.346,3.016,44.662,3.083,66.997c0.152,48.62,1.514,97.396-1.628,145.83
	c-5.14,79.209-6.109,158.418-5.702,237.699c0.175,33.864,1.574,67.729,2.368,101.597c0.106,4.474,0.24,8.991-0.204,13.427
	c-1.163,11.661-4.041,14.589-14.905,15.064c-4.917,0.215-9.888-0.044-14.793-0.551c-7.822-0.809-12.357-5.226-12.663-13.666
	c-0.07-1.919-0.144-3.847,0.001-5.756c4.001-52.544-2.043-104.746-4.849-157.064c-1.195-22.349-1.068-44.764-2.058-67.123
	C1447.001,784.31,1444.952,777.69,1443.722,771.111 M1359.361,1033.932c1.369-0.146,2.734-0.297,4.1-0.445
	c1.29-26.093,1.81-52.252,4.025-78.263c5.041-59.204,12.208-118.258,9.896-177.899c-0.073-1.914-0.042-3.85,0.139-5.754
	c1.372-14.594,5.616-19.13,19.74-19.893c16.01-0.862,32.045-1.271,48.074-1.77c12.945-0.402,16.717,2.428,17.643,16.078
	c1.813,26.778,2.76,53.618,4.15,80.43c1.238,23.808,2.587,47.607,3.884,71.409c1.382-0.018,2.761-0.031,4.141-0.048
	c0.538-8.06,1.541-16.117,1.542-24.17c0.017-78.04,1.322-155.993,5.453-233.982c2.936-55.445,0.858-111.19,0.593-166.801
	c-0.153-31.327-1.791-62.654-1.567-93.972c0.145-19.786,2.917-22.179,22.604-28.542c-5.372-6.848-10.087-13.306-15.258-19.347
	c-9.414-10.992-19.076-21.749-28.669-32.576c-9.188-10.371-14.057-22.326-13.319-36.647c0.383-7.477,0.068-14.994,0.068-22.025
	c-9.188-1.905-13.175,1.208-14.993,7.627c-1.041,3.679-2.093,7.424-2.502,11.213c-2.787,25.814-13.011,45.904-37.571,56.442
	c-9.145,3.924-13.666,12.55-14.133,23.076c-0.816,18.5-0.401,37.183-2.878,55.443c-3.243,23.917-6.253,48.447-14.046,70.973
	c-8.208,23.73-14.616,47.348-17.243,72.268c-3.351,31.778-6.814,63.542-10.402,95.29c-2.166,19.166-4.662,38.29-7.372,60.39
	c2.565-4.142,3.98-5.53,4.366-7.18c5.061-21.639,10.922-43.146,14.685-65.032c4.432-25.794,7.126-51.914,10.336-77.927
	c1.144-9.249,5.769-13.686,14.713-13.438c9.272,0.255,13.477,5.774,13.351,14.759c-0.258,18.525-0.479,37.068-1.537,55.554
	c-2.488,43.344-5.625,86.651-8.106,129.996c-0.542,9.518,1.808,19.298,0.662,28.673c-5.189,42.498-10.094,84.945-10.687,127.893
	C1362.651,948.479,1360.712,991.203,1359.361,1033.932 M1474.946,1009.081c0.482,0,0.963,0,1.445,0.005v-66.141
	c-0.482,0-0.963,0-1.445-0.002V1009.081z"/>
<path fill="#FFFFFF" d="M1884.459,431.495c19.683,6.937,25.354,18.993,25.223,37.406c-0.116,16.373,3.376,33.027,7.208,49.059
	c1.816,7.609,6.991,15.311,12.612,20.813c28.688,28.071,35.771,63.216,31.438,101.717c-5.826,51.785-3.701,103.209,1.561,154.913
	c3.741,36.772,3.416,73.968,6.027,110.887c2.027,28.674,5.816,57.203,8.756,85.807c0.453,4.403,0.543,8.854-2.564,13.689
	c-3.288-26.287-6.593-52.572-9.855-78.861c-1.565-12.621-2.212-25.438-4.785-37.83c-3.531-16.999-9.087-20.863-25.588-21.587
	c-26.155-1.151-51.56,1.962-76.602,16.218c-0.963-5.676-2.008-9.124-2.063-12.591c-0.792-50.498-1.685-100.994-2.018-151.497
	c-0.116-17.869,1.967-35.763,1.539-53.608c-0.188-7.864-2.75-16.479-6.633-23.275c-10.522-18.406-28.565-18.263-39.739-0.333
	c-5.354,8.591-9.948,17.68-15.221,26.328c-12.511,20.527-25.035,41.052-38.059,61.228c-1.898,2.941-6.579,3.958-9.974,5.86
	c-1.342-3.303-3.514-6.524-3.804-9.919c-0.312-3.654,0.479-7.773,1.933-11.156c7.772-18.095,14.069-37.254,24.343-53.723
	c15.016-24.077,32.559-46.534,49.798-69.042c16.834-21.983,34.864-42.974,51.916-64.783c7.932-10.146,12.24-22.003,11.838-35.492
	c-0.345-11.502-0.391-23.042,0.043-34.537C1882.1,449.067,1883.434,440.99,1884.459,431.495"/>
<path fill="#FFFFFF" d="M1816.479,310.75c0.322,8.679,1.257,16.086,0.738,23.386c-1.321,18.57,5.643,32.015,21.128,41.366
	c11.175,6.747,21.928,14.246,32.818,21.498c4.14,2.757,8.13,5.758,15.144,10.756c-18.775,7.814-19.696,20.94-20.113,34.102
	c-0.51,15.962-0.859,31.94-0.818,47.908c0.026,10.72-2.854,20.12-9.44,28.337c-28.653,35.74-57.303,71.483-86.411,107.799
	c-1.188-1.357-3.14-2.535-3.226-3.839c-1.649-25.481-3.034-50.982-4.57-76.472c-2.299-38.221-4.042-76.494-7.338-114.626
	c-1.249-14.442,0.843-26.03,10.573-36.8c15.882-17.587,27.127-37.893,30.385-62.332
	C1796.838,320.653,1803.038,313.711,1816.479,310.75"/>
<path fill="#FFFFFF" d="M1827.173,646.082c10.609,5.319,12.229,13.212,12.023,21.785c-0.388,15.955-1.619,31.905-1.527,47.854
	c0.153,28.1,0.564,56.217,1.822,84.282c0.574,12.822-3.257,21.278-15.529,24.123c-23.089,5.346-29.074,20.452-26.961,43.576
	c2.692,29.427-2.961,58.382-8.598,87.313c-4.986,25.604-7.391,51.745-10.947,77.648c-0.841,6.14-1.739,12.265-2.609,18.403
	c-1.308,0.096-2.614,0.194-3.921,0.292c-0.835-3.636-2.592-7.335-2.355-10.891c1.442-21.651,3.848-43.243,4.97-64.905
	c1.814-35.039,3.518-70.109,4.098-105.189c0.694-42.178,0.287-84.372,0.088-126.562c-0.061-13.217,2.94-24.602,10.907-35.583
	c9.96-13.724,17.734-29.146,26.592-43.747C1819.013,658.241,1823.163,652.23,1827.173,646.082"/>
<path fill="#FFFFFF" d="M1859.457,1163.743c-14.133-5.163-14.069-13.78-14.028-21.879c0.193-36.432,0.468-72.866,1.064-109.294
	c0.504-30.521,2.137-60.965,8.451-90.924C1856.428,1014.67,1857.911,1087.689,1859.457,1163.743"/>
<path fill="#FFFFFF" d="M1919.929,892.411v175.601c-4.481-12.814-8.15-160.194-4.009-175.624
	C1917.255,892.395,1918.593,892.401,1919.929,892.411"/>
<path fill="#FFFFFF" d="M1995.007,1137.28c-7.413-17.873-2.284-33.7-3.599-48.913
	C1994.052,1103.452,2005.913,1117.655,1995.007,1137.28"/>
<path d="M1064.819,568.505c1.771,40.638,3.512,80.525,5.224,119.785c1.621,1.447,2.413,2.514,3.456,3.02
	c6.196,3.021,17.829,1.79,15.494,12.017c-1.306,5.717-11.182,9.325-19.526,15.656c0,13.568-1.14,30.158,0.229,46.518
	c3.081,36.791,6.354,73.624,11.533,110.139c4.56,32.127,11.684,63.87,17.928,95.729c3.434,17.523,7.409,34.936,11.117,52.398
	c2.84,13.396,0.05,17.599-12.821,19.41c-27.655,3.898-28.437,4.079-34.672-25.008c-5.468-25.488-8.773-51.467-13.32-77.176
	c-2.105-11.91-5.433-23.606-7.234-35.553c-2.182-14.448-10.844-20.612-23.711-22.24c-4.88-0.619-9.82-0.976-14.734-1.005
	c-18.518-0.101-37.045,0.36-55.546-0.169c-9.794-0.276-15.262,3.627-16.578,13.582c-0.916,6.927-2.068,13.874-2.258,20.838
	c-1.113,40.298,3.503,80.165,8.513,120.016c2.231,17.753,0.621,21.402-7.998,23.707c-11.854,3.172-25.732-4.043-29.536-17.063
	c-3.188-10.915-5.349-22.433-6.009-33.802c-2.001-34.378-2.25-68.881-4.674-103.223c-3.086-43.813-6.12-87.729-11.97-131.195
	c-5.954-44.209-15.521-87.883-23.041-131.878c-2.462-14.401-3.635-29.054-5.096-43.625c-2.605-25.972-5.956-51.708-10.974-77.42
	c-4.721-24.179-4.674-49.421-5.973-74.238c-0.589-11.234-2.813-21.05-9.937-30.017c-21.511-27.079-38.118-58.103-63.176-82.423
	c-11.082-10.755-9.527-20.493,2.323-30.737c3.305-2.855,6.934-5.364,10.625-7.667c14.094-8.782,21.983-7.956,31.945,5.56
	c13.067,17.731,25.086,36.292,37.549,54.502c5.337,7.797,11.711,15.07,15.757,23.535c6.989,14.629,20.742,17.012,33.146,21.975
	c7.975,3.191,13.278-0.311,15.221-8.727c4.43-19.169,9.688-38.223,12.643-57.641c3.218-21.177,4.775-24.509,24.251-30.266
	c5.92-1.751,11.739-3.982,17.747-5.317c14.735-3.283,21.129,1.39,21.999,16.972c0.745,13.397,0.147,26.866,0.414,40.298
	c0.162,8.3,0.148,16.704,1.42,24.857c2.144,13.746,7.808,25.779,20.528,32.303c34.466,17.679,63.978,43.119,95.672,65.138
	c6.14,4.268,12.144,9.185,18.911,11.954c25.716,10.523,33.218,32.311,34.709,58.063c0.407,7.015,0.566,14.107,0.07,21.105
	c-2.738,38.784,10.258,75.675,12.563,113.854c0.514,8.486,6.523,11.342,14.087,12.294c5.625,0.713,12.177,2.919,10.529,10.269
	c-0.815,3.631-6.104,7.735-10.041,8.71c-5.822,1.441-9.153,3.789-12.856,8.962c-4.934,6.896-12.204,12.332-19.263,17.152
	c-6.675,4.555-12.305-0.409-14.387-11.116c-5.225-26.883-10.282-53.808-16.123-80.544c-4.762-21.777-11.736-43.096-15.539-65.023
	c-3.108-17.908-5.212-22.381-27.814-20.417C1073.233,565.543,1070.924,566.675,1064.819,568.505 M772.173,319.987
	c14.482,18.688,27.767,35.392,40.566,52.49c9.44,12.607,17.132,26.825,27.677,38.271c8.63,9.366,10.298,18.771,10.5,30.929
	c0.421,25.455,2.004,50.976,4.76,76.28c2.819,25.901,7.796,51.543,11.468,77.356c2.061,14.479,2.745,29.187,5.175,43.584
	c7.411,43.946,15.547,87.756,23.053,131.682c5.804,33.968,10.229,68.079,8.561,102.762c-0.348,7.21-0.043,14.799,8.103,20.331
	c1.881-4.396,3.275-7.14,4.258-10.033c6.47-18.992,6.947-19.507,26.3-19.639c20.983-0.146,41.998-0.697,62.945,0.226
	c11.573,0.505,23.114,3.277,34.524,5.744c7.611,1.643,13.133,5.995,15.123,14.845c1.506,6.694,4.827,12.954,7.339,19.406
	c1.693-12.388,1.327-23.825,0.425-35.22c-1.662-20.949-3.602-41.874-5.498-62.801c-2.186-24.081-5.541-48.109-6.402-72.239
	c-1.119-31.306-0.108-62.691-0.4-94.043c-0.077-8.226-1.988-16.42-2.362-24.663c-0.896-19.776-1.532-39.568-1.937-59.358
	c-0.128-6.333,2.434-11.707,9.553-11.536c14.699,0.351,29.379,1.563,44.075,1.806c9.47,0.158,14.777,3.896,16.566,13.994
	c3.448,19.466,7.242,38.89,11.646,58.146c3.111,13.599,6.511,27.285,14.25,39.315c1.361-5.245,2.436-10.464,1.187-14.995
	c-7.226-26.222-7.5-52.988-7.016-79.894c0.127-7.009,0.006-14.119-0.938-21.04c-2.021-14.8-8.582-26.075-22.645-32.544
	c-8.925-4.104-16.983-10.339-25.218-15.95c-28.81-19.624-56.624-41.053-86.558-58.599c-25.968-15.22-35.287-37.623-36.209-66.063
	c-0.489-15.158-0.087-30.348-0.087-45.489c-24.271,0.039-25.175,1.836-29.196,23.066c-4.019,21.207-10.196,41.974-15.437,62.932
	c-1.844,7.385-5.579,13.469-13.517,13.618c-21.567,0.406-42.034-4.001-56.609-21.995c-9.459-11.678-16.849-25.141-25.412-37.622
	c-11.405-16.623-23.001-33.107-34.686-49.524c-0.944-1.326-3.185-1.66-5.462-2.767C780.851,313.559,776.962,316.439,772.173,319.987
	 M1085.676,1022.518c0.465-23.987-8.489-67.753-16.556-81.908C1074.952,967.895,1073.046,994.98,1085.676,1022.518"/>
<path d="M448.152,185.138c-0.339,7.366-0.601,14.209-0.983,21.044c-0.396,7.113-0.55,15.709-9.735,15.391
	c-8.858-0.306-9.062-8.983-9.454-16.008c-0.358-6.359,0.17-12.775-0.278-19.123c-0.769-10.893,5.569-16.126,13.916-20.037
	c8.806-4.126,17.877-5.398,26.608-0.51c6.263,3.511,5.542,11.912-1.08,15.055c-2.694,1.279-5.941,1.291-8.929,1.925
	C455.317,183.493,452.429,184.174,448.152,185.138"/>
<path d="M457.067,613.781c0.292,18.595-1.921,23.346-9.854,24.182c-7.222,0.758-10.174-4.075-11.125-20.411
	c-0.404-6.908-0.304-14.16,1.389-20.753c0.813-3.17,5.622-6.591,9.064-7.201c2.243-0.395,5.53,3.837,7.861,6.458
	c1.107,1.247,1.293,3.556,1.51,5.432C456.496,606.542,456.873,611.621,457.067,613.781"/>
<path d="M478.073,725.032c-5.868-0.642-10.938-0.477-15.577-1.861c-8.035-2.396-12.276-11.011-9.154-17.946
	c3.313-7.354,8.821-6.884,15.563-4.869c6.863,2.049,14.386,1.661,21.319,3.542c4.105,1.11,7.628,4.531,11.413,6.917
	c-2.727,3.79-4.723,9.038-8.363,11.002C488.619,724.324,482.637,724.185,478.073,725.032"/>
<path d="M447.822,450.688c-0.762,5.907-0.808,12.37-2.703,18.187c-0.847,2.598-5.29,5.029-8.332,5.381
	c-2.064,0.236-6.398-3.159-6.515-5.132c-0.732-12.429-0.982-24.937-0.339-37.362c0.124-2.373,4.931-6.223,7.594-6.238
	c2.719-0.015,7.032,3.351,7.86,6.127C447.145,437.539,447.087,444.007,447.822,450.688"/>
<path d="M932.169,149.495c3.39,3.452,6.912,7.039,10.433,10.623c-3.207,3.294-5.877,7.897-9.736,9.593
	c-6.652,2.931-13.967,4.84-21.16,5.59c-3.35,0.349-9.855-2.765-10.02-4.749c-0.346-4.146,1.437-10.917,4.367-12.448
	C913.511,154.216,922.08,152.618,932.169,149.495"/>
<path d="M995.759,146.047c2.711,2.366,7.799,5.042,9.66,9.25c0.807,1.823-4.378,8.124-8.001,10.058
	c-5.857,3.129-12.57,4.875-19.113,6.19c-6.312,1.269-11.653-2.4-11.758-8.719c-0.065-3.761,3.814-9.281,7.31-11.039
	C979.738,148.831,986.721,148.245,995.759,146.047"/>
<path d="M661.422,704.587c5.099,1.294,11.153,2.453,16.956,4.415c5.566,1.88,11.052,5.805,8.209,12.32
	c-1.43,3.274-7.753,5.856-11.896,5.904c-7.244,0.087-14.717-1.326-21.688-3.503c-3.43-1.073-5.955-5.253-8.89-8.028
	c3.003-3.389,5.693-7.188,9.145-9.98C654.9,704.389,657.989,704.98,661.422,704.587"/>
<path d="M451.159,283.787c-0.305,16.788-3.393,23.334-9.741,22.034c-10.772-2.206-9.03-11.909-9.335-19.753
	c-0.193-4.952,0.173-10.253,1.791-14.828c1.039-2.939,5.282-7.145,7.246-6.705c3.402,0.753,7.53,4.089,8.828,7.407
	C451.686,276.371,451.016,281.817,451.159,283.787"/>
<path d="M602.766,704.167c4.115-0.29,8.039-1.55,11.3-0.53c3.542,1.111,8.615,3.951,9.089,6.754c0.52,3.079-2.956,9.536-5.526,10.05
	c-8.607,1.726-17.703,2.469-26.359,1.399c-3.016-0.37-7.165-6.959-7.479-10.988c-0.476-6.096,5.034-7.694,10.373-7.413
	C597.193,703.596,600.21,703.945,602.766,704.167"/>
<path d="M1144.854,184.697c-1.674-1.448-6.941-3.886-7.088-6.623c-0.22-4.144,2.583-11.733,5.043-12.172
	c8.724-1.553,17.897-1.242,26.777-0.331c1.97,0.2,4.539,5.666,4.739,8.847c0.135,2.157-3.053,6.013-5.343,6.585
	C1161.906,182.769,1154.549,183.326,1144.854,184.697"/>
<path d="M835.124,184.611c-3.662-3.574-9.824-6.795-10.977-11.376c-1.652-6.558,4.703-9.324,10.469-10.48
	c4.806-0.964,9.803-2.96,14.413-2.285c4.102,0.601,7.791,4.24,11.661,6.535c-1.988,3.557-3.173,8.505-6.149,10.358
	C849.47,180.516,843.271,181.726,835.124,184.611"/>
<path d="M537.389,712.743c-1.813,0.232-3.626,0.509-5.445,0.686c-5.768,0.57-10.533-2.132-10.04-7.945
	c0.347-4.077,4.028-10.459,7.178-11.153c7.491-1.658,15.631-1.216,23.333-0.191c2.593,0.345,6.841,5.429,6.454,7.601
	c-0.621,3.489-3.902,7.729-7.096,9.161c-4.27,1.918-9.531,1.452-14.365,2.012C537.4,712.854,537.394,712.795,537.389,712.743"/>
<path d="M682.697,186.928c-2.642-0.228-5.736-0.143-8.671-0.812c-6.609-1.51-11.474-5.342-10.343-13.01
	c1.09-7.369,6.799-7.822,12.678-7.034c4.819,0.645,10.079,0.204,14.338,2.146c3.795,1.726,6.483,6.057,9.661,9.24
	c-3.33,3.024-6.403,6.463-10.098,8.884C688.474,187.515,685.521,186.778,682.697,186.928"/>
<path d="M585.122,182.737c-12.945,0.182-18.849-2.89-18.734-9.692c0.117-6.896,6.324-10.264,18.71-10.144
	c1.214,0.013,2.442-0.053,3.634,0.12c6.604,0.961,14.629,1.125,13.925,10.848c-0.589,8.124-7.739,8.413-13.898,8.855
	C587.553,182.812,586.335,182.737,585.122,182.737"/>
<path d="M765.244,186.877c-12.754,0.182-19.233-3.167-19.042-9.842c0.184-6.47,7.259-10.285,19.459-9.64
	c7.048,0.371,15.875-0.824,16.977,9.987C783.27,183.572,776.915,186.71,765.244,186.877"/>
<path d="M1077.223,187.097c-4.147-0.649-7.723-0.227-9.976-1.819c-2.664-1.886-5.291-5.309-5.82-8.448
	c-0.351-2.078,2.584-6.317,4.798-7.004c6.947-2.156,14.237-3.983,21.417-4.078c3.039-0.039,7.406,3.996,8.741,7.252
	c0.84,2.038-2.103,7.4-4.652,8.922C1087.124,184.671,1081.54,185.66,1077.223,187.097"/>
<path d="M728.066,695.568c6.766,4.663,12.711,7.795,17.285,12.395c1.816,1.823,1.888,7.755,0.368,10.252
	c-1.405,2.305-6.135,3.711-9.167,3.358c-4.084-0.472-7.852-3.326-11.919-4.592c-5.768-1.781-11.473-4.782-8.979-11.465
	C717.152,701.511,723.146,699.301,728.066,695.568"/>
<path d="M844.06,718.866c-8.291-1.742-13.952-2.026-18.85-4.18c-6.625-2.915-6.956-12.332-0.27-14.489
	c6.508-2.101,14.221-2.012,21.03-0.735c5.671,1.065,9.76,6.858,6.963,12.961C851.346,715.894,846.038,717.529,844.06,718.866"/>
<path d="M455.32,538.982c-0.852,4.336-0.762,7.873-2.263,10.388c-1.412,2.365-4.443,4.942-6.865,5.058
	c-2.412,0.114-6.419-2.186-7.165-4.365c-2.43-7.13-4.356-14.618-5.068-22.114c-0.27-2.828,3.154-8.428,5.159-8.563
	c3.48-0.236,8.491,1.818,10.459,4.683C452.645,528.536,453.704,534.482,455.32,538.982"/>
<path d="M454.965,361.933c-0.093,1.897-0.033,4.433-0.376,6.905c-0.966,6.982-4.159,12.335-11.702,11.232
	c-6.693-0.975-8.219-6.527-7.408-12.836c0.561-4.352,1.181-8.698,1.857-13.03c0.852-5.485,3.557-10.722,9.154-8.919
	c3.428,1.104,5.714,6.627,8.042,10.472C455.375,357.149,454.842,359.44,454.965,361.933"/>
<path d="M459.601,675.592c-0.831,6.722-0.148,14.709-8.91,16.747c-5.71,1.327-9.611-5.265-9.701-15.435
	c-0.061-6.678,0.269-13.869,8.424-14.512C457.632,661.744,458.991,668.681,459.601,675.592"/>
<path d="M512.615,185.128c-4.537-4.599-9.543-7.638-10.888-11.913c-0.648-2.057,5.16-8.438,8.834-9.316
	c5.327-1.275,11.462,0.246,17.017,1.611c0.967,0.236,2.114,7.075,0.857,8.292C524.272,177.842,519.049,180.702,512.615,185.128"/>
<path d="M1245.097,192.619c-4.568-5.81-8.624-8.845-9.622-12.718c-1.692-6.574,4.789-11.886,13.001-11.691
	c5.926,0.141,12.7,2.36,10.973,8.974C1258.083,182.413,1251.422,186.157,1245.097,192.619"/>
<path d="M1208.228,696.836c-5.68,4.197-9.408,8.802-11.511,8.107c-3.825-1.264-6.687-5.673-9.952-8.768
	c2.577-2.813,5.41-8.129,7.673-7.878C1198.33,688.726,1201.87,692.622,1208.228,696.836"/>
<path fill="#FFFFFF" d="M772.173,319.985c4.788-3.546,8.677-6.427,12.46-9.229c2.278,1.106,4.519,1.441,5.463,2.767
	c11.683,16.417,23.28,32.901,34.687,49.522c8.562,12.481,15.951,25.946,25.411,37.624c14.576,17.992,35.043,22.401,56.609,21.995
	c7.938-0.15,11.673-6.235,13.52-13.614c5.239-20.96,11.417-41.729,15.436-62.936c4.022-21.229,4.921-23.025,29.197-23.066
	c0,15.141-0.404,30.331,0.087,45.49c0.919,28.438,10.239,50.843,36.207,66.06c29.934,17.548,57.746,38.974,86.558,58.601
	c8.234,5.61,16.289,11.846,25.219,15.952c14.062,6.467,20.623,17.742,22.642,32.542c0.944,6.923,1.067,14.029,0.94,21.038
	c-0.481,26.908-0.21,53.674,7.015,79.896c1.248,4.531,0.176,9.746-1.186,14.999c-7.737-12.035-11.139-25.721-14.25-39.321
	c-4.403-19.254-8.197-38.681-11.646-58.147c-1.791-10.091-7.096-13.835-16.566-13.993c-14.695-0.244-29.376-1.452-44.075-1.804
	c-7.116-0.171-9.681,5.204-9.551,11.536c0.402,19.789,1.041,39.583,1.938,59.358c0.371,8.243,2.279,16.437,2.359,24.663
	c0.292,31.352-0.719,62.738,0.398,94.046c0.863,24.127,4.219,48.155,6.402,72.236c1.898,20.927,3.838,41.852,5.502,62.801
	c0.902,11.395,1.268,22.832-0.426,35.22c-2.513-6.452-5.834-12.714-7.34-19.406c-1.989-8.85-7.512-13.202-15.123-14.85
	c-11.41-2.464-22.954-5.234-34.524-5.739c-20.947-0.92-41.962-0.372-62.942-0.226c-19.358,0.132-19.835,0.646-26.302,19.639
	c-0.983,2.894-2.377,5.637-4.258,10.028c-8.147-5.529-8.452-13.116-8.103-20.326c1.67-34.678-2.756-68.794-8.559-102.762
	c-7.509-43.926-15.644-87.736-23.055-131.678c-2.429-14.402-3.113-29.111-5.173-43.588c-3.675-25.812-8.648-51.456-11.47-77.356
	c-2.755-25.304-4.339-50.825-4.76-76.282c-0.202-12.155-1.87-21.562-10.498-30.929c-10.546-11.447-18.24-25.663-27.678-38.27
	C799.941,355.379,786.655,338.673,772.173,319.985 M991.224,716.456c4.015-4.576,8.427-7.28,8.645-10.309
	c0.549-7.8-5.351-11.683-11.875-11.004c-3.724,0.387-7.031,5.069-10.53,7.818C981.53,706.946,985.592,710.934,991.224,716.456
	 M930.807,701.296c0.027-1.612,0.055-3.223,0.083-4.831c-3.809-2.015-7.446-5.088-11.466-5.784
	c-5.613-0.979-12.032,0.892-11.646,7.952c0.163,2.972,6.212,7.586,9.829,7.848C921.869,706.789,926.394,703.194,930.807,701.296"/>
<path fill="#FFFFFF" d="M1085.676,1022.518c-12.63-27.537-10.724-54.623-16.556-81.908
	C1077.187,954.765,1086.141,998.53,1085.676,1022.518"/>
<path d="M991.224,716.456c-5.63-5.522-9.696-9.51-13.759-13.494c3.497-2.749,6.806-7.435,10.532-7.821
	c6.523-0.676,12.421,3.203,11.868,11.011C999.653,709.176,995.237,711.88,991.224,716.456"/>
<path d="M930.807,701.296c-4.413,1.898-8.938,5.493-13.199,5.185c-3.617-0.262-9.666-4.876-9.829-7.848
	c-0.387-7.061,6.032-8.932,11.646-7.952c4.02,0.696,7.657,3.77,11.466,5.784C930.862,698.073,930.833,699.684,930.807,701.296"/>
<path d="M46.229,1081.391c0,6.94,0,12.069,0,17.197c0,26.477-0.974,53.008,0.375,79.418c0.778,15.309-5.418,28.211-9.554,41.918
	c-0.664,2.202-4.577,4.893-6.836,4.764c-2.281-0.13-6.125-3.404-6.224-5.446c-0.291-6.011,0.671-12.139,1.642-18.141
	c1.053-6.514,3.798-12.932,3.854-19.406c0.333-38.938,0.125-77.879,0.058-116.816c-0.023-14.478-0.052-14.396,14.287-17.641
	c2.432-0.548,4.818-1.889,6.883-3.341c23.43-16.472,47.018-32.732,70.1-49.667c20.667-15.165,41.492-30.099,65.277-39.997
	c11.645-4.847,15.564-12.237,14.544-24.134c-0.796-9.279,0.043-18.682-0.132-28.024c-0.243-13.116,5.827-22.825,16.141-30.339
	c2.951-2.147,5.977-4.234,9.14-6.05c16.247-9.334,26.072-22.837,30.779-41.109c3.768-14.625,9.101-17.67,21.885-17.836
	c14.174-0.182,21.718,4.215,25.859,17.891c3.278,10.825,4.513,22.279,6.356,33.504c0.731,4.461,0.65,9.054,0.974,14.087
	c11.241-1.199,20.298-4.769,27.507-12.052c8.989-9.085,19.494-15.517,31.517-19.906c12.443-4.54,22.922-11.939,32.605-21.109
	c7.023-6.646,16.094-11.164,24.227-16.67c7.294-4.937,14.614-9.844,21.816-14.906c11.886-8.354,23.679-16.841,35.526-25.247
	c11.445-8.12,22.832-16.319,34.393-24.274c6.369-4.38,13.043-8.315,20.479-13.023c5.47,3.825,10.544,7.252,15.488,10.858
	c9.654,7.039,19.282,14.113,28.808,21.317c2.897,2.186,5.691,4.623,8.083,7.333c16.473,18.693,32.916,37.412,49.149,56.309
	c3.325,3.869,8.906,9.421,7.978,12.65c-3.289,11.422,7.588,22.871-1.302,34.146c-2.844,3.605-3.39,9.681-3.445,14.644
	c-0.309,26.997-0.182,53.997-0.072,80.997c0.019,4.12-0.381,8.788,1.336,12.273c8.753,17.779,4.22,36.834,6.105,55.239
	c0.208,2.015,0.271,4.627-0.815,6.059c-2.001,2.641-4.885,6.336-7.439,6.367c-2.554,0.028-6.607-3.464-7.418-6.168
	c-1.443-4.816-1.308-10.218-1.169-15.354c0.397-14.555,0.655-28.909-4.84-42.964c-2.182-5.579-2.058-12.229-2.122-18.405
	c-0.237-22.841-0.113-45.688-0.123-68.531c-0.003-5.101,0-10.193,0-16.528c-10.165,1.978-17.114,6.342-23.054,12.077
	c-8.577,8.285-16.641,17.095-25.021,25.588c-2.554,2.59-5.205,5.18-8.172,7.265c-43.854,30.842-84.351,66.257-130.556,93.905
	c-8.466,5.067-16.374,11.054-23.596,15.974c5,15.109,10.423,29.457,14.364,44.196c2.509,9.38,3.038,19.317,4.053,29.044
	c1.229,11.81,1.578,23.723,3.124,35.484c2.299,17.51-16.948,33.436-33.469,26.524c-3.956-1.655-7.734-7.089-8.846-11.47
	c-4.575-18.02-7.364-36.498-12.309-54.403c-2.392-8.66-7.305-16.974-12.564-24.414c-3.97-5.616-10.449-6.148-16.705-1.649
	c-4.655,3.349-9.732,6.103-14.563,9.209c-11.177,7.188-17.658,14.897-14.452,30.532c4.661,22.733,6.028,46.237,7.451,69.493
	c1.208,19.783-3.511,25.031-23.033,31.186c-10.898,3.436-17.175,0.11-18.652-11.851c-2.095-16.969-3.462-34.089-3.947-51.174
	c-0.341-11.958-4.414-22.032-10.918-33.2c-5.861,2.656-11.421,4.293-15.976,7.384c-25.419,17.263-50.546,34.949-75.891,52.32
	c-6.711,4.6-9.396,9.22-7.11,18.147c2.258,8.807,0.888,18.557,0.909,27.893c0.063,27,0.136,53.997-0.055,80.994
	c-0.046,6.498,1.143,15.832-8.241,15.668c-9.162-0.16-7.984-9.506-8.04-15.985c-0.23-27.514-0.268-55.031-0.075-82.547
	c0.087-12.65-2.976-23.307-14.818-30.236c-2.375-1.391-4.282-4.513-5.207-7.232c-4.259-12.555-11.351-23.113-21.043-32.183
	c-14.052-13.143-28.001-26.396-41.747-39.854c-4.049-3.965-7.532-8.585-10.793-13.235
	C62.434,1089.411,61.583,1088.521,46.229,1081.391 M542.465,741.517c-4.152,2.362-8.754,4.604-12.955,7.435
	c-13.348,8.996-26.53,18.234-39.813,27.33c-8.147,5.581-17.242,10.147-24.345,16.805c-11.178,10.479-22.715,19.767-37.269,25.323
	c-4.682,1.789-9.142,5.319-12.502,9.104c-11.782,13.263-26.738,21.394-42.842,28.11c-5.731,2.387-11.81,5.052-16.256,9.158
	c-10.117,9.343-20.799,17.071-34.215,21.294c-9.508,2.99-14.177,10.184-12.611,20.509c2.473,16.325,4.682,32.693,7.468,48.964
	c3.822,22.32,16.852,37.194,38.125,45.38c11.178,4.299,22.769,8.17,32.933,14.266c9.021,5.405,16.388,5.266,24.551-0.151
	c13.9-9.222,28.125-18.001,41.647-27.735c36.74-26.439,73.216-53.236,109.685-80.044c3.299-2.426,5.589-6.148,8.668-8.923
	c12.288-11.081,22.136-24.563,37.387-32.782c12.682-6.836,20.398-18.557,21.957-34.23
	C600.873,803.82,579.373,767.053,542.465,741.517 M306.338,1197.334c13.489-4.919,14.718-7.601,12.831-21.836
	c-3.667-27.734-6.877-55.536-10.923-83.219c-1.09-7.468,1.158-11.458,7.476-15.039c14.897-8.447,29.455-17.492,43.593-25.958
	c31.773,15.448,33.436,17.433,41.432,50.544c3.864,16.01,7.498,32.076,11.278,48.304c8.731,0.326,12.577-2.272,11.438-10.826
	c-1.358-10.204-1.749-20.529-2.806-30.776c-1.32-12.817-2.256-25.719-4.493-38.388c-4.294-24.351-20.263-38.946-42.717-47.547
	c-9.268-3.552-18.983-6.247-27.727-10.782c-8.673-4.502-17.636-9.649-24.272-16.581c-19.278-20.127-21.14-46.75-23.554-72.368
	c-2.13-22.604-1.131-45.479-2.32-68.193c-0.428-8.167-2.448-16.487-5.256-24.197c-1.293-3.556-5.799-7.099-9.614-8.343
	c-5.222-1.706-8.656,2.117-10.186,7.219c-0.747,2.489-1.81,4.883-2.461,7.386c-4.12,15.834-12.799,28.121-27.437,36.245
	c-4.982,2.761-9.152,6.927-13.962,10.052c-7.67,4.976-11.059,11.542-11.049,20.84c0.056,52.816-1.616,105.653,3.668,158.353
	c1.042,10.39,5.276,18.216,16.053,20.261c10.174,1.927,20.57,2.873,30.913,3.709c6.33,0.507,13.457-0.309,16.613,6.326
	c8.649,18.184,19.187,35.707,19.997,56.753C303.445,1164.717,305.052,1180.123,306.338,1197.334 M60.299,1054.948
	c8.025,13.654,14.166,24.941,21.18,35.669c3.324,5.086,8.07,9.359,12.591,13.555c20.121,18.659,40.797,36.73,55.962,60.008
	c2.859,4.388,8.353,7.087,12.155,10.182c17.096-11.156,32.983-21.039,48.329-31.687c15.796-10.953,31.063-22.655,48.483-35.447
	c-4.369-2.747-7.685-5.618-11.545-7.071c-5.326-2.003-11.089-2.836-16.619-4.344c-14.111-3.848-22.771-13.349-24.44-27.33
	c-2.324-19.468-3.262-39.113-4.287-58.707c-0.567-10.871,0.026-21.795-0.171-32.69c-0.07-3.883-0.935-7.752-1.549-12.473
	c-24.938,8.656-44.672,23.151-64.772,37.023c-21.419,14.786-39.883,33.666-63.903,44.896
	C67.247,1048.617,63.614,1052.449,60.299,1054.948"/>
<path d="M1272.206,560.799c0.292,18.595-1.921,23.344-9.854,24.182c-7.223,0.758-10.174-4.075-11.126-20.411
	c-0.403-6.909-0.304-14.161,1.39-20.755c0.813-3.17,5.622-6.591,9.063-7.2c2.244-0.396,5.53,3.836,7.86,6.458
	c1.107,1.247,1.295,3.557,1.512,5.434C1271.637,553.559,1272.013,558.639,1272.206,560.799"/>
<path d="M1262.962,397.705c-0.762,5.907-0.809,12.37-2.703,18.187c-0.847,2.598-5.29,5.029-8.332,5.382
	c-2.064,0.235-6.397-3.159-6.514-5.132c-0.732-12.43-0.982-24.938-0.34-37.363c0.125-2.373,4.932-6.223,7.595-6.238
	c2.719-0.016,7.031,3.351,7.86,6.127C1262.284,384.556,1262.228,391.024,1262.962,397.705"/>
<path d="M1266.298,230.805c-0.304,16.787-3.392,23.334-9.739,22.033c-10.773-2.205-9.03-11.909-9.336-19.754
	c-0.193-4.952,0.174-10.252,1.792-14.827c1.038-2.939,5.281-7.146,7.246-6.705c3.402,0.753,7.529,4.088,8.827,7.406
	C1266.826,223.389,1266.155,228.834,1266.298,230.805"/>
<path d="M1270.46,486c-0.852,4.337-0.762,7.873-2.262,10.387c-1.413,2.366-4.445,4.943-6.866,5.059
	c-2.412,0.114-6.419-2.186-7.164-4.366c-2.431-7.13-4.357-14.618-5.068-22.113c-0.271-2.829,3.154-8.428,5.158-8.563
	c3.48-0.236,8.491,1.818,10.459,4.683C1267.784,475.554,1268.845,481.501,1270.46,486"/>
<path d="M1270.106,308.95c-0.094,1.897-0.035,4.432-0.378,6.905c-0.965,6.982-4.159,12.335-11.702,11.232
	c-6.692-0.975-8.218-6.527-7.407-12.836c0.561-4.352,1.181-8.698,1.857-13.03c0.851-5.486,3.557-10.723,9.154-8.92
	c3.429,1.104,5.714,6.627,8.041,10.473C1270.515,304.167,1269.981,306.458,1270.106,308.95"/>
<path d="M1274.74,622.608c-0.83,6.724-0.146,14.71-8.909,16.748c-5.711,1.328-9.611-5.264-9.702-15.435
	c-0.061-6.678,0.27-13.87,8.425-14.511C1272.771,608.761,1274.131,615.699,1274.74,622.608"/>
<path d="M1240.07,707.908c-5.869-0.643-10.94-0.478-15.577-1.861c-8.036-2.398-12.277-11.011-9.155-17.949
	c3.313-7.352,8.821-6.884,15.563-4.869c6.863,2.049,14.387,1.663,21.319,3.542c4.105,1.11,7.627,4.531,11.414,6.918
	c-2.728,3.789-4.724,9.037-8.364,11.004C1250.615,707.197,1244.634,707.059,1240.07,707.908"/>
</svg>
