<?xml version="1.0" encoding="utf-8"?>
<!-- Generator: Adobe Illustrator 15.1.0, SVG Export Plug-In . SVG Version: 6.00 Build 0)  -->
<!DOCTYPE svg PUBLIC "-//W3C//DTD SVG 1.0//EN" "http://www.w3.org/TR/2001/REC-SVG-20010904/DTD/svg10.dtd">
<svg version="1.0" id="Capa_1" xmlns="http://www.w3.org/2000/svg" xmlns:xlink="http://www.w3.org/1999/xlink" x="0px" y="0px"
	 width="1914px" height="1981px" viewBox="0 0 1914 1981" enable-background="new 0 0 1914 1981" xml:space="preserve">
<path fill="#010202" d="M883.435,1040.482c-35.169,3.042-61.499,53.092-92.465,72.082
	c-67.945,54.764-141.097,101.908-211.806,153.04c13.259,41.867,70.713,214.566-15.256,200.704c-10-2.099-14.974-9.329-17.742-17.805
	c-15.944-38.428-6.34-101.305-47.786-122.688c-26.774,8.952-63.005,31.015-53.701,64.196c5.537,36.848,9.817,73.742,11.151,110.973
	c2.879,23.406-21.03,30.464-38.51,36.95c-48.647,10.888-14.086-113.85-47.734-141.429c-45.805,21.826-84.313,56.26-127.069,83.401
	c-11.679,7.923-15.987,16.762-15.556,31.61c-0.043,57.34,4.388,116.256-0.687,173.008c-4.78,9.88-16.149,11.157-20.754,1.063
	c-13.467-49.849,17.021-148.269-22.824-181.543c-6.383-5.294-10.18-14.184-13.964-22.009c-14.004-31.114-43.279-49.978-65.85-74.252
	c-22.934-19.511-34.76-49.81-63.735-61.637c-17.627,38.021,14.042,188.881-29.675,205.721c-9.045-2.117-10.576-13.701-8.852-21.49
	c14.664-77.137,4.937-154.206,7.514-232.24c45.154-16.648,77.772-50.102,116.242-74.72c34.616-22.154,69.473-43.938,104.255-65.835
	c13.373-7.731,29.983-15.188,29.017-33.201c-11.757-123.529,55.579-74.587,83.421-164.811c5.692-20.707,13.572-24.881,34.27-24.663
	c49.122-1.445,39.526,60.222,48.657,93.542c13.522,2.124,24.155-3.314,32.537-11.208c18.182-17.119,39.391-28.623,61.982-38.48
	c80.257-51.356,154.132-113.952,235.822-163.466c63.115,31.389,105.188,85.615,148.43,136.209
	c29.51,30.997,12.236,68.893,7.837,105.123c-0.694,35.265-0.509,70.556-0.05,105.827c6.275,35.936,13.421,70.85,9.984,107.442
	c0.084,2.637-1.293,6.084-3.205,7.823c-17.022,15.734-23.23-10.785-21.846-24.045c3.393-32.956-11.074-63.18-10.391-95.877
	C883.99,1118.13,886.491,1080.323,883.435,1040.482 M759.012,845.755c-58.665,26.87-104.217,75.987-159.584,108.379
	c-28.156,16.034-48.62,42.482-79.666,54.071c-29.455,11.97-50.45,36.548-80.176,48.222c-15.152,6.425-18.282,14.272-15.752,30.623
	c9.182,50.888,7.172,114.305,66.354,132.694c28.035,6.219,56.12,38.564,83.521,16.818
	c61.719-47.566,301.023-197.318,311.612-262.923C803.512,877.994,788.014,862.301,759.012,845.755 M574.649,1439.149
	c15.223-15.291-3.646-76.848-2.143-102.098c-1.885-84.232-97.774-74.329-141.206-124.494
	c-48.173-58.793-26.875-159.845-42.343-233.068c-4.772-26.972-24.951-16.438-28.672,7.074c-6.682,20.285-18.938,36.164-36.922,47.82
	c-20.166,12.654-41.338,27.168-36.968,54.146c0.317,62.663,0.388,125.332,1.259,187.989c1.737,65.111,15.137,64.24,74.924,69.154
	c11.039,0.831,18.477,5.804,23.368,15.084c23.224,39.625,30.655,84.181,30.855,129.711c-0.817,6.511,6.358,15.351,11.355,7.412
	c2.569-46.208-10.985-93.008-14.919-139.258c-5.883-27.394,58.702-52.526,78.834-64.153
	C563.383,1311.715,552.693,1383.367,574.649,1439.149 M254.015,1179.678c-12.313-2.961-20.604,3.594-28.405,8.718
	c-55.243,37.646-110.738,74.034-164.497,113.888c11.296,25.857,23.149,50.128,43.754,68.924
	c30.366,27.699,60.596,55.431,83.96,89.748c3.499,5.14,10.34,8,15.009,11.452c41.441-23.604,116.483-77.868,129.686-93.973
	c-27.177-16.688-66.521-14.599-68.947-56.759C256.284,1274.936,262.633,1226.209,254.015,1179.678"/>
<path fill="#010202" d="M1288.252,885.785c-19.457,62.522,3.375,129.019,3.211,193.116c-0.822,26.404-41.742,16.92-47.234-2.938
	c-16.801-60.111-11.264-124.805-16.594-186.724c-3.854-83.366-16.652-165.501-32.33-247.362
	c-13.145-91.905-30.391-183.605-36.814-276.365c-1.41-20.322-8-37.533-21.096-53.441c-24.254-29.456-44.221-62.288-71.563-89.416
	c-17.35-15.371-0.666-32.91,14.006-42.203c20.605-13.81,32.404-12.465,47.469,7.489c20.064,26.574,40.313,53.175,58.01,81.316
	c13.15,20.915,30.219,32.478,55.98,35.53c29.629-32.112,5.346-107.192,57.381-116.89c15.904-2.625,43.174-16.129,46.863,8.94
	c9.947,39.805-13.354,98.229,29.535,122.358c50.996,25.523,93.168,65.285,142.75,92.676c30.512,13.122,42.871,42.953,43.074,74.006
	c-3.998,51.458,8.801,101.286,14.486,151.793c0.289,22.963,27.199,15.054,32.463,34.735c-18.037,11.194-33.951,24.382-50.506,37.799
	c-30.102,21.532-32.791-71.482-41.279-89.201c-8.205-35.257-14.684-70.93-23.486-106.036c-3.605-18.999-25.125-12.992-38.625-11.912
	c-5.48,24.972-4.904,49.739,2.928,143.127c7.115,4.721,14.871,9.868,21.957,14.571c-1.422,14.916-15.563,15.834-22.988,26.709
	c-2.275,92.992,11.816,188.637,31.762,279.801c6.424,27.643,12.342,55.41,17.99,83.222c6.65,20.571-13.705,23.246-29.445,25.73
	c-38,10.709-33.967-71.561-43.326-96.604c-10.521-29.693-2.447-99.715-45.619-96.56
	C1354.49,883.734,1320.045,877.537,1288.252,885.785 M1467.672,1018.052c1.021,1.669,2.043,3.337,3.066,5.007
	c1.332-3.01-2.061-3.014-3.908-4.25c2.426-9.209,1.729-18.186-2.365-26.869C1461.465,1001.069,1460.629,1009.988,1467.672,1018.052
	 M1540.904,579.038c-0.23,3.198-0.459,6.397-0.689,9.596c0.268,0.014,0.535,0.027,0.801,0.042
	c-28.816-195.954,35.613-96.634-177.1-243.531c-72.295-39.106-24.332-147.266-62.408-126.985
	c-24.553,25.916-10.824,116.366-57.189,114.649c-52.016,4.141-78.736-41.65-102.557-80.018
	c-11.703-12.33-26.297-53.083-45.475-46.737c-3.773,4.649,2.258,11.045,4.813,15.162c118.217,149.199,69.85,85.361,97.424,258.997
	c16.893,126.646,48.836,252.113,53.766,379.886c-0.227,5.362-2.396,11.843,4.432,16.434c16.615-19.272,26.32-23.729,52.369-23.104
	c44.371,5.237,90.227-2.24,131.326,18.603c-9.895-120.313-16.797-239.666-19.604-360.321c-1.67-21.178,0.83-43.167,27.738-40.318
	c22.9,4.812,62.23-6.117,67.863,24.518C1525.904,522.835,1521.65,556.862,1540.904,579.038"/>
<path fill="#010202" d="M1650.275,1648.159c-28.732,1.624-107.561-6.747-105.826,33.528c-3.023,93.689,4.572,188.582-5.262,281.72
	c-2.828,23.185-46.834,20.142-47.412-2.278c-9.623-109.031-23.848-218.507-21.174-328.095
	c4.648-141.014,26.609-280.955,26.502-422.147c-2.92-54.805,49.141-41.856,51.604-84.946c1.229-15.55,2.865-31.271,6.543-46.372
	c5.633-27.98,28.348-38.221,55.244-37.007c77.6-1.331-12.371,134.813,82.479,146.371c37.074,3.596,74.342,3.135,111.396-2.039
	c36.264-2.021,85.439-25.37,107.771,15.514c-7.672,20.932-3.354,51.331-26.572,61.847c-57.594,30.697-118.457,49.677-181.205,67.939
	c1.594,166.995,27.455,332.313,33.83,499.242c-2.395,43.26,27.729,126.511-41.557,117.707c-21.043-0.752-23.154-21.22-21.75-37.816
	C1677.326,1821.604,1661.957,1737.424,1650.275,1648.159 M1705.85,1915.635c1.729,0.306,3.461,0.608,5.189,0.914
	c-1.111-191.355-21.33-383.956-38.205-574.885c-2.188-23.698,4.176-31.948,27.199-37.008
	c57.793-14.376,115.549-32.131,167.299-61.688c-16.174-6.857-45.256,8.468-63.807,10.557c-29.607,7.452-59.514,11.594-90.09,8.87
	c-19.891,2.637-35.008-21.085-12.107-27.706c51.449,3.988,100.195-10.46,149.652-22.637c2.281-0.546,8.465,0.402,4.766-6.737
	c-73.055,7.561-169.346,39.659-225.037-24.518c-23.881-27.566-8.543-63.606-12.564-96.297c-0.467-12.326-11.881-18.025-23.4-12.905
	c-20.236,11.484-15.141,41.736-18.729,61.656c0.094,22.754-10.371,39.656-32.123,47.085
	c-34.873,20.231-12.133,68.394-18.461,100.964c-2.268,37.092-5.631,74.115-8.656,111.158
	c-5.842,76.017-14.238,152.015-17.328,228.155c-4.117,98.427,5.92,197.382,16.693,295.181c6.063-79.531,0.473-159.668,2.602-239.453
	c-1.563-34.315,14.229-44.002,45.67-48.297c28.467-9.476,58.416-3.246,87.385-8.345c12.736-2.241,21.574,5.792,25.525,19.254
	C1691.262,1730.485,1698.701,1823.604,1705.85,1915.635"/>
<path fill="#010202" d="M1065.316,1513.959c-6.578,83.154-8.342,164.947-12.73,248.041c-5.271,34.955,16.563,119.188-44.217,102.42
	c-14.914-4.58-11.623-23.557-14.074-35.847c-6.426-65.296-12.861-130.592-19.111-195.903
	c0.602-121.239,34.363-240.271,49.189-360.385c5.125-32.855,6.434-66.275,12.941-98.959c2.211-29.733,39.166-40.146,34.125-71.581
	c3.992-41.571-17.869-113.775,39.818-123.343c34.506-0.945,20.334,73.573,21.162,96.423c-1.703,33.297-0.703,29.823,24.928,46.884
	c32.791,16.994,45.439,35.158,40.271,72.729c-0.324,51.92-1.996,103.882-0.529,155.754c8.051,146.656,23.367,293.179,11.58,440.202
	c-0.689,22.916-11.248,26.712-30.879,20.02c-24.818-6.479-22.75-33.582-24.303-54.387c-4.646-68.39-12.695-136.598-11.023-205.327
	c0.301-25.043-1.521-39.856-29.537-38.974C1095.35,1510.961,1084.342,1511.358,1065.316,1513.959 M1106.855,1017.503
	c-2.072-0.197-4.146-0.394-6.219-0.591c-10.594,44.658,15.877,105.373-21.93,139.44c-9.918,7.328-14.818,17.771-16.021,30.206
	c-15.422,113.32-33.277,226.424-50.518,339.516c-16,94.431-6.535,192.041,9.361,285.55c7.205-94.081,7.592-188.963,14.791-283.315
	c1.736-14.122-2.055-35.938,15.836-40.433c129.332-19.611,117.875,18.067,121.842,127.075c1.197,34.279,1.527,68.589,2.512,102.878
	c0.115,3.978-1.979,9.827,5.773,11.295c8.279-128.487-8.494-256.322-12.217-384.746c-13.707-47.024,22.262-174.784-16.307-193.012
	C1075.139,1110.351,1114.377,1091.58,1106.855,1017.503"/>
<path fill="#010202" d="M682.935,45.483c-4.267,15.556,3.562,37.97-14.149,42.637c-19.697-0.818-11.517-31.355-13.375-44.872
	c1.096-21.864,30.157-29.611,47.797-23.319c9.904,3.255,7.748,15.063,0.959,19.532C698.515,42.59,691.489,43.239,682.935,45.483"/>
<path fill="#010202" d="M716.101,693.645c-13.324-3.313-31.83-4.168-29.912-21.826c5.793-21.973,35.985-5.701,51.487-4.828
	c3.205,0.731,8.012,4.784,7.947,7.203C745.627,690.185,726.836,689.844,716.101,693.645"/>
<path fill="#010202" d="M670.323,531.007c28.067-6.398,20.413,29.789,20.512,46.827c-0.356,5.859-7.924,11.601-12.462,9.659
	C659.754,577.162,662.288,550.063,670.323,531.007"/>
<path fill="#010202" d="M1874.316,498.512c17.127-6.727,25.479-3.789,26.35,9.648c-1.076,10.905,2.113,31.22-11.965,34.188
	C1869.953,538.688,1875.223,512.005,1874.316,498.512"/>
<path fill="#010202" d="M656.124,362.737c-2.117-14.162,6.611-41.869,21.799-21.573
	C693.047,380.245,656.262,415.449,656.124,362.737"/>
<path fill="#010202" d="M956.999,695.666c-8.813-4.303-29.787-2.714-29.988-17.853c7.961-16.698,33.853-7.846,46.208-0.504
	C983.404,689.45,970.061,695.791,956.999,695.666"/>
<path fill="#010202" d="M1892.004,331.622c-0.609,14.906-8.934,35.388-23.686,16.498c-1.23-10.479-0.779-21.235-0.055-31.827
	c0.957-12.739,16.395-8.806,20.785-0.467C1891.338,319.72,1890.951,325.184,1892.004,331.622"/>
<path fill="#010202" d="M1295.941,14.691c-9.887,21.28-65.904,24.364-46.674-1.889C1268.465,6.762,1281.059-6.081,1295.941,14.691"
	/>
<path fill="#010202" d="M1362.281-1.381c9.377,4.54,18.273,14.353,6.291,20.537c-12.875,2.9-28.006,14.224-40.006,4.241
	C1315.178,3.663,1350.541,4.271,1362.281-1.381"/>
<path fill="#010202" d="M971.391,48.105c-9.504-1.988-24.04-4.298-21.702-17.424c2.997-16.693,23.752-8.72,34.448-5.502
	C1000.35,34.459,985.461,48.911,971.391,48.105"/>
<path fill="#010202" d="M873.344,665.426c49.98,1.38,10.627,37.424-17.272,20.117c-13.455-14.627,2.08-21.909,17.229-19.229
	C873.316,666.018,873.331,665.722,873.344,665.426"/>
<path fill="#010202" d="M1556.604,43.182c-19.543,4.225-25.742-18.377-8.85-23.5c12.41,0.568,32.453-5.532,35.674,11.41
	C1582.566,43.115,1563.855,41.479,1556.604,43.182"/>
<path fill="#010202" d="M690.681,474.51c-18.293,45.398-45.196-41.537-11.241-27.08C687.363,454.112,690.026,463.3,690.681,474.51"
	/>
<path fill="#010202" d="M796.006,653.179c15.373-0.715,31.273,8.665,15.375,21.066c-10.192,1.742-20.834,2.107-31.133,1.149
	C763.676,660.485,778.926,652.368,796.006,653.179"/>
<path fill="#010202" d="M659.983,166.574c-0.215-12.195,7.292-33.468,21.047-19.479
	C698.467,172.743,666.896,215.989,659.983,166.574"/>
<path fill="#010202" d="M1177.607,12.899c42.75,13.837-24.771,49.933-27.617,13.82C1153.395,16.47,1167.918,16.438,1177.607,12.899"
	/>
<path fill="#010202" d="M851.463,42.604c-15.057,2.303-32.902-12.912-14.987-22.566c10.759,0.207,31.581-5.225,35.381,8.36
	C870.545,38.756,860.658,42.428,851.463,42.604"/>
<path fill="#010202" d="M1794.928,656.599c-10.244,23.583-22.563,12.524-34.875,2.131
	C1749.512,635.381,1789.479,639.863,1794.928,656.599"/>
<path fill="#010202" d="M664.954,258.099c1.983-6.575,1.23-21.445,12.12-21.062c6.757,0.078,10.441,5.785,11.662,11.073
	C697.883,276.772,664.431,291.771,664.954,258.099"/>
<path fill="#010202" d="M1077.496,47.87c-18.307,3.115-39.791-19.301-10.41-24.387C1091.895,17.48,1110.982,44.471,1077.496,47.87"
	/>
<path fill="#010202" d="M1884.557,253.522c-19.688-0.386-22.002-33.328-1.162-33.701
	C1899.598,219.75,1900.201,252.531,1884.557,253.522"/>
<path fill="#010202" d="M1457.791,44.87c-5.268-0.556-11.684-3.002-12.717-8.856c-0.02-13.54,20.451-11.906,29.984-16.204
	c5.227-1.146,11.072,5.194,11.332,11.091C1486.604,45.454,1467.867,41.948,1457.791,44.87"/>
<path fill="#010202" d="M1693.338,672.375c-12.311,0.559-27.063-10.91-13.502-20.966c8.184-1.591,16.824-2.461,25.031-1.469
	C1721.463,657.371,1708.107,673.748,1693.338,672.375"/>
<path fill="#010202" d="M1162.492,659.369c14.186-3.215,30.471,15.504,15.133,22.263c-8.477,0.587-17.322,0.379-25.498-1.605
	C1138.969,670.959,1148.678,658.646,1162.492,659.369"/>
<path fill="#010202" d="M1051.953,680.295c-2.922,2.19-6.863,7.471-9.996,7.027c-9.15-2.363-31.004-6.462-25.813-19.923
	C1025.959,650.898,1051.988,662.087,1051.953,680.295"/>
<path fill="#010202" d="M1787.254,38.869c-5.09,17.442-33.979,18.716-37.172,0.55C1751.35,25.387,1782.127,28.047,1787.254,38.869"
	/>
<path fill="#010202" d="M1854.082,29.078c48.438,4.108-8.338,42.508-17.615,15.834C1835.34,34.9,1846.254,29.3,1854.082,29.078"/>
<path fill="#010202" d="M762.258,42.584c-24.932-5.05-15.607-25.173,5.344-25.989C790.303,18.01,782.081,41.453,762.258,42.584"/>
<path fill="#010202" d="M1868.576,93.385c17.092-33.081,41.795,0.791,18.096,18.56
	C1876.426,110.179,1870.93,103.513,1868.576,93.385"/>
<path fill="#010202" d="M671.615,634c-0.528-13.889,12.457-21.291,21.484-10.397C707.422,645.735,673.524,667.955,671.615,634"/>
<path fill="#010202" d="M1913.021,593.829c-3.396,8.468-8.287,15.192-18.631,15.235
	C1875.162,589.091,1895.064,558.712,1913.021,593.829"/>
<path fill="#010202" d="M1670.648,51.137c-19.338-13.094-6.361-32.79,14.168-25.458
	C1699.344,33.611,1681.791,49.759,1670.648,51.137"/>
<path fill="#010202" d="M1871.375,164.144c3.281-28.805,39.254-4.388,19.348,13.299
	C1880.572,189.49,1870.42,176.419,1871.375,164.144"/>
<path fill="#010202" d="M1876.492,440.379c-9.447-8.945-5.084-38.74,11.359-28.39c5.219,4.256,11.811,8.712,8.488,16.634
	C1892.881,436.87,1887.805,444.412,1876.492,440.379"/>
<path fill="#010202" d="M1842.328,655.133c-2.328,13.935-28.893,20.393-27.91,0.128
	C1816.105,637.316,1842.105,638.414,1842.328,655.133"/>
<path fill="#010202" d="M1904.25,667.217c-8.881-2.051-17.135-13.464-5.146-17.742
	C1910.354,648.332,1919.574,663.552,1904.25,667.217"/>
<path fill="#FFFFFF" d="M1467.648,1018.053c-7.02-8.063-6.186-16.982-3.184-26.113c4.094,8.686,4.789,17.66,2.365,26.87
	L1467.648,1018.053z"/>
<path fill="#FFFFFF" d="M1541.018,579.121v9.555c-0.268-0.015-0.533-0.028-0.801-0.042c0.23-3.198,0.457-6.397,0.68-9.61
	C1540.889,579.008,1541.018,579.121,1541.018,579.121"/>
<path fill="#FFFFFF" d="M1466.83,1018.809c1.848,1.237,5.24,1.24,3.908,4.25c-1.023-1.67-2.043-3.338-3.078-5.007
	C1467.648,1018.052,1466.83,1018.809,1466.83,1018.809"/>
<path fill="#010202" d="M1369.156,668.748c-1.07,16.178-30.762,12.353-31.012-1.562
	C1337.619,648.895,1371.158,648.33,1369.156,668.748"/>
<path fill="#010202" d="M1266.76,673.971c-14.988-3.236-21.479-21.854-4.238-26.342c7.254-2.286,12.881,2.68,18.117,7.019
	C1288.986,664.358,1274.297,670.472,1266.76,673.971"/>
</svg>
