<?xml version="1.0" encoding="UTF-8"?>
<!DOCTYPE svg PUBLIC "-//W3C//DTD SVG 1.1//EN" "http://www.w3.org/Graphics/SVG/1.1/DTD/svg11.dtd">
<!-- Creator: CorelDRAW X8 -->
<?xml-stylesheet href="Sin título-3.css" type="text/css"?>
<svg xmlns="http://www.w3.org/2000/svg" xml:space="preserve" width="58.3526mm" height="12.4337mm" version="1.1" style="shape-rendering:geometricPrecision; text-rendering:geometricPrecision; image-rendering:optimizeQuality; fill-rule:evenodd; clip-rule:evenodd"
viewBox="0 0 5990 1276"
 xmlns:xlink="http://www.w3.org/1999/xlink">
 <g id="Capa_x0020_1">
  <metadata id="CorelCorpID_0Corel-Layer"/>
  <polygon class="fil0 str0" points="61,741 788,741 788,14 61,14 61,741 "/>
  <polygon class="fil0 str0" points="788,741 1514,741 1514,14 788,14 "/>
  <polygon class="fil0 str0" points="1514,741 2241,741 2241,14 1514,14 "/>
  <polygon class="fil1 str1" points="2241,741 2967,741 2967,14 2241,14 "/>
  <line class="fil0 str0" x1="788" y1="377" x2="1514" y2= "377" />
  <path class="fil1" d="M1514 734c201,0 363,-161 363,-360 0,-199 -162,-360 -363,-360l0 720z"/>
  <polygon class="fil0 str0" points="2965,741 5869,741 5869,14 2965,14 "/>
  <polygon class="fil1" points="788,377 788,14 61,741 788,741 "/>
  <polygon class="fil1 str1" points="4414,740 5867,740 5867,14 4414,14 "/>
  <path class="fil1" d="M30 1255c-2,-2 -4,-4 -6,-6 -4,-4 -7,-9 -9,-14 -3,-6 -5,-11 -7,-17l-1 0 0 -2 0 0c0,-1 -1,-3 -1,-5l0 -1c-2,-1 -2,-2 -2,-5 0,-3 -1,-5 -1,-6l-1 -1c-1,-2 -1,-4 -1,-6 -1,-2 -1,-5 -1,-7 0,-3 0,-8 0,-14 0,-7 0,-14 0,-22l0 -51c0,-8 0,-15 0,-21 1,-6 1,-9 2,-11l1 0c0,-1 0,-2 0,-4 1,-1 1,-2 1,-4 0,-2 -1,-3 -1,-4l0 -1 1 -1 0 -2 1 -2c0,-1 1,-2 2,-5 0,-2 1,-5 2,-8 1,-3 2,-5 2,-8 1,-2 1,-4 1,-4l1 -1c0,-2 2,-4 4,-6 1,-3 4,-5 6,-7 2,-3 4,-5 7,-7 2,-2 4,-4 6,-6l0 0 1 -1 1 0 0 -1c1,0 2,-1 4,-2 3,-1 4,-1 4,-2l2 -1 1 0c2,-1 5,-2 7,-2 2,-1 4,-2 7,-2l0 -1 5 0c1,0 3,0 5,0 2,0 4,0 6,0 3,0 6,0 9,0 3,1 6,1 8,3 0,0 1,1 1,0l1 1 1 0c1,0 2,1 3,1l3 1 1 0 0 1 3 0 0 1 1 0 0 1 1 0 1 1 1 0 0 1 1 0 1 1 1 1c1,0 2,1 3,1l0 1c3,1 6,4 8,7 2,3 4,5 6,7l3 5 0 1c1,1 1,3 2,3l1 3 1 1c1,2 1,4 2,7 1,2 1,5 2,7l0 0c2,4 3,8 3,11 -1,4 -1,8 -1,12 0,3 1,6 2,9 1,3 2,6 2,9l0 92c0,3 -1,5 -1,7 -1,2 -2,4 -3,7 0,1 0,4 0,8 0,3 0,6 0,8 0,2 0,5 -1,8 -1,3 -1,5 -1,5l-2 6c-1,0 -1,2 -2,4 -1,2 -3,4 -4,6 -1,3 -2,5 -3,7 -1,2 -2,3 -2,3l0 2 -1 1c-2,4 -5,6 -9,8 -3,2 -7,5 -10,8l-1 0 0 0 0 0 0 1 -1 0c-2,1 -4,2 -5,3 -1,1 -3,1 -5,2l-1 1 -1 0 -1 0c-4,1 -8,2 -12,2 -4,0 -7,0 -11,0l-7 0c-4,0 -8,0 -12,-2l0 0 -5 -1 -1 -1 -1 0c0,-1 -2,-2 -4,-3 -3,-1 -4,-2 -5,-3l-1 0c-2,-2 -4,-4 -7,-5zm1 -47c0,1 0,1 0,2l1 0 0 1c0,2 1,3 1,4 1,1 1,2 1,4l2 3 0 0 0 0 0 1 0 0 0 1 1 0 0 1 0 0 0 1 3 2 0 1c0,1 1,1 2,2 1,1 2,1 3,2l1 1c1,0 1,1 2,1 0,0 0,0 1,0l1 1 1 1 1 1 0 1 1 0c1,0 2,1 4,2 1,0 3,1 4,1 2,1 3,1 5,1 1,0 1,0 2,1 1,0 2,0 3,1l1 0c1,1 3,1 4,1l7 0 1 -1c1,0 2,0 3,0l0 0 2 0 0 -1 5 -2 1 0 0 -1 1 0 0 0 0 0 1 -1 2 -1 0 0 1 0 4 -4c1,-1 2,-2 3,-3l0 -1 3 -2 0 -1 0 0 0 -1 0 0 0 -1c3,-1 4,-3 5,-6 1,-3 2,-6 3,-8l0 0c1,-1 1,-2 1,-3l0 -1c1,-2 1,-5 0,-7 0,-2 0,-5 0,-7 0,-3 0,-6 1,-9l1 0c1,-4 1,-8 1,-13l0 -73c0,-2 0,-3 0,-5 0,-2 -1,-3 -1,-5l0 0c-1,-2 -1,-3 -2,-4 0,-1 0,-2 0,-3 0,-2 0,-4 1,-6 1,-1 2,-3 2,-5 0,-2 -1,-3 -1,-5 -1,-2 -2,-3 -2,-5 0,-3 0,-5 0,-8 0,-2 0,-5 0,-7 0,-9 -3,-17 -9,-23 -6,-5 -13,-10 -21,-12l0 -1c-2,-1 -4,-1 -5,-1 0,0 -1,0 -2,0l-16 0c0,0 0,0 -1,0 -2,0 -3,1 -6,2 -2,1 -3,2 -5,2l0 1 -1 0 0 0 -1 0 0 1 0 0 0 0 -1 0c-3,3 -5,5 -9,8 -3,3 -6,6 -7,9 -1,2 -1,4 -1,6 -1,1 -1,3 -2,5 0,1 0,1 -1,1l0 2 0 0c-1,2 -1,3 0,4 0,1 0,2 0,3l0 2c0,0 0,1 -1,1 0,2 0,3 0,3l-1 1c-1,2 -1,5 -1,8 -1,3 -1,7 -1,10 0,4 0,7 1,11l0 8c0,3 0,5 0,7 1,2 1,4 1,7 0,2 0,4 -1,6 0,3 0,5 0,7 0,3 0,9 0,17 -1,8 -1,16 -1,25 0,8 0,16 1,23 0,8 0,12 1,13l0 1 0 0 0 1 1 0 0 1c1,1 1,2 1,3z"/>
  <path class="fil1" d="M2997 1226c0,1 0,3 0,5 -1,3 -1,4 -1,6 0,5 2,9 7,10 4,2 8,2 13,2 3,0 6,0 9,0 2,0 5,0 7,0 0,0 1,0 1,0 1,0 1,0 2,0 3,0 5,0 6,1l1 1 1 0 2 1c0,1 1,2 1,2 0,1 1,2 1,3l1 1c0,1 -1,4 -3,8 -2,3 -4,6 -6,6 -1,1 -4,1 -8,1l-29 0c-4,0 -8,0 -13,0 -4,0 -7,0 -11,0l-6 0c-4,0 -7,0 -9,2 -3,1 -6,1 -8,1 -2,0 -4,0 -6,-1 -1,0 -3,-1 -5,-1 -2,-1 -3,-1 -5,-1l-5 0c-3,0 -6,0 -9,0 -4,0 -7,0 -10,0l-5 0c-2,0 -4,0 -6,-1 0,0 -1,-1 -2,-2 -1,0 -2,0 -3,-1l0 -1c-1,-1 -2,-3 -2,-4 0,-2 1,-3 1,-4 1,-1 1,-2 2,-3 1,-1 2,-2 2,-4 1,-1 2,-1 4,-2l0 -1 1 0 0 -1 1 0 4 -1c0,-1 0,-1 0,-1l3 -1 1 0c0,0 1,0 2,0 1,0 3,0 4,1 2,0 3,1 5,1 0,0 1,0 1,-1 1,0 1,0 2,0l1 0 0 0c1,-1 3,-1 4,-1 2,0 3,0 5,1 1,0 2,0 4,0 0,0 1,0 3,0 2,0 4,0 6,-1 2,0 4,0 6,-1 1,0 2,0 3,0l0 0c2,-1 4,-3 4,-6 0,-4 0,-6 0,-8l0 -156c0,-1 0,-3 1,-8 0,-5 0,-11 0,-17 0,-6 0,-11 0,-17 -1,-6 -1,-9 -2,-11l-1 -2c-2,-1 -3,-1 -4,-2l-1 0 -1 0 -4 -1c-3,0 -7,1 -10,2 -3,1 -6,2 -9,2l-5 0c-2,0 -3,0 -4,-1 -1,-1 -2,-1 -3,-2 0,0 -1,-1 -2,-2l-1 0 0 -1c-2,-2 -2,-4 -2,-5 0,-4 1,-7 4,-8 3,-1 5,-2 9,-3l1 -1 1 0 0 0c3,-1 5,-2 8,-2l0 -1c2,-1 3,-1 5,-1 0,-1 1,-1 3,-1 1,0 2,0 2,0 1,0 2,0 2,0 2,0 3,0 5,0 2,-1 3,-1 5,-2l0 0c4,0 7,-1 10,-2 3,-1 6,-2 9,-2 1,0 3,0 5,1 2,0 3,1 5,2l1 2c1,7 1,14 1,21 0,7 0,14 0,21 0,3 -1,6 -1,9 -1,4 -1,6 -1,8 0,0 0,1 0,2 0,0 0,1 0,1l0 0c1,2 1,3 2,5 0,3 0,4 0,6l0 21c0,4 -1,7 -2,10 -1,3 -2,6 -2,10l0 11c0,4 0,7 1,11 0,3 1,5 2,7 0,2 1,5 1,7l0 20c0,2 0,4 -1,6 0,2 -1,4 -1,6 0,2 1,3 1,4 0,1 0,3 1,4 0,5 0,10 0,14 -1,5 -1,10 -1,15 0,3 1,6 1,8 1,2 2,5 3,7z"/>
  <path class="fil1" d="M5757 1226c0,1 0,3 0,5 0,3 0,4 0,6 0,5 2,9 6,10 4,2 9,2 14,2 3,0 5,0 8,0 3,0 5,0 7,0 1,0 1,0 2,0 0,0 1,0 1,0 3,0 5,0 6,1l2 1 0 0 2 1c1,1 1,2 2,2 0,1 0,2 1,3l0 1c0,1 -1,4 -3,8 -2,3 -4,6 -5,6 -1,1 -4,1 -9,1l-28 0c-5,0 -9,0 -13,0 -4,0 -8,0 -11,0l-7 0c-3,0 -6,0 -9,2 -3,1 -5,1 -8,1 -2,0 -4,0 -5,-1 -2,0 -4,-1 -5,-1 -2,-1 -4,-1 -5,-1l-5 0c-4,0 -7,0 -10,0 -3,0 -6,0 -10,0l-5 0c-2,0 -4,0 -5,-1 -1,0 -2,-1 -3,-2 -1,0 -2,0 -2,-1l-1 -1c-1,-1 -1,-3 -1,-4 0,-2 0,-3 1,-4 0,-1 1,-2 1,-3 1,-1 2,-2 3,-4 0,-1 1,-1 3,-2l0 -1 1 0 1 -1 1 0 3 -1c0,-1 0,-1 1,-1l2 -1 2 0c0,0 0,0 1,0 2,0 3,0 5,1 1,0 3,1 4,1 1,0 1,0 2,-1 0,0 1,0 1,0l1 0 0 0c2,-1 3,-1 5,-1 1,0 3,0 4,1 1,0 3,0 4,0 1,0 2,0 4,0 1,0 3,0 5,-1 2,0 4,0 6,-1 2,0 3,0 3,0l0 0c3,-1 4,-3 4,-6 1,-4 1,-6 1,-8l0 -156c0,-1 0,-3 0,-8 0,-5 0,-11 0,-17 0,-6 0,-11 0,-17 0,-6 -1,-9 -1,-11l-1 -2c-2,-1 -3,-1 -4,-2l-2 0 -1 0 -4 -1c-3,0 -6,1 -9,2 -3,1 -7,2 -10,2l-4 0c-2,0 -4,0 -5,-1 -1,-1 -1,-1 -2,-2 -1,0 -2,-1 -2,-2l-1 0 0 -1c-2,-2 -3,-4 -3,-5 0,-4 1,-7 4,-8 3,-1 6,-2 9,-3l1 -1 1 0 1 0c2,-1 5,-2 7,-2l1 -1c1,-1 3,-1 5,-1 0,-1 1,-1 3,-1 0,0 1,0 2,0 1,0 1,0 2,0 1,0 3,0 4,0 2,-1 4,-1 5,-2l1 0c3,0 6,-1 9,-2 3,-1 7,-2 9,-2 2,0 4,0 5,1 2,0 4,1 5,2l1 2c1,7 2,14 1,21 0,7 0,14 0,21 0,3 0,6 -1,9 -1,4 -1,6 -1,8 0,0 0,1 0,2 0,0 0,1 0,1l1 0c0,2 1,3 1,5 0,3 0,4 0,6l0 21c0,4 0,7 -2,10 -1,3 -1,6 -1,10l0 11c-1,4 -1,7 0,11 0,3 1,5 2,7 1,2 1,5 1,7l0 20c0,2 0,4 0,6 -1,2 -1,4 -1,6 0,2 0,3 0,4 1,1 1,3 1,4 0,5 0,10 0,14 0,5 0,10 0,15 0,3 0,6 1,8 1,2 1,5 2,7zm114 29c-3,-2 -5,-4 -7,-6 -4,-4 -7,-9 -9,-14 -3,-6 -5,-11 -6,-17l-1 0 0 -2 -1 0c0,-1 0,-3 -1,-5l0 -1c-1,-1 -2,-2 -2,-5 0,-3 -1,-5 -1,-6l-1 -1c0,-2 -1,-4 -1,-6 0,-2 0,-5 0,-7 0,-3 0,-8 0,-14 -1,-7 -1,-14 -1,-22l0 -51c0,-8 0,-15 1,-21 0,-6 0,-9 1,-11l1 0c0,-1 0,-2 0,-4 1,-1 1,-2 1,-4 0,-2 0,-3 0,-4l0 -1 0 -1 0 -2 1 -2c1,-1 1,-2 2,-5 1,-2 2,-5 2,-8 1,-3 2,-5 2,-8 1,-2 1,-4 1,-4l1 -1c1,-2 2,-4 4,-6 2,-3 4,-5 6,-7 2,-3 4,-5 7,-7 2,-2 4,-4 6,-6l1 0 1 -1 0 0 0 -1c1,0 2,-1 5,-2 2,-1 3,-1 4,-2l1 -1 1 0c3,-1 5,-2 7,-2 2,-1 5,-2 7,-2l0 -1 5 0c2,0 4,0 5,0 2,0 4,0 6,0 3,0 7,0 10,0 3,1 5,1 8,3 0,0 0,1 1,0l0 1 1 0c1,0 2,1 3,1l3 1 1 0 0 1 3 0 0 1 1 0 1 1 1 0 0 1 1 0 1 1 0 0 1 1 2 1c0,0 1,1 2,1l1 1c3,1 5,4 7,7 2,3 4,5 7,7l2 5 1 1c0,1 1,3 1,3l1 3 1 1c1,2 2,4 2,7 1,2 1,5 2,7l1 0c1,4 2,8 2,11 0,4 0,8 0,12 0,3 0,6 1,9 2,3 2,6 2,9l0 92c0,3 0,5 -1,7 -1,2 -2,4 -2,7 -1,1 -1,4 -1,8 0,3 1,6 1,8 0,2 -1,5 -2,8 0,3 -1,5 -1,5l-2 6c0,0 -1,2 -2,4 -1,2 -2,4 -3,6 -1,3 -3,5 -4,7 -1,2 -1,3 -2,3l0 2 -1 1c-2,4 -4,6 -8,8 -4,2 -8,5 -10,8l-1 0 0 0 -1 0 0 1 -1 0c-2,1 -4,2 -5,3 -1,1 -3,1 -5,2l-1 1 -1 0 -1 0c-4,1 -8,2 -11,2 -4,0 -8,0 -12,0l-6 0c-5,0 -9,0 -12,-2l-1 0 -5 -1 -1 -1 0 0c-1,-1 -3,-2 -5,-3 -2,-1 -4,-2 -5,-3l0 0c-2,-2 -5,-4 -7,-5zm0 -47c0,1 0,1 1,2l0 0 0 1c1,2 1,3 2,4 0,1 1,2 1,4l1 3 0 0 0 0 0 1 1 0 0 1 0 0 0 1 1 0 0 1 2 2 0 1c1,1 2,1 3,2 1,1 1,1 2,2l2 1c0,0 1,1 1,1 0,0 1,0 1,0l1 1 1 1 1 1 1 1 1 0c0,0 2,1 3,2 2,0 3,1 5,1 1,1 3,1 4,1 1,0 2,0 2,1 1,0 2,0 3,1l1 0c1,1 3,1 4,1l8 0 1 -1c1,0 1,0 2,0l1 0 1 0 1 -1 4 -2 1 0 0 -1 1 0 0 0 1 0 1 -1 2 -1 0 0 1 0 3 -4c1,-1 2,-2 4,-3l0 -1 2 -2 0 -1 0 0 0 -1 1 0 0 -1c2,-1 4,-3 4,-6 1,-3 2,-6 3,-8l0 0c1,-1 1,-2 1,-3l0 -1c1,-2 1,-5 1,-7 -1,-2 -1,-5 -1,-7 0,-3 1,-6 2,-9l0 0c1,-4 2,-8 2,-13l0 -73c0,-2 0,-3 -1,-5 0,-2 0,-3 -1,-5l0 0c-1,-2 -1,-3 -1,-4 -1,-1 -1,-2 -1,-3 0,-2 1,-4 2,-6 0,-1 1,-3 1,-5 0,-2 -1,-3 -1,-5 -1,-2 -1,-3 -2,-5 0,-3 0,-5 0,-8 0,-2 0,-5 0,-7 0,-9 -3,-17 -9,-23 -6,-5 -12,-10 -20,-12l-1 -1c-2,-1 -3,-1 -4,-1 -1,0 -2,0 -3,0l-15 0c0,0 -1,0 -2,0 -1,0 -3,1 -5,2 -2,1 -4,2 -5,2l0 1 -1 0 0 0 -1 0 0 1 -1 0 0 0 -1 0c-2,3 -5,5 -9,8 -3,3 -6,6 -7,9 -1,2 -1,4 -1,6 -1,1 -1,3 -2,5 1,1 0,1 0,1l0 2 -1 0c0,2 0,3 0,4 0,1 1,2 1,3l0 2c0,0 -1,1 -1,1 0,2 -1,3 -1,3l-1 1c0,2 -1,5 -1,8 0,3 0,7 0,10 0,4 0,7 0,11l0 8c0,3 0,5 1,7 0,2 0,4 0,7 0,2 0,4 0,6 -1,3 -1,5 -1,7 0,3 0,9 0,17 0,8 0,16 0,25 0,8 0,16 0,23 0,8 1,12 1,13l0 1 1 0 0 1 0 0 0 1c1,1 1,2 1,3z"/>
 </g>
</svg>
